<?xml version="1.0" standalone="no"?>
<!DOCTYPE svg PUBLIC "-//W3C//DTD SVG 1.1//EN" "http://www.w3.org/Graphics/SVG/1.1/DTD/svg11.dtd" >
<svg>
<metadata>
Created by FontForge 20090914 at Mon Mar 24 22:27:37 2014
 By www-data
Copyright (c) by ParaGraph Intl.1994
</metadata>
<defs>
<font id="BirchCTT" horiz-adv-x="664" >
  <font-face 
    font-family="BirchCTT"
    font-weight="400"
    font-stretch="normal"
    units-per-em="1000"
    panose-1="0 0 0 0 0 0 0 0 0 0"
    ascent="800"
    descent="-200"
    x-height="285"
    cap-height="704"
    bbox="-180.087 -491.999 1044 992.001"
    underline-thickness="20"
    underline-position="-123"
    unicode-range="U+0020-U+2122"
  />
<missing-glyph horiz-adv-x="800" 
d="M50 0v800h700v-800h-700zM700 50v700h-600v-700h600z" />
    <glyph glyph-name=".notdef" horiz-adv-x="800" 
d="M50 0v800h700v-800h-700zM700 50v700h-600v-700h600z" />
    <glyph glyph-name="space" unicode=" " horiz-adv-x="495" 
 />
    <glyph glyph-name="exclam" unicode="!" horiz-adv-x="308" 
d="M229 604c0 -81.333 -6.66895 -159.667 -20.002 -235c-15.333 -85.333 -33.666 -128 -54.999 -128c-6.66699 0 -10 7 -10 21c0 10.667 0.666992 21 2 31s2.33301 18 3 24c0 34 0.833008 84.833 2.5 152.5s2.5 112.5 2.5 134.5c0 80.667 1.66699 138 5 172
c6 62.667 18.333 94 37 94c14.667 0 24.334 -7.66699 29.001 -23c2.66699 -8.66699 4 -25 4 -49v-194zM190.998 58.999c2.66699 -16 0.666992 -26.8311 -6 -32.498s-17 -8.5 -31 -8.5c-8.66699 0 -16.167 2.83301 -22.5 8.5s-9.5 12.5 -9.5 20.5
c0 13.333 3.5 24.166 10.5 32.499s15.167 12.5 24.5 12.5c11.333 0 19.5 -2.83301 24.5 -8.5s8.16699 -13.834 9.5 -24.501z" />
    <glyph glyph-name="quotedbl" unicode="&#x22;" horiz-adv-x="453" 
d="M348 831c0 -18 -2.50098 -46.999 -7.50098 -86.999s-11.167 -75 -18.5 -105c-4.66699 -22 -8.66699 -33 -12 -33c-16 0 -25.167 15.167 -27.5 45.5s-3.5 59.166 -3.5 86.499c0 6 -0.333008 17.333 -1 34s-1 27 -1 31c0 31.333 2.33301 57.5 7 78.5
s13.334 31.5 26.001 31.5c9.33301 0 18 -9.33301 26 -28s12 -36.667 12 -54zM219.999 826.001c0 -17.333 -2.50098 -46.3311 -7.50098 -86.998s-10.833 -75.334 -17.5 -104.001c-2 -8 -4 -15.5 -6 -22.5s-4 -10.5 -6 -10.5c-16 0 -25.167 15.167 -27.5 45.5
s-3.5 59.166 -3.5 86.499c0 6 -0.333008 17.333 -1 34s-1 27 -1 31c0 31.333 2.33301 57.5 7 78.5s13.334 31.5 26.001 31.5c9.33301 0 17.833 -9 25.5 -27s11.5 -36.667 11.5 -56z" />
    <glyph glyph-name="numbersign" unicode="#" horiz-adv-x="977" 
d="M876 365c0 -9.33301 -39.6689 -20.333 -119.002 -33c-26 -4 -50.5 -6.83301 -73.5 -8.5s-44.833 -3.16699 -65.5 -4.5c0 -6.66699 -1.33301 -17.667 -4 -33c-10.667 -62 -16.667 -98 -18 -108c-8 -67.333 -12 -113 -12 -137c0 -10.667 -3.66699 -20.334 -11 -29.001
s-16 -13 -26 -13c-9.33301 0 -15.666 5.66699 -18.999 17s-5 24.666 -5 39.999c0 21.333 3.66699 64.5 11 129.5s13.333 106.5 18 124.5c-10.667 0 -42 -3.66699 -94 -11s-83.667 -11 -95 -11c-8 -34 -16.667 -74 -26 -120c-13.333 -64 -20 -102.333 -20 -115
c0 -6 3.66699 -14.333 11 -25s11 -19.334 11 -26.001c0 -10 -2.16699 -17.5 -6.5 -22.5s-13.833 -7.5 -28.5 -7.5c-13.333 0 -24 5.33301 -32 16c-11.333 14.667 -17 37.334 -17 68.001c0 22.667 4 60 12 112s15.333 89.667 22 113h-133c-10.667 0 -19.834 2.5 -27.501 7.5
s-11.5 9.83301 -11.5 14.5c0 8.66699 4.83301 16.5 14.5 23.5s20.167 11.167 31.5 12.5c28 0 75 3.66699 141 11c5.33301 32.667 10.333 60.334 15 83.001c7.33301 38 13.333 64.667 18 80c-11.333 0 -25.666 -1 -42.999 -3c-45.333 -5.33301 -71 -8 -77 -8h-18
c-14.667 0 -24 0.333008 -28 1c-16 2.66699 -24 11 -24 25c0 7.33301 2.33301 14 7 20s11.334 9 20.001 9c26.667 0 56.834 1.33301 90.501 4s63.167 6.33398 88.5 11.001c0 11.333 3.33301 36 10 74l8 45c2 34 4.33301 68.333 7 103c4.66699 38 15.334 57 32.001 57
c13.333 0 22.833 -7.83301 28.5 -23.5s8.5 -37.167 8.5 -64.5c0 -24.667 -1.83301 -52.5 -5.5 -83.5l-11.5 -94.5c14.667 2 35.334 3.33301 62.001 4s41.667 1 45 1h55l11 81c3.33301 32 9.16602 59.333 17.499 82s19.166 34 32.499 34c10.667 0 17.5 -2.33301 20.5 -7
s4.5 -12.334 4.5 -23.001v-19c0 -20.667 -2.66699 -44.167 -8 -70.5l-17 -82.5c19.333 0 39.666 -3.33301 60.999 -10c10.667 -4 21.167 -7.33301 31.5 -10s22.333 -8 36 -16s19.834 -15 18.501 -21c-2 -6.66699 -7.66699 -10 -17 -10c-5.33301 0 -14.833 1.33301 -28.5 4
s-23.834 4.5 -30.501 5.5s-19.667 2.66699 -39 5s-32.333 3.5 -39 3.5c-3.33301 -10 -7.16602 -31 -11.499 -63s-8.16602 -62.667 -11.499 -92c11.333 0 33.666 1 66.999 3c88 5.33301 138 8 150 8c15.333 0 25.166 -1.66699 29.499 -5s6.5 -10.666 6.5 -21.999z
M578.998 537c-34 0 -64.332 -0.5 -90.999 -1.5s-50 -3.5 -70 -7.5l-37 -174c5.33301 1.33301 32.166 4.5 80.499 9.5s80.833 8.83301 97.5 11.5l10.5 95.5c2.33301 21 5.5 43.167 9.5 66.5z" />
    <glyph glyph-name="dollar" unicode="$" horiz-adv-x="581" 
d="M536 201c0 -48 -22.999 -87.668 -68.999 -119.001c-42 -28.667 -95 -46 -159 -52c0 -42.667 -0.333008 -68.334 -1 -77.001c-2.66699 -36.667 -10.667 -58 -24 -64c-2.66699 -1.33301 -6.66699 -2 -12 -2c-8 0 -13.5 4.33301 -16.5 13s-4.5 20.334 -4.5 35.001
c0.666992 14.667 1 25.334 1 32.001l-1 62c-51.333 0 -93.333 1.66699 -126 5c-54 5.33301 -81 14.333 -81 27c0 8.66699 2.83301 15.5 8.5 20.5s13.167 7.5 22.5 7.5c2 0 32.667 -2 92 -6c30 -2 58 -3 84 -3v275c-54.667 7.33301 -100.334 24.666 -137.001 51.999
c-40.667 30 -61 65.333 -61 106c0 31.333 20.333 59.333 61 84c35.333 22 79 37.667 131 47l2 77c0.666992 30.667 1.5 56.834 2.5 78.501s5.16699 34.5 12.5 38.5c5.33301 2 12.333 0.333008 21 -5c17.333 -11.333 26 -25 26 -41c0 -24 -0.5 -53.167 -1.5 -87.5
s-1.5 -52.166 -1.5 -53.499c35.333 0 71.333 -6.66699 108 -20c48.667 -18 73 -42 73 -72c0 -2.66699 0.333008 -5.33398 1 -8.00098c-0.666992 -3.33301 -4 -5 -10 -5c-8 0 -29.667 8.5 -65 25.5s-70.666 25.5 -105.999 25.5v-198c30 -4.66699 58.167 -10.667 84.5 -18
s50.166 -17.666 71.499 -30.999c26 -16.667 44.833 -37.334 56.5 -62.001s17.5 -53.667 17.5 -87zM249.001 407.999v23v19v16v14v11c0 8.66699 -0.166992 18.167 -0.5 28.5s-1.5 21.166 -3.5 32.499v32c-34 -8.66699 -61.333 -18.667 -82 -30
c-27.333 -15.333 -41 -31.666 -41 -48.999c0 -22.667 15 -44.5 45 -65.5s57.333 -31.5 82 -31.5zM477.001 199.999c0 23.333 -4.33398 43.832 -13.001 61.499s-22.667 33.167 -42 46.5c-14 10 -30.667 18 -50 24s-41.333 11 -66 15v-50v-104c0 -36 0.333008 -73.333 1 -112
c50.667 4.66699 90.334 15.667 119.001 33c34 20.667 51 49.334 51 86.001z" />
    <glyph glyph-name="percent" unicode="%" horiz-adv-x="671" 
d="M631 176c0 -24 -11.333 -54.668 -34 -92.001c-30 -48.667 -65.667 -73 -107 -73c-24 0 -39.333 9.33301 -46 28c-3.33301 9.33301 -5 28.333 -5 57s12.167 61.334 36.5 98.001s47.833 55 70.5 55c28 0 49.167 -5.33301 63.5 -16s21.5 -29.667 21.5 -57zM515 738.999
c0 -33.333 -7.00098 -72.667 -21.001 -118c-2 -7.33301 -11.333 -34 -28 -80c-14 -40 -35.333 -92.333 -64 -157l-66 -147c-60.667 -136 -91 -211.333 -91 -226c0 -8 3.66699 -12 11 -12c5.33301 0 15.333 5.33301 30 16s23.334 16 26.001 16c2 0 5.16699 -1.16699 9.5 -3.5
s6.5 -5.5 6.5 -9.5c0 -8.66699 -14.333 -25.667 -43 -51c-31.333 -28 -55.333 -42 -72 -42c-12 0 -19.833 3.33301 -23.5 10s-5.5 17 -5.5 31c0 20.667 8.16699 55.334 24.5 104.001s37 99.667 62 153l75.5 160c29.333 63.333 51 117.666 65 162.999
c13.333 37.333 24.5 73 33.5 107s13.5 58.333 13.5 73c0 6.66699 -3 11.667 -9 15s-13.333 5 -22 5c-10 0 -34.667 -10.667 -74 -32l-82 -45c13.333 -8.66699 23.333 -18 30 -28c12 -18 18 -41.667 18 -71c0 -38.667 -19.667 -74.667 -59 -108c-36 -30.667 -69 -46 -99 -46
c-28 0 -49.667 7.33301 -65 22c-19.333 18.667 -29 49.334 -29 92.001c0 25.333 7 51.666 21 78.999s29.667 45 47 53c8.66699 4.66699 17.5 8 26.5 10s16.833 3 23.5 3c4 0 7.66699 -0.333008 11 -1l10 -2c22.667 11.333 52.667 28 90 50l96 55c10 6 21 10.333 33 13
s23.667 4 35 4c13.333 0 25.833 -5.16699 37.5 -15.5s17.5 -23.5 17.5 -39.5zM252.999 571.998c0 16.667 -3.83301 30.334 -11.5 41.001s-18.5 16 -32.5 16c-12.667 0 -23.667 -2.33301 -33 -7c-30 -14.667 -45 -48.334 -45 -101.001c0 -10.667 3.16699 -20.167 9.5 -28.5
s14.5 -12.5 24.5 -12.5c30.667 0 53 8 67 24s21 38.667 21 68zM578.999 157.998c0 8.66699 -3.16602 17.167 -9.49902 25.5s-13.833 12.5 -22.5 12.5c-12.667 0 -26 -12.333 -40 -37s-21 -48.667 -21 -72c0 -4.66699 1.16699 -9.66699 3.5 -15s5.16602 -8 8.49902 -8
c18 0 36 11.667 54 35s27 43 27 59z" />
    <glyph glyph-name="ampersand" unicode="&#x26;" horiz-adv-x="888" 
d="M851 356c6 -8 2.33301 -16.999 -11 -26.999c-8.66699 -6.66699 -19 -11.667 -31 -15c-12 -4.66699 -28.667 -15.667 -50 -33c-16.667 -14 -36.334 -31.667 -59.001 -53c-15.333 -14.667 -42.333 -43 -81 -85c-30 -32.667 -54.333 -56 -73 -70l142 -155
c61.333 -72 92 -126 92 -162c-3.33301 -5.33301 -5.66602 -9.33301 -6.99902 -12c-5.33301 -8 -10.666 -12 -15.999 -12c-10.667 -1.33301 -22.334 8 -35.001 28l-36 58c-18 24.667 -44.333 56.167 -79 94.5l-106 115.5c-38.667 -32.667 -72 -58.334 -100 -77.001
c-52.667 -36 -100.667 -54 -144 -54c-23.333 0 -40.166 4.16699 -50.499 12.5s-15.5 23.166 -15.5 44.499c0 30 16.333 81.667 49 155l65 143c-51.333 72.667 -80.333 115.334 -87 128.001c-41.333 74.667 -62 148 -62 220c0 83.333 13.667 150.333 41 201
c33.333 62 83.333 93 150 93c63.333 0 108.333 -23 135 -69c22 -38 33 -95.333 33 -172c0 -48.667 -17.333 -111.667 -52 -189l-85 -189c20.667 -30 43.667 -60.333 69 -91l61 -74c17.333 16 39.166 37.833 65.499 65.5l79.5 85.5c30 32 61.667 58.333 95 79
c28 17.333 51.333 27.333 70 30c16 0 27 -4.66699 33 -14zM449 644.001c0 68.667 -4.00098 114.666 -12.001 137.999c-14.667 42 -46 63 -94 63c-40.667 0 -73.667 -24 -99 -72c-21.333 -40 -32 -81 -32 -123c0 -60 8.33301 -113 25 -159
c6.66699 -19.333 40.334 -77 101.001 -173c32 65.333 58.5 126.333 79.5 183s31.5 104.334 31.5 143.001zM462.999 73l-59.999 64c-18 20 -35.667 42.667 -53 68c-8 -20 -27 -61.667 -57 -125c-22 -46 -33 -76 -33 -90c-0.666992 -8.66699 -1 -14.667 -1 -18
c0 -8 2.33301 -12 7 -12c21.333 0 44.666 6.66699 69.999 20c28.667 15.333 71 46.333 127 93z" />
    <glyph glyph-name="quotesingle" unicode="'" horiz-adv-x="321" 
d="M220 826c0 -17.333 -2.50098 -46.3311 -7.50098 -86.998s-10.833 -75.334 -17.5 -104.001c-2 -8 -4 -15.5 -6 -22.5s-4 -10.5 -6 -10.5c-16 0 -25.167 15.167 -27.5 45.5s-3.5 59.166 -3.5 86.499c0 6 -0.333008 17.333 -1 34s-1 27 -1 31c0 31.333 2.33301 57.5 7 78.5
s13.334 31.5 26.001 31.5c9.33301 0 17.833 -9 25.5 -27s11.5 -36.667 11.5 -56z" />
    <glyph glyph-name="parenleft" unicode="(" horiz-adv-x="345" 
d="M387 -132c0 -3.33301 -2.16602 -7.16602 -6.49902 -11.499s-8.83301 -6.5 -13.5 -6.5c-7.33301 0 -26.333 13.667 -57 41s-56.334 55 -77.001 83c-46 60.667 -74 101.667 -84 123c-34 71.333 -51 161 -51 269c0 78 13.667 161 41 249c23.333 74 52.333 140.333 87 199
c32 54 57 81 75 81c10.667 0 20 -1.83301 28 -5.5s12 -9.5 12 -17.5c0 -3.33301 -15 -28.333 -45 -75c-35.333 -55.333 -63.333 -108.333 -84 -159c-30.667 -76.667 -46 -150.334 -46 -221.001c0 -65.333 4.33301 -122.333 13 -171c16 -89.333 46.667 -165.333 92 -228
c25.333 -35.333 57.333 -76 96 -122c13.333 -16 20 -25.333 20 -28z" />
    <glyph glyph-name="parenright" unicode=")" horiz-adv-x="382" 
d="M267 418c0 -52 -3.33398 -102.333 -10.001 -151c-8.66699 -62 -22 -115.667 -40 -161c-24 -59.333 -57.333 -114.666 -100 -165.999c-39.333 -47.333 -67.666 -71 -84.999 -71c-8.66699 0 -13.667 2 -15 6v12c24.667 27.333 44 50.333 58 69
c42 56.667 71.667 111.667 89 165c12 37.333 20.167 79.666 24.5 126.999s6.5 102.666 6.5 165.999c0 94.667 -12 180 -36 256l-79 201c0 2.66699 3.33301 7 10 13s11.667 9 15 9c10 0 26.333 -15 49 -45c30 -39.333 54.667 -89.666 74 -150.999c26 -82 39 -175 39 -279z
" />
    <glyph glyph-name="asterisk" unicode="*" horiz-adv-x="647" 
d="M569 383c0 -9.33301 -8.16895 -14.499 -24.502 -15.499s-33.166 -1.5 -50.499 -1.5h-121c6.66699 -7.33301 18.334 -17.833 35.001 -31.5s28.667 -22.834 36 -27.501c14 -7.33301 23 -13 27 -17c8 -7.33301 12 -15.333 12 -24c0 -11.333 -2.33301 -18.5 -7 -21.5
s-12.667 -4.5 -24 -4.5c-8 0 -21.333 7 -40 21l-71 58l-29 -118c-2 -9.33301 -8.33301 -15.666 -19 -18.999c-7.33301 -2.66699 -13.333 -1.5 -18 3.5s-7 11.833 -7 20.5c0 12 1.16699 27.5 3.5 46.5s6.5 41.167 12.5 66.5c-14.667 -9.33301 -28.334 -19 -41.001 -29
l-46 -34c-18.667 -14 -32.334 -23.667 -41.001 -29s-14.667 -8 -18 -8c-5.33301 0 -10 2.33301 -14 7s-6 9.66699 -6 15s18 23.333 54 54c32.667 28 56.334 46.333 71.001 55c-14 0 -32.667 -1 -56 -3s-49.333 -4 -78 -6c-10 0 -18.833 1 -26.5 3s-12.5 6.66699 -14.5 14
c-2 9.33301 -0.666992 17.333 4 24s14 10 28 10c10 0 19 0.666992 27 2l29.5 5c11.667 2 27.834 4 48.501 6s36 3 46 3l-55 68l-35 56c-15.333 25.333 -23 41 -23 47c0 15.333 6.66699 23 20 23c5.33301 0 19.333 -14 42 -42c16.667 -20 29.667 -35 39 -45
c16 -17.333 27.333 -29.333 34 -36c10.667 -11.333 19.334 -22 26.001 -32c6 37.333 11.333 65.5 16 84.5s10 37.667 16 56s17.333 25.166 34 20.499c7.33301 -1.33301 12.333 -3.83301 15 -7.5s4 -8.5 4 -14.5c0 -5.33301 -0.5 -10.333 -1.5 -15
s-2.83301 -9.66699 -5.5 -15c-4 -16 -7.33301 -35 -10 -57s-4 -41 -4 -57l83 65c44 32.667 72.667 49 86 49c12 0 18.333 -3.66699 19 -11c0 -10.667 -8.33301 -22.334 -25 -35.001l-70 -50c-26 -19.333 -45 -34.666 -57 -45.999l111 -5
c23.333 -2.66699 35.666 -4 36.999 -4c14.667 -4 22 -11.333 22 -22z" />
    <glyph glyph-name="plus" unicode="+" horiz-adv-x="772" 
d="M655 332c0 -10 -4 -17.667 -12 -23s-23.667 -8 -47 -8c-11.333 0 -26.666 1 -45.999 3l-48 5h-96c-0.666992 -4.66699 -1.16699 -9.66699 -1.5 -15s-0.5 -9 -0.5 -11c0 -10.667 0.833008 -24.334 2.5 -41.001s2.5 -27.667 2.5 -33c1.33301 -14.667 5 -34 11 -58
s9 -40 9 -48c-2 -24.667 -13 -37 -33 -37c-10.667 0 -21.5 12 -32.5 36s-19.167 53.667 -24.5 89c-8 54 -12 93.333 -12 118l-163 2c-20 0 -34 0.666992 -42 2c-21.333 3.33301 -32 13.333 -32 30c0 10.667 3.66699 19.334 11 26.001c4 3.33301 7.66699 5 11 5l73 2
c24 0 55.5 0.833008 94.5 2.5s58.833 2.5 59.5 2.5c4 15.333 6.66699 27 8 35c4 21.333 6 44.333 6 69v38c0 19.333 0.333008 31 1 35c3.33301 17.333 12 26 26 26c21.333 0 35.333 -7.66699 42 -23c4 -9.33301 6 -27 6 -53c0 -17.333 -0.833008 -37.833 -2.5 -61.5
s-4.83398 -46.5 -9.50098 -68.5l169 -3c22 0 39.167 -3.33301 51.5 -10s18.5 -17.667 18.5 -33z" />
    <glyph glyph-name="comma" unicode="," horiz-adv-x="304" 
d="M243 10c-11.333 -39.333 -32.667 -82.3311 -64 -128.998c-28 -42 -55.667 -75 -83 -99l-30 -32c-14.667 -15.333 -26.334 -23 -35.001 -23c-11.333 0 -17 3 -17 9c0 2 1.33301 5 4 9l66 85c25.333 36 46 77 62 123c8.66699 20.667 14.667 36 18 46
c6.66699 17.333 10 31.666 10 42.999c0 13.333 -4 25.333 -12 36c-3.33301 4.66699 -11.166 9.16699 -23.499 13.5s-18.5 10.166 -18.5 17.499c0 12 7.16699 22.667 21.5 32s29.833 14 46.5 14c17.333 0 29.666 -4.33301 36.999 -13c6.66699 -13.333 12.834 -25 18.501 -35
s8.5 -23.333 8.5 -40c0 -18.667 -3 -37.667 -9 -57z" />
    <glyph glyph-name="hyphen" unicode="-" horiz-adv-x="897" 
d="M727 228c0 -10.667 -6.83398 -16.999 -20.501 -18.999s-25.5 -3 -35.5 -3h-210c-33.333 0 -67.833 -1.33301 -103.5 -4l-92.5 -7c-13.333 0 -22 1.66699 -26 5s-6 12.666 -6 27.999c0 10 8.5 17.167 25.5 21.5s37.167 6.5 60.5 6.5h342
c22.667 0 39.334 -2.33301 50.001 -7s16 -11.667 16 -21z" />
    <glyph glyph-name="period" unicode="." horiz-adv-x="286" 
d="M183 62c0 -13.333 -2.66699 -24 -8 -32c-8 -11.333 -21 -17 -39 -17c-14 0 -24.833 6.83301 -32.5 20.5s-11.5 24.834 -11.5 33.501c0 9.33301 4.5 18.166 13.5 26.499s20.833 12.5 35.5 12.5c28 -3.33301 42 -18 42 -44z" />
    <glyph glyph-name="slash" unicode="/" horiz-adv-x="451" 
d="M462 772c0 -14.667 -9 -41.668 -27 -81.001c-6 -13.333 -28.167 -58.666 -66.5 -135.999s-66.5 -136.333 -84.5 -177c-2.66699 -6 -24.667 -58.667 -66 -158c-38.667 -92.667 -66.667 -157.334 -84 -194.001c-30 -62.667 -50 -94 -60 -94c-6 0 -9 5 -9 15
c0 18.667 12.167 66.834 36.5 144.501s50.5 146.5 78.5 206.5l87 195c28 64.667 50.333 113 67 145l46 100c22 44.667 40.667 67 56 67c10.667 0 17.667 -1.5 21 -4.5s5 -7.83301 5 -14.5v-14z" />
    <glyph glyph-name="zero" unicode="0" horiz-adv-x="683" 
d="M634 444c0 -90.667 -39.3369 -183.334 -118.004 -278.001c-81.333 -97.333 -164.666 -146 -249.999 -146c-89.333 0 -151 45 -185 135c-20.667 54.667 -31 126.667 -31 216c0 73.333 26.833 153.333 80.5 240s104.834 130 153.501 130c18 0 30.833 -1.66699 38.5 -5
s14.5 -9.66602 20.5 -18.999c10 4 17.333 6.83301 22 8.5s11.334 2.5 20.001 2.5c64.667 0 122.334 -29 173.001 -87s76 -123.667 76 -197zM573.996 428c0 50 -11.168 96.333 -33.501 139s-50.833 71.334 -85.5 86.001c-16 6 -31 10.5 -45 13.5s-29 4.5 -45 4.5
c-7.33301 -0.666992 -12.666 -1 -15.999 -1c-8.66699 0 -15 7 -19 21c-60 -24.667 -109.5 -63.334 -148.5 -116.001s-64.167 -115 -75.5 -187c-0.666992 -4.66699 -1 -13 -1 -25c0 -63.333 10.667 -123.333 32 -180c28.667 -75.333 68.667 -113 120 -113
c84 0 159.667 45 227 135c60 80 90 154.333 90 223z" />
    <glyph glyph-name="one" unicode="1" horiz-adv-x="315" 
d="M262 681l-56 -267.997l-38 -197c-22 -120.667 -34.833 -189.334 -38.5 -206.001s-6.83398 -32.334 -9.50098 -47.001c-4.66699 -13.333 -13 -20 -25 -20c-11.333 0 -17 5 -17 15c0.666992 6 1 11.333 1 16c0 8.66699 3.16699 36.667 9.5 84s14.833 100.666 25.5 159.999
l20 114c6.66699 37.333 10 63.333 10 78c-6.66699 12 -12 22.667 -16 32c-6 14 -8 25.667 -6 35l22 153c3.33301 28 10.833 54.333 22.5 79s25.834 37 42.501 37c6 0 11.667 -1.66699 17 -5c11.333 -6 20.333 -13 27 -21s10 -17.667 10 -29c0 -4 -0.333008 -7.33301 -1 -10z
" />
    <glyph glyph-name="two" unicode="2" horiz-adv-x="530" 
d="M591 53c0 -6 -5.33301 -10.4971 -16 -13.4971s-22 -4.5 -34 -4.5c-5.33301 0 -34.333 -1 -87 -3s-98.334 -3 -137.001 -3c-53.333 0 -100.333 -1.16699 -141 -3.5s-76 -4.16602 -106 -5.49902c-12 0 -22.833 3.16699 -32.5 9.5s-14.5 11.833 -14.5 16.5
c0 12 4.66699 23 14 33l38 33l75 88c25.333 30.667 57 66.334 95 107.001c46.667 50.667 78.334 92 95.001 124c14 27.333 21 57.333 21 90c0 26.667 -6.33301 52.334 -19 77.001c-16.667 32.667 -39.667 49 -69 49c-34 0 -65.667 -17 -95 -51
c-7.33301 -7.33301 -13.5 -17.833 -18.5 -31.5s-8 -24.334 -9 -32.001s-1.5 -15.5 -1.5 -23.5c0 -4.66699 0.333008 -10.834 1 -18.501s1 -12.834 1 -15.501c0 -10.667 -4 -16 -12 -16c-15.333 0 -28 7 -38 21c-12 16.667 -18 40.667 -18 72c0 23.333 14.667 51 44 83
c41.333 44.667 95 67 161 67c43.333 0 78 -20 104 -60c22.667 -34.667 34 -74.334 34 -119.001c0 -42.667 -6.66699 -78 -20 -106c-18 -37.333 -55.667 -86 -113 -146c-22 -22.667 -46 -48.834 -72 -78.501s-46 -53.834 -60 -72.501c-6.66699 -10 -10 -17.333 -10 -22
c0 -8 9.66699 -12 29 -12c30.667 0 74 -0.833008 130 -2.5s87 -2.5 93 -2.5h63c83.333 0 125 -9.33301 125 -28z" />
    <glyph glyph-name="three" unicode="3" horiz-adv-x="641" 
d="M611 231c0 -64.667 -18.3311 -115.668 -54.998 -153.001c-39.333 -40 -97 -60 -173 -60c-15.333 0 -35.666 2.33301 -60.999 7c-7.33301 1.33301 -56 12 -146 32l-91 18c-25.333 6 -38 14 -38 24c0 12 4.16699 19.833 12.5 23.5s19.166 5.5 32.499 5.5h11
c21.333 0 65.333 -8.16699 132 -24.5s115.667 -24.5 147 -24.5c54 0 95.667 11 125 33s44 55 44 99c0 46 -18.333 80.333 -55 103s-90.667 34 -162 34c-18.667 0 -42.834 -5.5 -72.501 -16.5s-46.834 -16.5 -51.501 -16.5c-10 0 -17.167 3.5 -21.5 10.5s-6.5 16.5 -6.5 28.5
c0 7.33301 24.667 21 74 41c32 12.667 55 22.667 69 30c39.333 31.333 68 60 86 86c16 22.667 24 42.334 24 59.001c0 12 -5.16699 20.833 -15.5 26.5s-24.5 8.5 -42.5 8.5c-20 0 -47 -4.66699 -81 -14s-54.667 -16.333 -62 -21c-2.66699 -2 -4 -4.66699 -4 -8
c0 -2.66699 2.66699 -7.66699 8 -15s8 -13.333 8 -18c0 -10.667 -5.33301 -16 -16 -16c-3.33301 0 -6.66602 0.333008 -9.99902 1s-9 1.5 -17 2.5s-14.833 6.16699 -20.5 15.5s-8.5 21 -8.5 35c0 16.667 25.333 36.667 76 60s99.334 35 146.001 35
c29.333 0 54.166 -6.16699 74.499 -18.5s30.5 -30.5 30.5 -54.5c0 -22.667 -6 -45.667 -18 -69c-20 -38 -56 -76.333 -108 -115c53.333 0 100.666 -10 141.999 -30c62.667 -30.667 94 -78.667 94 -144z" />
    <glyph glyph-name="four" unicode="4" horiz-adv-x="636" 
d="M597 315c0 -16.667 -13.332 -24.999 -39.999 -24.999c-12.667 0 -24.5 1.16699 -35.5 3.5s-29.5 7.83301 -55.5 16.5c-3.33301 -16 -7.16602 -37.667 -11.499 -65l-12.5 -80l-20 -138c-4 -27.333 -8.33301 -50 -13 -68c-0.666992 -5.33301 -4.16699 -9.33301 -10.5 -12
s-12.5 -3 -18.5 -1c-10 3.33301 -15 13 -15 29l31 344c-10 3.33301 -20 5.33301 -30 6s-22.667 1 -38 1h-31c-18.667 0 -62.334 -6 -131.001 -18s-109.334 -18 -122.001 -18c-33.333 0 -50 10.667 -50 32c0 10.667 16.667 33.334 50 68.001c36 36.667 78.667 74.667 128 114
c88 67.333 146 109.666 174 126.999c22.667 14 41.334 21 56.001 21c10.667 0 19 -1.33301 25 -4s9 -7.66699 9 -15s-7.33301 -15 -22 -23c-20.667 -12 -31.667 -18.333 -33 -19l-77 -61l-78 -65l-89 -70c-18 -14 -32 -25.333 -42 -34c23.333 5.33301 56.5 11 99.5 17
s74.167 9 93.5 9c4 0.666992 8.5 1 13.5 1h11.5c13.333 0 30.666 -0.833008 51.999 -2.5s34.666 -2.5 39.999 -2.5c3.33301 12 9 41 17 87l18 102c2.66699 20.667 6.66699 42.667 12 66c8 32.667 14.333 50.167 19 52.5s9 3.5 13 3.5
c8.66699 0 16.834 -4.83301 24.501 -14.5s11.5 -20.167 11.5 -31.5c0 -13.333 -6 -59.333 -18 -138s-18 -124.667 -18 -138c19.333 -3.33301 33.5 -6.33301 42.5 -9s20.833 -7.33398 35.5 -14.001c8.66699 -2.66699 16.667 -7 24 -13s11 -13 11 -21z" />
    <glyph glyph-name="five" unicode="5" horiz-adv-x="642" 
d="M593 299c0 -38.667 -20.9971 -79.334 -62.9971 -122.001c-36.667 -37.333 -84.667 -71.333 -144 -102c-54.667 -28.667 -111.334 -49 -170.001 -61c-44.667 -9.33301 -92.667 -14 -144 -14c-18 0 -35.667 3.5 -53 10.5s-26 14.167 -26 21.5c0 8 3.66699 14.167 11 18.5
s21.666 6.5 42.999 6.5h11c76.667 0 135 4.66699 175 14c28.667 6.66699 71 23 127 49c46 22 83.167 49.333 111.5 82s42.5 67.334 42.5 104.001c0 30.667 -17.333 56.334 -52 77.001s-78.667 31 -132 31c-22.667 0 -61.334 -10.333 -116.001 -31s-86 -31 -94 -31
c-10.667 0 -17.334 5 -20.001 15s-4 21 -4 33c0 19.333 7 49.666 21 90.999c11.333 34 24 66 38 96c9.33301 19.333 17 33 23 41c13.333 18 28.333 28 45 30l122 15c53.333 7.33301 90.166 12.5 110.499 15.5s34.833 4.5 43.5 4.5c28.667 0 43 -10.667 43 -32
c0 -14 -25.667 -25.667 -77 -35c-19.333 -3.33301 -50 -8 -92 -14s-78.333 -12.333 -109 -19l-36 -8l-30 -65c-13.333 -28 -22 -52.333 -26 -73c15.333 6 38.333 12.333 69 19s57.334 10 80.001 10c74.667 0 136.334 -13.333 185.001 -40c58 -32 87 -77.667 87 -137z" />
    <glyph glyph-name="six" unicode="6" horiz-adv-x="561" 
d="M501 273c0 -44.667 -26.001 -95.334 -78.001 -152.001c-59.333 -65.333 -123.666 -98 -192.999 -98c-45.333 0 -80 10.333 -104 31c-26 22.667 -44 69 -54 139l5 48c4 36.667 9 70 15 100c20 88.667 52.333 171.334 97 248.001c50 86 97 129 141 129
c23.333 0 40.333 -5.16699 51 -15.5s16 -24.166 16 -41.499c-0.666992 -4.66699 -1 -8 -1 -10c-2 -18.667 -5.33301 -31 -10 -37s-11.667 -9 -21 -9s-17.166 6.66699 -23.499 20l-13.5 28c-62 -31.333 -115 -115.666 -159 -252.999c-4 -13.333 -9.33301 -35.333 -16 -66
s-11.334 -57.667 -14.001 -81c10 3.33301 25.667 11.666 47 24.999c35.333 21.333 54 32.666 56 33.999c18.667 10.667 41.334 21 68.001 31c33.333 12 59.666 18 78.999 18c27.333 0 52.833 -8.66699 76.5 -26s35.5 -38 35.5 -62zM435.999 257
c0 12.667 -4.5 22.833 -13.5 30.5s-20.833 11.5 -35.5 11.5c-20.667 0 -43.167 -3.16699 -67.5 -9.5s-46.5 -15.5 -66.5 -27.5l-112 -68c0 -39.333 6.83301 -66.5 20.5 -81.5s36.5 -22.5 68.5 -22.5c46.667 0 92.667 19.833 138 59.5s68 75.5 68 107.5z" />
    <glyph glyph-name="seven" unicode="7" horiz-adv-x="567" 
d="M538 369c0 -13.333 -21.998 -22.998 -65.998 -28.998l-102 -10c-18.667 -36.667 -34 -68.334 -46 -95.001s-21 -48 -27 -64c-12 -36.667 -25.833 -72.334 -41.5 -107.001s-26.834 -52 -33.501 -52c-6 0 -11.5 2.16699 -16.5 6.5s-7.5 8.83301 -7.5 13.5
c0 14.667 13 61 39 139c22.667 67.333 42 120.333 58 159l-126 -18c-13.333 -4 -27 -9.33301 -41 -16s-24.333 -10 -31 -10c-18 0 -27 7 -27 21c0 15.333 9.66699 29.666 29 42.999c15.333 10.667 34.5 18.5 57.5 23.5s50.5 9.33301 82.5 13l82 9.5
c12.667 22 28 57.667 46 107l36 100l-163 -2l-193 -4c-20 0 -37.833 3.33301 -53.5 10s-23.5 17 -23.5 31c0 7.33301 5.83301 13.5 17.5 18.5s26.5 7.5 44.5 7.5h203c37.333 0 75.166 0.833008 113.499 2.5l120.5 5.5c9.33301 0 16.5 -1.5 21.5 -4.5s7.5 -9.5 7.5 -19.5
c0 -15.333 -15.333 -56.333 -46 -123l-64 -132h119c8 0 15.167 -2.16699 21.5 -6.5s9.5 -10.166 9.5 -17.499z" />
    <glyph glyph-name="eight" unicode="8" horiz-adv-x="636" 
d="M583 253c0 -64.667 -38.499 -124.167 -115.499 -178.5s-159.5 -81.5 -247.5 -81.5c-56 0 -104.333 17 -145 51c-43.333 36 -65 80.333 -65 133c0 34 13 67.667 39 101c20.667 26 52.334 55.333 95.001 88c-20.667 11.333 -35.167 26.5 -43.5 45.5
s-12.5 40.167 -12.5 63.5c0 59.333 24 106 72 140c44.667 31.333 104.334 47 179.001 47c53.333 0 100.333 -6 141 -18c50.667 -15.333 76 -36.333 76 -63c0 -12 -12.833 -28 -38.5 -48s-53.167 -36.667 -82.5 -50c-18.667 -9.33301 -32.334 -14 -41.001 -14
c-6 0 -9 2.66699 -9 8c0 4 8.66699 12.333 26 25c13.333 10 21.666 16.333 24.999 19l45 32c8 6.66699 11.667 12 11 16c-6 13.333 -26.167 23 -60.5 29s-68.833 9 -103.5 9c-46.667 0 -84.667 -8.66699 -114 -26c-38.667 -22.667 -58 -58.667 -58 -108
c0 -21.333 5.33301 -37.333 16 -48c14.667 -14.667 41.667 -22 81 -22c26 0 53.667 6.33301 83 19c11.333 4.66699 34.333 16.667 69 36c27.333 14.667 54 30.667 80 48c15.333 10 25 15 29 15c9.33301 0 14 -5.33301 14 -16c0 -8 -30 -33.333 -90 -76
c-12.667 -10 -22.334 -17 -29.001 -21c-11.333 -8 -26.666 -15 -45.999 -21c69.333 0 124.666 -15 165.999 -45c36 -26 54 -55.667 54 -89zM513.001 242c0 35.333 -29.334 61.667 -88.001 79c-46 13.333 -102.667 20 -170 20c-37.333 0 -75.166 -17.833 -113.499 -53.5
s-57.5 -72.167 -57.5 -109.5c0 -38.667 13 -70 39 -94c24 -22 53.333 -33 88 -33c68 0 135.333 21.667 202 65s100 85.333 100 126z" />
    <glyph glyph-name="nine" unicode="9" horiz-adv-x="493" 
d="M427 490c0 -52.667 -2.33398 -96.668 -7.00098 -132.001c-7.33301 -56 -21.333 -107 -42 -153c-18 -42.667 -40 -82.5 -66 -119.5s-50.333 -64.167 -73 -81.5c-26 -23.333 -44 -39 -54 -47c-16.667 -12.667 -40.334 -19 -71.001 -19c-10 0 -22.667 3.66699 -38 11
c-18.667 9.33301 -28 19 -28 29c0 12.667 2 21.334 6 26.001s9.33301 7 16 7s16.667 -2.66699 30 -8c8.66699 -3.33301 16.334 -5 23.001 -5c33.333 0 70.666 26.333 111.999 79c38 48 69 103 93 165c11.333 29.333 20.333 65.5 27 108.5s9.33398 69.167 8.00098 78.5
c-18.667 -20 -49 -40.333 -91 -61c-47.333 -23.333 -86.666 -35 -117.999 -35c-52 0 -86.667 14.333 -104 43c-12 20 -18 58 -18 114c0 68 29 120 87 156c46.667 28.667 101 43 163 43c48.667 0 86 -21.667 112 -65c22 -37.333 33 -82 33 -134zM358.999 483.999
c0.666992 4 0.998047 7.66797 0.998047 11.001c0 2.66699 -0.166992 6.5 -0.5 11.5s-0.5 10.833 -0.5 17.5c0 30.667 -6.33301 54.667 -19 72c-15.333 20.667 -33.666 31 -54.999 31c-59.333 0 -105.666 -12.5 -138.999 -37.5s-50 -61.5 -50 -109.5
c0 -28.667 4 -49.334 12 -62.001c10.667 -17.333 29.667 -26 57 -26c16.667 0 47.5 10.333 92.5 31s78.833 41 101.5 61z" />
    <glyph glyph-name="colon" unicode=":" horiz-adv-x="334" 
d="M208 295c0 -11.333 -4.5 -20.498 -13.5 -27.498s-19.833 -10.5 -32.5 -10.5c-6 0 -12 1.16699 -18 3.5s-11.333 5.16602 -16 8.49902c-8 6.66699 -12 16 -12 28c0 11.333 5 21.666 15 30.999s21.333 14 34 14c4 0 8.66699 -1 14 -3c19.333 -8 29 -22.667 29 -44z
M206 55.002c0 -11.333 -4.66699 -20.5 -14 -27.5s-20.333 -10.5 -33 -10.5c-6 0 -11.667 1 -17 3c-16.667 6 -26.334 17.667 -29.001 35c-0.666992 12 4.33301 22.833 15 32.5s22.334 14.5 35.001 14.5c4 0 8.66699 -1 14 -3c19.333 -8 29 -22.667 29 -44z" />
    <glyph glyph-name="semicolon" unicode=";" horiz-adv-x="271" 
d="M197 383c0 -10.667 -4.33301 -19.333 -13 -26s-19.667 -10.667 -33 -12c-28.667 0 -45.667 12.667 -51 38c-2 15.333 0.5 28.333 7.5 39s19.167 16 36.5 16c18.667 0 32.167 -4.83301 40.5 -14.5s12.5 -23.167 12.5 -40.5zM162 55.001c0 -24.667 -10.333 -54 -31 -88
s-53 -73 -97 -117c-12.667 -12.667 -23.5 -22.167 -32.5 -28.5s-18.167 -9.5 -27.5 -9.5c-10.667 0 -16 3.66699 -16 11c0 1.33301 18.667 27.333 56 78c25.333 34.667 46.666 67.334 63.999 98.001c8.66699 15.333 16 40.666 22 75.999c3.33301 20.667 13 31 29 31
c14.667 0 23.834 -3.5 27.501 -10.5s5.5 -20.5 5.5 -40.5z" />
    <glyph glyph-name="less" unicode="&#x3c;" horiz-adv-x="496" 
d="M460 35c0 -14.667 -4.33398 -22 -13.001 -22c-11.333 0 -27.666 7 -48.999 21c-96 63.333 -181 114.333 -255 153l-58 31c-32 18.667 -48 33 -48 43s17.333 30 52 60l97 82l108 106c22 19.333 40 29 54 29c12 0 20.5 -1.33301 25.5 -4s7.5 -7 7.5 -13
c0 -12 -36.667 -51.333 -110 -118l-143 -128c16 -12 44.333 -30.667 85 -56l62 -39l125 -78c40 -28 60 -50.333 60 -67z" />
    <glyph glyph-name="equal" unicode="=" horiz-adv-x="911" 
d="M838 396c0 -8.66699 -21.3311 -13.001 -63.998 -13.001h-299c-60.667 0 -136.334 -3.33301 -227.001 -10s-143.667 -10 -159 -10c-14 0 -25.667 1.33301 -35 4s-14 8 -14 16c0 24.667 37.333 40.334 112 47.001c52 3.33301 89 6 111 8c48 4 100.667 6.83301 158 8.5
s109.333 2.5 156 2.5h30c39.333 0 87.666 -5.33301 144.999 -16s86 -23 86 -37zM845.002 214.999c0 -15.333 -13.0049 -25.999 -39.0049 -31.999c-18 -4 -48 -6 -90 -6h-40c-13.333 0 -26.333 0.333008 -39 1c-91.333 0 -173.666 -0.833008 -246.999 -2.5
s-136.666 -3.33398 -189.999 -5.00098s-96 -2.83398 -128 -3.50098c-9.33301 4 -18.666 8.33301 -27.999 13c-7.33301 4.66699 -11 11.334 -11 20.001c0 8 21.333 15.5 64 22.5s94.334 10.5 155.001 10.5h475h24c8.66699 0 18 0.333008 28 1
c20.667 0 36.834 -1.16699 48.501 -3.5s17.5 -7.5 17.5 -15.5z" />
    <glyph glyph-name="greater" unicode="&#x3e;" horiz-adv-x="498" 
d="M420 220c0 -14.667 -4 -25.335 -12 -32.002s-23 -10 -45 -10l-202 -131c-46.667 -30 -75 -45 -85 -45c-6 0 -11 1.66699 -15 5s-6 8.33301 -6 15c0 10.667 51.667 53.334 155 128.001c58 42 94.333 69.667 109 83c-55.333 50.667 -83.666 76.667 -84.999 78
c-34.667 32.667 -61.334 61 -80.001 85l-55 73c-29.333 43.333 -44 76.333 -44 99c0 7.33301 3.33301 13 10 17s14.667 6 24 6c10.667 0 28 -16.333 52 -49c71.333 -97.333 108 -147 110 -149l84 -76c56.667 -51.333 85 -83.666 85 -96.999z" />
    <glyph glyph-name="question" unicode="?" horiz-adv-x="543" 
d="M531 689c0 -27.333 -23.9971 -63.001 -71.9971 -107.001l-79 -69c-22 -19.333 -44.333 -43.333 -67 -72s-34 -49.667 -34 -63c0 -24 -0.333008 -37.667 -1 -41c-2.66699 -13.333 -10.334 -20 -23.001 -20c-10 0 -17.667 8 -23 24s-8 31.333 -8 46
c0 23.333 11.333 51 34 83c20 28 46.333 57 79 87l100 92c15.333 15.333 23 26 23 32c0 8.66699 -12 17.334 -36 26.001c-32 11.333 -73 17 -123 17c-24.667 0 -47.334 -1.33301 -68.001 -4c-39.333 -5.33301 -59 -13.666 -59 -24.999c0 -10 -1.33301 -18.167 -4 -24.5
s-8.66699 -9.5 -18 -9.5c-14 0 -25.167 4.16699 -33.5 12.5s-12.5 19.166 -12.5 32.499c0 17.333 14.667 32.333 44 45c39.333 17.333 95.666 26 168.999 26c50 0 93.667 -5.33301 131 -16c54 -15.333 81 -39.333 81 -72zM294.003 73.999
c2.66699 -12.667 -0.5 -24.667 -9.5 -36s-20.167 -17 -33.5 -17c-18.667 0 -31.667 8.66699 -39 26c-1.33301 5.33301 -2 9.33301 -2 12c0 12 4.66699 22.333 14 31s19.666 13 30.999 13c10 0 18.333 -2.66699 25 -8s11.334 -12.333 14.001 -21z" />
    <glyph glyph-name="A" unicode="A" horiz-adv-x="582" 
d="M613 4c0 -15.333 -4 -23.002 -12 -23.002c-9.33301 0 -20.333 8.66699 -33 26c-16 21.333 -37 56.333 -63 105s-51.667 101.334 -77 158.001c-22.667 -3.33301 -63 -10.666 -121 -21.999l-119 -24c-5.33301 -1.33301 -8.66602 -2 -9.99902 -2
c-6.66699 0 -17 6.66699 -31 20l-50 -113c-7.33301 -13.333 -15 -30.333 -23 -51s-12 -35.667 -12 -45c0 -7.33301 -3.5 -13.5 -10.5 -18.5s-13.833 -7.5 -20.5 -7.5c-8 0 -15 4.33301 -21 13s-9 17.667 -9 27c0 13.333 12.667 50.166 38 110.499l75 178.5l72 170
c26.667 62 42.667 101.667 48 119l12 66c4 21.333 11.333 32 22 32s21 -4.33301 31 -13c14 -12 24.333 -28.667 31 -50c17.333 -32 38.166 -79.167 62.499 -141.5l73.5 -189.5h51c9.33301 0 17.5 -1.66699 24.5 -5s10.5 -8.66602 10.5 -15.999c0 -4 -1.66699 -7 -5 -9
c-10.667 -3.33301 -18 -5.33301 -22 -6l-38 -9c2.66699 -6.66699 18 -40 46 -100c53.333 -114 80 -174 80 -180zM410 317.998l-49.999 108l-72 153l-55 -135c-7.33301 -16 -16.5 -38.5 -27.5 -67.5l-33.5 -88.5c20.667 3.33301 61.667 8.83301 123 16.5
s99.666 12.167 114.999 13.5z" />
    <glyph glyph-name="B" unicode="B" horiz-adv-x="667" 
d="M637 205c0 -62 -55.3369 -112.334 -166.004 -151.001c-83.333 -29.333 -156.666 -44 -219.999 -44c-7.33301 0 -14.833 -0.166992 -22.5 -0.5s-15.5 -0.5 -23.5 -0.5c-17.333 0 -30.166 1.33301 -38.499 4s-12.5 8.33398 -12.5 17.001c0 7.33301 2.66699 13.333 8 18
s12.333 7 21 7l68 1c47.333 0 110 14.667 188 44c90.667 34 136 69 136 105c0 42.667 -28 78.667 -84 108c-51.333 26.667 -108 40 -170 40c-44 -8 -74.667 -13.333 -92 -16c-30.667 -5.33301 -55.667 -8 -75 -8c-3.33301 -20 -5.66602 -44.333 -6.99902 -73s-2 -59 -2 -91
c0 -9.33301 1.83301 -23.833 5.5 -43.5s4.83398 -32.167 3.50098 -37.5s-2.83301 -9.5 -4.5 -12.5s-4.5 -4.5 -8.5 -4.5c-19.333 0 -33.666 15.333 -42.999 46c-11.333 36.667 -17 99.334 -17 188.001c-16 0 -29.5 2 -40.5 6s-16.5 11.333 -16.5 22c0 12.667 6 21.667 18 27
c4.66699 2 17.667 5.33301 39 10c0 4.66699 3.33301 63 10 175c4 67.333 6 120.333 6 159c0 34.667 27.667 52 83 52c17.333 0 35.666 -3.33301 54.999 -10c8 -2.66699 36 -16.334 84 -41.001s85.667 -57 113 -97c25.333 -37.333 38 -74.333 38 -111
c0 -29.333 -10 -52 -30 -68c-13.333 -10.667 -40.333 -22.667 -81 -36c55.333 0 109.333 -11.667 162 -35c77.333 -34 116 -83.667 116 -149zM404.996 492.999c0 25.333 -12.333 54.667 -37 88c-20 26.667 -46 49.667 -78 69c-16 9.33301 -39 18 -69 26
c-10 2.66699 -23.667 5.66699 -41 9c0 -44.667 -2.83301 -93.5 -8.5 -146.5l-17.5 -157.5c22 3.33301 44 7 66 11c32 6 61.5 13.5 88.5 22.5s47.833 18.167 62.5 27.5c22.667 14.667 34 31.667 34 51z" />
    <glyph glyph-name="C" unicode="C" horiz-adv-x="472" 
d="M480 165c-2.66699 -22 -32.999 -49.666 -90.999 -82.999c-68 -38.667 -136 -58 -204 -58c-62 0 -108 33.667 -138 101c-21.333 48 -32 101 -32 159c0 35.333 8.33301 81 25 137c21.333 72.667 49.333 131.667 84 177c44.667 58.667 95.667 88 153 88
c18.667 0 36 -3.66699 52 -11c24 -10.667 36 -27.334 36 -50.001c0 -28 -6.66699 -42 -20 -42c-16 0 -24 12.333 -24 37c0 6.66699 -4.5 11.167 -13.5 13.5s-19.833 3.5 -32.5 3.5c-42.667 0 -85.167 -39.333 -127.5 -118s-63.5 -155.667 -63.5 -231
c0 -72 9.16699 -123.667 27.5 -155s48.166 -47 89.499 -47c60 0 111.333 12 154 36l105 80c13.333 0 20 -6.33301 20 -19v-18z" />
    <glyph glyph-name="D" unicode="D" horiz-adv-x="622" 
d="M617 263c0 -15.333 -9.33105 -34.002 -27.998 -56.002c-22.667 -26 -53.334 -50.333 -92.001 -73c-25.333 -15.333 -59 -29.666 -101 -42.999c-31.333 -10 -75.333 -22 -132 -36c-33.333 -8 -67 -15.167 -101 -21.5s-59.667 -9.5 -77 -9.5h-15
c-6.66699 0 -13.5 0.666992 -20.5 2s-10.5 5 -10.5 11c0 10 6.33301 17.833 19 23.5s34 11.834 64 18.501c-12 37.333 -22.167 79.166 -30.5 125.499s-12.5 82.833 -12.5 109.5c0 55.333 1.83301 105.166 5.5 149.499s8.83398 76.5 15.501 96.5
c-6.66699 0.666992 -18.334 0.166992 -35.001 -1.5s-34 -3.16699 -52 -4.5c-8.66699 0 -13 5.66699 -13 17c0 16.667 19.667 31 59 43c14.667 4.66699 31 8.33398 49 11.001c6 14.667 10 23.334 12 26.001c6.66699 8 16.667 12 30 12c10.667 0 18.167 -2.83301 22.5 -8.5
s6.5 -18.167 6.5 -37.5c42 -10.667 73.333 -19.667 94 -27c49.333 -17.333 91.333 -37.666 126 -60.999c67.333 -44.667 117.666 -85.334 150.999 -122.001c44 -48.667 66 -96.667 66 -144zM548.002 272.998c0 42 -38.332 93.3311 -114.999 153.998
c-82 64.667 -167 105.334 -255 122.001c-6 -19.333 -11.833 -50.666 -17.5 -93.999s-8.5 -85.333 -8.5 -126c0 -50.667 2 -96.667 6 -138s10 -74.666 18 -99.999c49.333 9.33301 91.333 18.666 126 27.999c67.333 17.333 120.666 36.333 159.999 57
c57.333 30.667 86 63 86 97z" />
    <glyph glyph-name="E" unicode="E" horiz-adv-x="597" 
d="M694 641c0 -4 -12.6689 -6 -38.002 -6c-24 0 -52 0.666992 -84 2s-58 2.66602 -78 3.99902c-66 0 -136.667 -8 -212 -24c-60 -12.667 -107 -26.667 -141 -42c0 -4.66699 -0.833008 -16.167 -2.5 -34.5s-2.5 -31.166 -2.5 -38.499v-85
c22.667 4.66699 94.167 15.167 214.5 31.5s188.833 24.5 205.5 24.5c5.33301 0 10.5 -0.5 15.5 -1.5s7.5 -3.16699 7.5 -6.5c0 -8.66699 -15.667 -18.5 -47 -29.5s-90.333 -24.167 -177 -39.5l-226 -43l-13 -241c13.333 4 41 7.16699 83 9.5s89.333 3.5 142 3.5
c46 0 89.833 -3 131.5 -9s62.5 -14 62.5 -24c0 -9.33301 -21 -14.5 -63 -15.5s-83.333 -1.5 -124 -1.5c-46.667 0 -88 -4.33301 -124 -13c-6 -1.33301 -30.667 -8.33301 -74 -21c-7.33301 -2 -21.333 -8 -42 -18c-15.333 -7.33301 -27.333 -11 -36 -11
c-7.33301 0 -15.333 4 -24 12s-13 17 -13 27c0 7.33301 1.33301 13.333 4 18s7.33398 12.334 14.001 23.001c0 18.667 1.33301 44 4 76c7.33301 87.333 11 145.333 11 174c-8 0 -14.167 4.66699 -18.5 14s-6.5 19 -6.5 29c0 8 2.5 14.5 7.5 19.5s13.167 8.16699 24.5 9.5
c0.666992 4 1 9.66699 1 17c0 5.33301 -0.333008 14.666 -1 27.999s-1 24 -1 32c0 23.333 -1.16699 45.333 -3.5 66s-4.16602 39 -5.49902 55c0 22 13.333 33 40 33c10.667 0 19.5 -0.5 26.5 -1.5s12.167 -3.16699 15.5 -6.5c50.667 12 94.667 22 132 30
c74.667 16 128.667 24 162 24c49.333 0 97.333 -3 144 -9c72.667 -9.33301 109 -23 109 -41z" />
    <glyph glyph-name="F" unicode="F" horiz-adv-x="519" 
d="M603 647c0 -10 -0.666016 -16.3311 -1.99902 -18.998s-6.33301 -4 -15 -4l-100.5 12.5c-30.333 3.66699 -52.833 5.5 -67.5 5.5c-12 0 -40.5 -3.66699 -85.5 -11s-90.167 -15.666 -135.5 -24.999c-6 -18.667 -11.667 -57.334 -17 -116.001s-8 -100.667 -8 -126
c34 8.66699 75 17.334 123 26.001c65.333 12 115 18 149 18c16.667 0 28.334 -1.5 35.001 -4.5s9.66699 -9.83301 9 -20.5c0 -10.667 -5.66699 -17.667 -17 -21c-4 -1.33301 -22.833 -3.83301 -56.5 -7.5s-75.667 -10.334 -126 -20.001s-89.166 -18.5 -116.499 -26.5
c-0.666992 -6 -1.33398 -20.167 -2.00098 -42.5s-1 -35.166 -1 -38.499v-92c0 -50 -2.33301 -88.833 -7 -116.5s-14.334 -41.5 -29.001 -41.5c-10 0 -17.5 4.16699 -22.5 12.5s-7.5 19.5 -7.5 33.5c0 12 0.5 25.5 1.5 40.5s1.5 23.833 1.5 26.5v109
c0 34 0.333008 65.333 1 94c-8.66699 -3.33301 -17.167 -6.16602 -25.5 -8.49902s-15.833 -3.5 -22.5 -3.5c-17.333 0 -26 4.33301 -26 13c0 10 9 20 27 30c10 5.33301 25.667 11.666 47 18.999c0 13.333 0.333008 36.666 1 69.999s1 59.666 1 78.999l3 97
c-16.667 2 -26.667 3.66699 -30 5c-13.333 4.66699 -20 12.667 -20 24c0 7.33301 6.33301 14.5 19 21.5s23.667 11.167 33 12.5c0 13.333 3.16699 24.5 9.5 33.5s13.833 13.5 22.5 13.5c15.333 0 26.666 -2.83301 33.999 -8.5s12.333 -13.834 15 -24.501
c16.667 6 48.167 11.5 94.5 16.5s82.5 7.5 108.5 7.5c37.333 0 80.833 -4.66699 130.5 -14s74.5 -19 74.5 -29z" />
    <glyph glyph-name="G" unicode="G" horiz-adv-x="736" 
d="M729 360c0 -8 -7.66992 -14.498 -23.0029 -19.498s-31.333 -7.5 -48 -7.5c-3.33301 -13.333 -5.66602 -29.333 -6.99902 -48s-2 -39 -2 -61v-80c0 -72.667 -3.83301 -121.334 -11.5 -146.001s-18.834 -37 -33.501 -37c-8.66699 0 -17.667 3 -27 9
c-12.667 8 -19 19 -19 33c0 8 2.66699 20.667 8 38s8 32.333 8 45v15v11c0 10.667 -0.166992 21.5 -0.5 32.5s-0.5 21.833 -0.5 32.5c-86.667 -42 -166.667 -76.5 -240 -103.5s-126 -40.5 -158 -40.5c-62 0 -106.333 22.333 -133 67c-21.333 35.333 -32 84.666 -32 147.999
c0 82.667 21 156.667 63 222c38.667 60 97.334 115.333 176.001 166c44 28.667 77.333 47.667 100 57c32.667 14 67.667 21 105 21c20.667 0 41.334 -7.5 62.001 -22.5s31 -27.833 31 -38.5c0 -12.667 -5.66699 -18.334 -17 -17.001c-6 0 -12.167 2.33301 -18.5 7l-13.5 10
c-6 5.33301 -14.333 8.33301 -25 9s-19.667 1 -27 1h-11c-8 0 -25.333 -6 -52 -18c-32.667 -14.667 -65.667 -32.334 -99 -53.001c-63.333 -40 -111 -82.667 -143 -128c-44 -61.333 -66 -133.333 -66 -216c0 -57.333 11.333 -98.666 34 -123.999
c17.333 -19.333 39.333 -29 66 -29c37.333 0 92 14 164 42c84.667 32.667 164.667 70.667 240 114c2 15.333 3.33301 28.833 4 40.5s1 25.5 1 41.5c-52.667 0 -120 -4.66699 -202 -14c-20 -2 -43.5 -5 -70.5 -9s-43.833 -6 -50.5 -6c-7.33301 0 -14.166 1.83301 -20.499 5.5
s-9.5 6.83398 -9.5 9.50098c0 16 34.833 31.167 104.5 45.5s137.167 21.5 202.5 21.5c9.33301 0 25 0.333008 47 1s38.667 1 50 1c29.333 0 52.333 -1.83301 69 -5.5s25 -11.167 25 -22.5z" />
    <glyph glyph-name="H" unicode="H" horiz-adv-x="694" 
d="M678 660c-19.333 -65.333 -36.3359 -128.166 -51.0029 -188.499s-22 -112.5 -22 -156.5c0 -26.667 1.33301 -60 4 -100c6 -90 9 -136 9 -138v-21c0 -11.333 -1.33301 -19.166 -4 -23.499s-9.33398 -6.5 -20.001 -6.5c-13.333 0 -23 12 -29 36
c-2 8.66699 -5.66699 36.334 -11 83.001c-2.66699 28 -4.66699 52.167 -6 72.5s-2 42.5 -2 66.5c-28 -8 -68.833 -15.833 -122.5 -23.5s-103.5 -11.5 -149.5 -11.5c-34.667 0 -63.167 0.666992 -85.5 2s-38.166 4.33301 -47.499 9c0 -6.66699 -3.33301 -36.667 -10 -90
s-10 -89 -10 -107c0 -10 -2.83301 -18.833 -8.5 -26.5s-13.167 -11.5 -22.5 -11.5c-6.66699 0 -11.667 7.16699 -15 21.5s-5 32.5 -5 54.5c0 23.333 1.5 55.666 4.5 96.999s4.5 64 4.5 68c-9.33301 0 -18.166 0.833008 -26.499 2.5s-14.833 2.5 -19.5 2.5
c-9.33301 0 -17.333 3.33301 -24 10s-10 14.334 -10 23.001c0 9.33301 6.33301 16.666 19 21.999c17.333 7.33301 41.333 11 72 11c8 28.667 16 66.667 24 114c11.333 67.333 17 127 17 179c0 7.33301 3.33301 17.166 10 29.499s13.334 18.5 20.001 18.5
c13.333 0 22 -4.83301 26 -14.5s6 -23.834 6 -42.501v-30c0 -25.333 -6 -73 -18 -143c-8 -48 -15.667 -88.667 -23 -122c34.667 -6 57.834 -9.83301 69.501 -11.5s31.834 -2.5 60.501 -2.5h49c58.667 0 103.167 0.5 133.5 1.5s57.166 4.16699 80.499 9.5
c13.333 104.667 23.333 173.667 30 207c21.333 108 45 162 71 162c8 0 15.333 -3 22 -9s10 -13.667 10 -23z" />
    <glyph glyph-name="I" unicode="I" horiz-adv-x="297" 
d="M224 678c0 -10.667 -5 -46.332 -15 -106.999l-18 -105l-26 -145c-8.66699 -48 -13 -78 -13 -90c0 -26.667 -0.666992 -56.834 -2 -90.501s-2.33301 -64.5 -3 -92.5c0 -26 -4.33301 -39 -13 -39c-12 0 -23.5 25.333 -34.5 76s-16.5 99.334 -16.5 146.001
c0 13.333 6.33301 54.333 19 123l21 112c4 21.333 10.333 58.666 19 111.999l10 64c6 41.333 22.667 62 50 62c5.33301 0 10.333 -2.66699 15 -8s7 -11.333 7 -18z" />
    <glyph glyph-name="J" unicode="J" horiz-adv-x="542" 
d="M596 658c0 -13.333 -4.5 -21.499 -13.5 -24.499s-27.5 -4.5 -55.5 -4.5l-80 -2c2.66699 -24 5 -69 7 -135s3 -125 3 -177c0 -80 -22 -148.333 -66 -205c-49.333 -63.333 -115 -95 -197 -95c-22.667 0 -43 11.333 -61 34c-15.333 19.333 -23 36.333 -23 51
c0 18.667 7.66699 28 23 28c5.33301 0 14 -9.66699 26 -29s27 -29 45 -29c58 0 105.333 26 142 78c34 48 51 105.667 51 173c0 42.667 -2.16699 91 -6.5 145l-12.5 163l-198 -2c-8.66699 0 -17.334 -0.166992 -26.001 -0.5s-17.667 -0.5 -27 -0.5c-30 0 -49.333 2 -58 6
s-13 10.333 -13 19c0 15.333 7.5 26.166 22.5 32.499s32.5 9.5 52.5 9.5c20.667 0 72.334 -2 155.001 -6c41.333 -2 90 -3 146 -3c70.667 0 115.667 -1.66699 135 -5s29 -10.333 29 -21z" />
    <glyph glyph-name="K" unicode="K" horiz-adv-x="620" 
d="M685 -61c0 -6.66699 -0.668945 -10.002 -2.00195 -10.002c-2 0 -5.66699 0.333008 -11 1s-11 1 -17 1c-45.333 0 -104.166 18.667 -176.499 56s-134.166 79.666 -185.499 126.999c-44 42 -82.667 82.333 -116 121c-26 30.667 -45.333 56.334 -58 77.001
c0 -23.333 -2 -57.166 -6 -101.499s-8 -91.166 -12 -140.499c0 -26.667 -2.16699 -45 -6.5 -55s-12.5 -15 -24.5 -15c-9.33301 0.666992 -15.5 5.66699 -18.5 15s-4.5 24 -4.5 44v27.5c0 9.66699 0.333008 19.834 1 30.501c4.66699 90 8.83398 175.667 12.501 257
s5.5 138.666 5.5 171.999c0 38.667 -1.66699 69.667 -5 93l-11 74c0 11.333 4.66699 21.666 14 30.999s20 14 32 14c10 0 19.667 -5.33301 29 -16c13.333 -14.667 20 -34 20 -58c0 -22.667 -2.66699 -79 -8 -169c-2 -28 -3.66699 -56 -5 -84
c26 2.66699 53 7.33398 81 14.001c38.667 8.66699 73 19 103 31c38 16 69.667 36.667 95 62c43.333 44 65.333 66 66 66c6.66699 0 12.667 -2 18 -6s8 -8 8 -12c0 -22.667 -19.667 -53.667 -59 -93c-29.333 -29.333 -64.333 -52 -105 -68
c-16.667 -6.66699 -42.834 -14.167 -78.501 -22.5s-66.167 -14.5 -91.5 -18.5l48 -65c56 -75.333 100.667 -129 134 -161c29.333 -28 58 -53.333 86 -76c40.667 -32.667 77.667 -57.667 111 -75c26 -13.333 60 -28.333 102 -45c23.333 -9.33301 35 -17 35 -23z" />
    <glyph glyph-name="L" unicode="L" horiz-adv-x="535" 
d="M546 55c0 -10.667 -34.999 -17.002 -104.999 -19.002s-167 -3 -291 -3c-9.33301 0 -20.833 -4.16699 -34.5 -12.5s-26.5 -12.5 -38.5 -12.5c-16 0 -25.167 9.83301 -27.5 29.5s-3.5 38.834 -3.5 57.501c0 17.333 1.66699 66.666 5 147.999
c1.33301 32.667 2 60.334 2 83.001c0 30.667 1.33301 68.334 4 113.001c7.33301 123.333 11 194.666 11 213.999v21c0 16.667 2 30.667 6 42s12 17 24 17c8 0 17.5 -5.16699 28.5 -15.5s16.5 -22.833 16.5 -37.5c0 -18.667 -5.16699 -75.5 -15.5 -170.5
s-15.5 -154.833 -15.5 -179.5c0 -50 -0.666992 -91.667 -2 -125s-2.66602 -71.666 -3.99902 -114.999c17.333 0 55.166 -1.16699 113.499 -3.5s116.666 -4.5 174.999 -6.5s92.5 -3 102.5 -3c14.667 0 23.667 -0.333008 27 -1c14.667 -3.33301 22 -10.333 22 -21z" />
    <glyph glyph-name="M" unicode="M" horiz-adv-x="716" 
d="M672 524c0 -44 -0.666016 -79.9971 -1.99902 -107.997s-3.83301 -83.5 -7.5 -166.5s-5.5 -128.167 -5.5 -135.5c0 -8.66699 0.333008 -18 1 -28l2 -30c0 -14 -1.16699 -24.333 -3.5 -31s-7.16602 -10 -14.499 -10c-15.333 0 -25.833 18 -31.5 54s-8.5 82.333 -8.5 139
v42.5c0 13.667 0.333008 26.834 1 39.501c0 24.667 0.333008 52.5 1 83.5s1.66699 64.833 3 101.5l-54.5 -93.5c-15.667 -27 -30.5 -50.167 -44.5 -69.5l-68 -98c-26.667 -32.667 -53.334 -49 -80.001 -49c-23.333 0 -49.333 12.333 -78 37
c-25.333 21.333 -51 50.666 -77 87.999c-12 17.333 -24.667 36.666 -38 57.999c-10.667 17.333 -22.334 37.666 -35.001 60.999c-11.333 -94 -28 -186.667 -50 -278c-18 -75.333 -34 -113 -48 -113c-13.333 0 -20 7.33301 -20 22v12c0 15.333 12 95.333 36 240
c15.333 94 24.166 150.333 26.499 169s3.66602 42.834 3.99902 72.501s1.16602 49.167 2.49902 58.5c0 17.333 6.66699 26 20 26c12 1.33301 23.667 -13.334 35 -44.001c8 -26 16.333 -51.667 25 -77c15.333 -36.667 27.333 -64 36 -82c11.333 -23.333 27 -50.333 47 -81
c17.333 -26 36.666 -50 57.999 -72c26 -26.667 46.333 -40 61 -40c10 0 26.333 14.667 49 44c8.66699 11.333 28.334 40 59.001 86c20.667 30.667 44.334 70 71.001 118l41 73c12.667 21.333 21.334 35.333 26.001 42c10.667 15.333 19.334 23 26.001 23
c15.333 0 25.5 -3.33301 30.5 -10s7.5 -16.334 7.5 -29.001c0 -7.33301 -0.333008 -14.833 -1 -22.5z" />
    <glyph glyph-name="N" unicode="N" horiz-adv-x="630" 
d="M660 600l-56 -114.995c-22.667 -46.667 -38 -88.667 -46 -126s-12 -73.333 -12 -108c0 -28 1.83301 -54.833 5.5 -80.5s7 -47.5 10 -65.5s4.5 -34 4.5 -48c0 -26.667 -9.66699 -40 -29 -40c-18.667 0 -54.5 20.667 -107.5 62s-100.5 86 -142.5 134
c-33.333 39.333 -63 81 -89 125c-22.667 38.667 -40.334 75 -53.001 109c0 -48.667 -1 -87.334 -3 -116.001s-7 -62.834 -15 -102.501l-24 -116.5c-10 -40.667 -21.667 -61 -35 -61c-11.333 0 -17 5 -17 15c-0.666992 1.33301 -1 3.83301 -1 7.5v8.5
c0 13.333 1.5 35.833 4.5 67.5s6.16699 62.5 9.5 92.5c6 71.333 10.5 127.166 13.5 167.499s7.83301 84.833 14.5 133.5c2 16 5.83301 30 11.5 42s12.167 18 19.5 18c12.667 0 22 -4 28 -12c3.33301 -4 7 -12.5 11 -25.5s7.66699 -24 11 -33s8.66602 -22.167 15.999 -39.5
c25.333 -58 43 -95.667 53 -113c24.667 -43.333 56.667 -86.333 96 -129c26 -28.667 53.333 -56 82 -82s52.334 -44.333 71.001 -55c-2 20 -3.33301 35.333 -4 46c-3.33301 36 -5 62 -5 78c0 31.333 1.16699 57.666 3.5 78.999s6.5 42.666 12.5 63.999
c16.667 62 42.667 119 78 171c29.333 42.667 49.333 64 60 64c8 0 13.833 -0.833008 17.5 -2.5s5.83398 -6.16699 6.50098 -13.5z" />
    <glyph glyph-name="O" unicode="O" horiz-adv-x="606" 
d="M595 350c0 -84 -34.499 -159.498 -103.499 -226.498s-148.5 -100.5 -238.5 -100.5c-72.667 0 -128 30.333 -166 91c-34.667 55.333 -52 129.666 -52 222.999c0 59.333 22 123.5 66 192.5s87 103.5 129 103.5c24 0 40.833 -4.66699 50.5 -14s14.5 -23 14.5 -41
c0 -21.333 -3.83301 -38.5 -11.5 -51.5s-16.834 -19.5 -27.501 -19.5c-4 0 -6 2.33301 -6 7c0 2.66699 1 7.66699 3 15s3 12.666 3 15.999c0 6 -3 12 -9 18s-14.667 9 -26 9c-21.333 0 -45.666 -24.333 -72.999 -73c-30.667 -54 -46 -109 -46 -165
c0 -82.667 16 -147 48 -193c29.333 -42 70.333 -63 123 -63c72.667 0 135.667 28 189 84s80 120 80 192c0 42 -9.33301 81.667 -28 119c-16 32.667 -63 68.667 -141 108c-34 17.333 -51 30.333 -51 39c0 5.33301 1.66699 10.833 5 16.5s8.33301 8.5 15 8.5
c20 0 52.333 -12.333 97 -37c54 -30 92 -63.667 114 -101c15.333 -25.333 26.166 -50.5 32.499 -75.5s9.5 -52.167 9.5 -81.5z" />
    <glyph glyph-name="P" unicode="P" horiz-adv-x="464" 
d="M440 432c0 -28.667 -12.498 -51.334 -37.498 -68.001s-66.833 -29.667 -125.5 -39c-22 -3.33301 -49.167 -5.83301 -81.5 -7.5s-57.833 -2.5 -76.5 -2.5c0 -14 -1 -40.333 -3 -79c-5.33301 -102.667 -8 -158 -8 -166c0 -23.333 -3 -42 -9 -56s-14 -21 -24 -21
c-8.66699 0 -14.167 3.83301 -16.5 11.5s-3.5 22.834 -3.5 45.501v18l2 266c0 63.333 -0.333008 119.5 -1 168.5s-1.33398 95.5 -2.00098 139.5c0 20 5 36 15 48s20.167 18.667 30.5 20s19.5 2 27.5 2c65.333 0 132.666 -29 201.999 -87c74 -62 111 -126.333 111 -193z
M372.002 446c0 44 -26.835 89.167 -80.502 135.5s-104.5 69.5 -152.5 69.5c-6.66699 0 -12.5 -3.5 -17.5 -10.5s-7.5 -14.5 -7.5 -22.5l3 -132l4 -126c20.667 0 43.834 0.833008 69.501 2.5s56.834 5.16699 93.501 10.5s62 16 76 32c8 9.33301 12 23 12 41z" />
    <glyph glyph-name="Q" unicode="Q" horiz-adv-x="708" 
d="M689 432c0 -74 -15.168 -140.333 -45.501 -199s-75.5 -110.667 -135.5 -156l22 -66c10 -29.333 21 -58.666 33 -87.999c8.66699 -22 19 -43 31 -63c24.667 -40.667 37 -61.334 37 -62.001c0 -9.33301 -3.66699 -14 -11 -14c-14 0 -30 10.833 -48 32.5
s-35.667 49.834 -53 84.501c-10.667 20.667 -24.334 49.667 -41.001 87l-27 60c-14 -7.33301 -37.833 -15 -71.5 -23s-64.167 -12 -91.5 -12c-74 0 -137.667 32.667 -191 98c-50.667 62 -76 130.667 -76 206c0 81.333 29.667 168 89 260
c68.667 106.667 146.334 160 233.001 160c35.333 0 63.5 -14.667 84.5 -44s31.5 -63.333 31.5 -102v-11c0 -21.333 -0.5 -37.5 -1.5 -48.5s-3.83301 -24.167 -8.5 -39.5c-3.33301 -14.667 -11 -22 -23 -22c-11.333 0 -20.333 32.667 -27 98s-27.667 98 -63 98
c-46 0 -96.667 -33.333 -152 -100c-63.333 -76 -95 -159 -95 -249c0 -56 18 -108.667 54 -158c42 -57.333 93.667 -86 155 -86c26.667 0 49.167 2.66699 67.5 8s38.833 13.666 61.5 24.999c-19.333 50 -34.666 91 -45.999 123s-17 51.333 -17 58c0 10 2.33301 20 7 30
s11.667 15 21 15c8 0 18 -12.667 30 -38c9.33301 -19.333 17.5 -39.333 24.5 -60s14.333 -39.167 22 -55.5l22.5 -46.5c28 15.333 57 46 87 92c38.667 59.333 58 120 58 182c0 53.333 -16.333 105.666 -49 156.999c-8.66699 14.667 -22 30 -40 46
c-34.667 31.333 -52 49 -52 53c-0.666992 6.66699 -1 11.334 -1 14.001c0 6.66699 2 11.667 6 15s9.66699 6 17 8c21.333 5.33301 54 -20.334 98 -77.001c49.333 -63.333 74 -126.666 74 -189.999z" />
    <glyph glyph-name="R" unicode="R" horiz-adv-x="550" 
d="M540 13c0.666992 -2 0.00292969 -3.99902 -1.99707 -5.99902c-4.66699 -4.66699 -9.66699 -7 -15 -7c-14.667 0 -46.334 18.667 -95.001 56l-134 105l-70 52c-46 34 -76.667 57.667 -92 71c0 -28 -1 -63.167 -3 -105.5s-3.66699 -71.833 -5 -88.5
c0 -23.333 -3 -42 -9 -56s-14 -21 -24 -21c-12.667 0 -19 19 -19 57v18l2 266c0 43.333 -0.5 91 -1.5 143s-1.83301 107 -2.5 165c0 20 5.33301 36 16 48s21.167 18.5 31.5 19.5s19.5 1.5 27.5 1.5c65.333 0 132.666 -29 201.999 -87c73.333 -61.333 110 -125.333 110 -192
c0 -28 -12.667 -50.667 -38 -68s-67 -30.666 -125 -39.999c-16.667 -2.66699 -33.834 -4.33398 -51.501 -5.00098s-37.167 -1 -58.5 -1c6 -7.33301 18.667 -20 38 -38l92 -87c18 -16.667 66 -57.334 144 -122.001c54 -44.667 81.333 -70.667 82 -78zM388.003 465.001
c0 43.333 -26.833 88.501 -80.5 135.501s-104.5 70.5 -152.5 70.5c-5.33301 0 -10 -2 -14 -6c-6.66699 -6.66699 -10 -15.667 -10 -27l2 -132l5 -126c20.667 0 43.667 0.833008 69 2.5s56.5 5.16699 93.5 10.5s62.167 15.666 75.5 30.999c8 9.33301 12 23 12 41z" />
    <glyph glyph-name="S" unicode="S" horiz-adv-x="581" 
d="M536 201c0 -53.333 -27.6641 -95.9961 -82.9971 -127.996c-50 -29.333 -110.667 -44 -182 -44c-48 0 -89.667 1.33301 -125 4c-68.667 5.33301 -103 14.666 -103 27.999c0 8.66699 2.83301 15.5 8.5 20.5s13.167 7.5 22.5 7.5c1.33301 0 35.333 -2 102 -6
c33.333 -2 65 -3 95 -3c58 0 105 8.66699 141 26c43.333 21.333 65 52.666 65 93.999c0 23.333 -4.33301 43.833 -13 61.5s-22.667 33.167 -42 46.5c-24 16.667 -62.333 29.334 -115 38.001c-36.667 6 -64.334 10.333 -83.001 13c-47.333 8 -87.333 26 -120 54
c-34.667 30 -52 63.333 -52 100c0 39.333 31 73 93 101c54.667 24.667 112.667 37 174 37c31.333 0 64.666 -7.33301 99.999 -22c44.667 -18.667 67 -42 67 -70c0 -2.66699 0.333008 -5.33398 1 -8.00098c-0.666992 -3.33301 -4 -5 -10 -5
c-4.66699 0 -20.667 8.66699 -48 26s-64 26 -110 26c-26 0 -61.333 -7.33301 -106 -22c-60.667 -20 -91 -43.667 -91 -71c0 -22.667 11.5 -42.834 34.5 -60.501s52 -29.5 87 -35.5s71.5 -11.667 109.5 -17c43.333 -9.33301 79.666 -23.333 108.999 -42
c26 -16.667 44.833 -37.334 56.5 -62.001s17.5 -53.667 17.5 -87z" />
    <glyph glyph-name="T" unicode="T" horiz-adv-x="426" 
d="M519 673c0 -16 -8.99805 -24 -26.998 -24c-18.667 2.66699 -37.5 4.83398 -56.5 6.50098s-40.167 2.5 -63.5 2.5c-26 0 -68.667 -6.33301 -128 -19s-110.666 -27.667 -153.999 -45c-36.667 -14.667 -62.334 -27.334 -77.001 -38.001
c-10.667 -7.33301 -17.334 -15.333 -20.001 -24c-4.66699 -14.667 -7.33398 -22.667 -8.00098 -24c-4.66699 -8.66699 -11.334 -13 -20.001 -13c-25.333 0 -38 21.667 -38 65c0 26.667 39 54 117 82c52 20 109.167 36.333 171.5 49s115.5 19 159.5 19h79
c40.667 -2.66699 62.334 -15 65.001 -37zM260.002 524c0 -18.667 -0.498047 -55.666 -1.49805 -110.999l-2.5 -137c0 -58.667 -5.33301 -118.667 -16 -180s-23.334 -92 -38.001 -92c-9.33301 0 -15 2 -17 6s-3.66699 11.667 -5 23c5.33301 62 10 122.5 14 181.5
s6 104.5 6 136.5c0 30.667 -0.666992 70 -2 118s-2 80 -2 96c-0.666992 9.33301 2.66602 17.666 9.99902 24.999s13.333 11 18 11c17.333 0 28.333 -9 33 -27c2 -8 3 -24.667 3 -50z" />
    <glyph glyph-name="U" unicode="U" horiz-adv-x="582" 
d="M548 640c0 -60.667 -3.83301 -128.504 -11.5 -203.504s-17.167 -127.5 -28.5 -157.5c1.33301 -9.33301 3 -29.5 5 -60.5s4 -55.167 6 -72.5s4.33301 -34.833 7 -52.5s4 -28.167 4 -31.5c0 -10.667 -2.5 -18.167 -7.5 -22.5s-12.167 -6.5 -21.5 -6.5
c-13.333 0 -22.5 3.5 -27.5 10.5s-9.5 21.167 -13.5 42.5c-6 37.333 -9 77.333 -9 120c-53.333 -61.333 -88.333 -98.666 -105 -111.999c-48.667 -39.333 -103 -59 -163 -59c-53.333 0 -94.333 35.667 -123 107c-24 59.333 -36 129 -36 209c0 34.667 5 79.5 15 134.5
s20.5 99.5 31.5 133.5s18.5 54 22.5 60c6.66699 10 15.334 15 26.001 15c7.33301 0 13.5 -3.66699 18.5 -11s7.5 -14.666 7.5 -21.999c-14.667 -53.333 -25.667 -94.666 -33 -123.999c-22 -89.333 -33 -150.333 -33 -183c0 -56 8.33301 -109.333 25 -160
c21.333 -66 50.333 -99 87 -99c34.667 0 68 10.333 100 31c38.667 24.667 76.667 64 114 118c15.333 21.333 32.666 79.833 51.999 175.5s29 163.834 29 204.501c0 17.333 4 30.333 12 39c5.33301 6 11.333 9 18 9c12 0 20.333 -2.66699 25 -8s7 -13.333 7 -24z" />
    <glyph glyph-name="V" unicode="V" horiz-adv-x="514" 
d="M587 713c0 -2 -6.33203 -14.001 -18.999 -36.001c-8.66699 -14.667 -15.334 -27 -20.001 -37l-72 -134c-31.333 -60 -55.666 -111.333 -72.999 -154c-24.667 -59.333 -44 -109 -58 -149c-16.667 -48.667 -27.834 -88.667 -33.501 -120s-10.167 -50 -13.5 -56
c-8 -15.333 -23 -23 -45 -23c-8 0 -16.333 6.33301 -25 19l-23 39c-30.667 47.333 -54 85.333 -70 114c-19.333 34 -40 74.333 -62 121c-24 50 -48.833 107.5 -74.5 172.5s-38.5 101.5 -38.5 109.5c0 12 1.16699 20.833 3.5 26.5s10.166 8.5 23.499 8.5
c12 0 23 -8.33301 33 -25c6.66699 -11.333 13.334 -26.666 20.001 -45.999c22 -66 53.333 -139.333 94 -220c22 -43.333 44.667 -85.333 68 -126s39.666 -66.667 48.999 -78c4.66699 21.333 15.167 54 31.5 98s34.5 87.667 54.5 131c34.667 76 78.834 156.833 132.501 242.5
s87.167 128.5 100.5 128.5c11.333 0 17 -2 17 -6z" />
    <glyph glyph-name="W" unicode="W" horiz-adv-x="748" 
d="M816 662c0 -0.666992 -5.67188 -6.32715 -17.0049 -16.9941c-7.33301 -6.66699 -15.666 -15.667 -24.999 -27c-17.333 -20 -34.666 -44.333 -51.999 -73c-14.667 -24.667 -32.334 -57.334 -53.001 -98.001c-25.333 -52 -45.666 -110.333 -60.999 -175
c-8 -35.333 -17.667 -90 -29 -164c-4 -25.333 -10.667 -48 -20 -68c-11.333 -24 -22.333 -36 -33 -36c-12 0 -33.333 29 -64 87c-16.667 32 -44 87.667 -82 167c-30 63.333 -49 97.666 -57 102.999l-30 -66c-22 -48 -36 -79 -42 -93
c-28.667 -64.667 -50.167 -107.167 -64.5 -127.5s-27.5 -30.5 -39.5 -30.5c-19.333 0 -42.666 43.667 -69.999 131c-7.33301 24 -19.666 67 -36.999 129c-28 100 -42 187 -42 261c0 21.333 1.83301 35.166 5.5 41.499s12.5 9.5 26.5 9.5c6.66699 0 11.834 -5 15.501 -15
s5.5 -21 5.5 -33c-2 -16.667 1.5 -49.834 10.5 -99.501s20.833 -100.167 35.5 -151.5c12 -42.667 22 -76.334 30 -101.001c11.333 -35.333 21 -58.333 29 -69c11.333 15.333 20.333 30.5 27 45.5l15 34.5l44 98c16.667 39.333 30 72.333 40 99c4 12 10.167 22.833 18.5 32.5
s15.833 14.5 22.5 14.5c13.333 0 34.666 -25 63.999 -75c24 -40.667 49.667 -90.334 77 -149.001l51 -113l38 152c22 79.333 45.833 143 71.5 191s58.834 93.667 99.501 137c36.667 39.333 62.334 59 77.001 59c3.33301 0 6.66602 -0.166992 9.99902 -0.5
s5 -3.83301 5 -10.5z" />
    <glyph glyph-name="X" unicode="X" horiz-adv-x="623" 
d="M636 616c0 -14 -4 -23.999 -12 -29.999l-48 -23l-135 -129l-96 -95l132 -152c27.333 -30.667 48.666 -56 63.999 -76c20.667 -27.333 31 -45.333 31 -54c0 -14.667 -9 -22 -27 -22c-5.33301 0 -19.666 12.167 -42.999 36.5l-71 74.5
c-3.33301 4 -27.666 31.333 -72.999 82c-31.333 35.333 -51.333 57.333 -60 66c-5.33301 -4.66699 -32 -30.667 -80 -78l-124 -119c-45.333 -41.333 -71.666 -62 -78.999 -62c-8 0 -12.667 3.66699 -14 11c0 4 34.167 45.5 102.5 124.5s119.166 135.167 152.499 168.5
c-12.667 18 -32.167 41.5 -58.5 70.5s-54.5 58.5 -84.5 88.5c-11.333 11.333 -31.333 29.333 -60 54c-20.667 17.333 -31 27.666 -31 30.999c-2 22 10 33 36 33c12 0 41.333 -22.333 88 -67l164 -167l170 175c53.333 49.333 89.666 74 108.999 74c13.333 0 24.5 -1 33.5 -3
s13.5 -6 13.5 -12z" />
    <glyph glyph-name="Y" unicode="Y" horiz-adv-x="467" 
d="M487 656l-56.5 -59.501c-19 -20.333 -33.167 -40.833 -42.5 -61.5c-16.667 -38 -29.667 -88.667 -39 -152c-4 -26 -8 -42.667 -12 -50c-10 -14.667 -17.167 -23.5 -21.5 -26.5s-12.5 -5.83301 -24.5 -8.5c-3.33301 -22 -6.33301 -58.833 -9 -110.5s-4 -92.167 -4 -121.5
c0 -23.333 -2 -39 -6 -47s-10.667 -12 -20 -12c-19.333 0 -29 11.667 -29 35l1 273l-137 161c-6.66699 8 -28 32.333 -64 73c-44.667 50.667 -67 81 -67 91c0 8.66699 2.16699 15.667 6.5 21s11.5 8 21.5 8c8 0 26.667 -16.333 56 -49c8.66699 -9.33301 39 -45 91 -107
c38 -44.667 69.667 -80 95 -106c23.333 -24 40 -39.333 50 -46c0 1.33301 9.33301 33 28 95c10.667 36.667 19.334 61.334 26.001 74.001c18 36 44.333 69.667 79 101c29.333 26.667 49.666 40 60.999 40s17 -5 17 -15z" />
    <glyph glyph-name="Z" unicode="Z" horiz-adv-x="662" 
d="M667 98c0 -6.66699 -3.66602 -12.3359 -10.999 -17.0029s-15.666 -7 -24.999 -7c-6.66699 0 -49 -3.16699 -127 -9.5s-161 -12.666 -249 -18.999s-144.667 -9.5 -170 -9.5c-9.33301 0 -17.333 4.66699 -24 14s-10 19 -10 29c0 7.33301 1.66699 13 5 17l122 146l189 227
l113 134c-36.667 4.66699 -71.5 8.33398 -104.5 11.001s-66.5 4 -100.5 4c-26 0 -48 -0.666992 -66 -2c-62 -4.66699 -94.333 -7 -97 -7h-28c-14.667 1.33301 -22 8 -22 20c0 15.333 9.5 25.5 28.5 30.5s44.5 7.5 76.5 7.5c42.667 0 103.167 -2 181.5 -6
s131.166 -8.66699 158.499 -14s41 -15.666 41 -30.999c0 -8.66699 -33.333 -55.667 -100 -141l-188 -237c-70 -87.333 -106 -134.666 -108 -141.999c74 3.33301 149.667 6.16602 227 8.49902s136.666 3.5 177.999 3.5c23.333 0 47.5 -0.166992 72.5 -0.5
s37.5 -3.5 37.5 -9.5z" />
    <glyph glyph-name="bracketleft" unicode="[" horiz-adv-x="579" 
d="M471 -35c0 -13.333 -1.33398 -22.334 -4.00098 -27.001c-4.66699 -8.66699 -14.667 -13 -30 -13c-17.333 0 -35.666 -0.333008 -54.999 -1l-57 -2c-19.333 0 -36 1 -50 3c-20.667 4.66699 -33.667 9.16699 -39 13.5s-8 13.166 -8 26.499v22c0 8 0.333008 16.667 1 26
c0 43.333 -0.833008 105.333 -2.5 186s-2.5 134.334 -2.5 161.001c0 38.667 -1 99.334 -3 182.001s-3 141.334 -3 176.001c0 88.667 4.83301 138.167 14.5 148.5s32.834 17 69.501 20s76 4.5 118 4.5c13.333 0 21 -9.66699 23 -29c2 -16 -19.833 -25.5 -65.5 -28.5
s-72.5 -8.16699 -80.5 -15.5c-5.33301 -4.66699 -9 -21 -11 -49s-3 -65 -3 -111c0 -32.667 0.666992 -91 2 -175s2 -127.667 2 -131v-168c0 -54 0.333008 -105.667 1 -155c1.33301 -18 3.66602 -30.333 6.99902 -37s10.333 -10.5 21 -11.5s19 -1.5 25 -1.5h18
c11.333 0 22.5 0.166992 33.5 0.5s21.833 0.5 32.5 0.5c16.667 0 28.5 -0.833008 35.5 -2.5s10.5 -5.83398 10.5 -12.501z" />
    <glyph glyph-name="backslash" unicode="\" horiz-adv-x="451" 
d="M395 -53c0 -10 -3.00098 -15.001 -9.00098 -15.001c-9.33301 0 -29 31.333 -59 94c-17.333 36.667 -45.333 101.334 -84 194.001c-32.667 78.667 -55 131.334 -67 158.001c-17.333 38.667 -57.333 122 -120 250c-38.667 79.333 -58 127.333 -58 144v14
c0 6.66699 1.5 11.5 4.5 14.5s10.167 4.5 21.5 4.5c14.667 0 33 -22 55 -66l46 -101c14.667 -28 43.334 -91 86.001 -189l68 -151c28 -60 55 -130.333 81 -211c23.333 -72.667 35 -119.334 35 -140.001z" />
    <glyph glyph-name="bracketright" unicode="]" horiz-adv-x="579" 
d="M361 360c0 -58 -0.832031 -127.332 -2.49902 -207.999s-2.5 -127 -2.5 -139v-26c0 -8 0.333008 -15.667 1 -23c0 -13.333 -2.5 -22 -7.5 -26s-18.167 -8.33301 -39.5 -13c-14 -2 -30.667 -3 -50 -3c-18 0 -36.5 0.333008 -55.5 1l-55.5 2
c-14.667 0 -23.834 3.33301 -27.501 10s-6.16699 16.667 -7.5 30c0 6.66699 5.66699 10.834 17 12.501s21 2.5 29 2.5h33.5c11.667 0 23.5 -0.333008 35.5 -1h21c5.33301 0.666992 9.33301 1 12 1c14 1.33301 22.667 3.66602 26 6.99902c6 6 9 20 9 42l1 323
c0 33.333 0.666992 92.5 2 177.5s2 128.167 2 129.5c0 97.333 -4.16699 150 -12.5 158s-35 13.167 -80 15.5s-67.5 11.166 -67.5 26.499c0 12.667 1.5 21.167 4.5 25.5s9.16699 6.5 18.5 6.5c40.667 0 79.5 -1.5 116.5 -4.5s60.833 -9.83301 71.5 -20.5
c5.33301 -5.33301 9 -21 11 -47s3 -60.667 3 -104c0 -34 -1 -92 -3 -174s-3 -142.333 -3 -181z" />
    <glyph glyph-name="asciicircum" unicode="^" horiz-adv-x="594" 
d="M538 624c0 -5.33301 -3.16797 -10.166 -9.50098 -14.499s-12.5 -6.5 -18.5 -6.5c-6.66699 0 -20 8 -40 24c-16.667 13.333 -37 32 -61 56c-14 14 -26.667 29.333 -38 46c-5.33301 8 -13.333 20.667 -24 38l-114 -84c-40 -30 -73 -53 -99 -69
c-33.333 -20.667 -55.666 -31 -66.999 -31c-6.66699 0 -12.667 2.66699 -18 8s-8 12 -8 20c0 9.33301 17.5 24.5 52.5 45.5s69.833 43.833 104.5 68.5c44.667 32.667 78.667 59.667 102 81c14.667 12.667 24.667 21.667 30 27c16.667 15.333 27 23 31 23
c8.66699 0 24.667 -22 48 -66c14.667 -28 30 -49.667 46 -65c20.667 -18.667 39.667 -38.334 57 -59.001s26 -34.667 26 -42z" />
    <glyph glyph-name="underscore" unicode="_" horiz-adv-x="760" 
d="M696 -88c0 -14.667 -7.66699 -25 -23 -31c-10.667 -4 -26 -6 -46 -6c-47.333 2 -94.833 3.83301 -142.5 5.5s-82.167 2.5 -103.5 2.5c-30.667 0 -67.667 -1.33301 -111 -4s-87 -5.66699 -131 -9c-13.333 0 -21.666 0.666992 -24.999 2c-9.33301 4 -14 17.333 -14 40
c0 12 10.167 20.167 30.5 24.5s45.166 6.5 74.499 6.5h452c14 0 24 -1.66699 30 -5s9 -12 9 -26z" />
    <glyph glyph-name="grave" unicode="`" horiz-adv-x="422" 
d="M315 662c0 -8.66699 -3.00098 -12.999 -9.00098 -12.999c-13.333 0 -41 17.667 -83 53c-8 6.66699 -28 24.667 -60 54c-18 16 -36.833 30.5 -56.5 43.5s-41.834 25.167 -66.501 36.5c-14 3.33301 -24.333 6 -31 8s-10 8.66699 -10 20
c-1.33301 10.667 0.333984 20.167 5.00098 28.5s11.334 12.5 20.001 12.5c18.667 0 43.667 -11.333 75 -34c23.333 -16.667 57.333 -45.334 102 -86.001c32 -28 58.333 -53 79 -75c23.333 -24.667 35 -40.667 35 -48z" />
    <glyph glyph-name="a" unicode="a" horiz-adv-x="615" 
d="M664 156c0 -6 -10 -18.3301 -30 -36.9971c-24 -22 -49.667 -41 -77 -57c-42 -24 -82 -41.833 -120 -53.5s-75 -17.5 -111 -17.5c-32 0 -56.333 16.167 -73 48.5s-25 81.166 -25 146.499c-20.667 -41.333 -39 -73 -55 -95c-34 -47.333 -66 -71 -96 -71
c-27.333 0 -45.5 7.66699 -54.5 23s-13.5 40.333 -13.5 75c0 46 16 98.333 48 157c40 72.667 87.667 109 143 109c20.667 0 35.667 -2 45 -6s20.333 -12.333 33 -25c7.33301 1.33301 14.333 -3.83398 21 -15.501s10 -24.834 10 -39.501c0 -18 -1 -45.667 -3 -83
s-3 -61 -3 -71c0 -31.333 2.33301 -52.333 7 -63c8 -18.667 24.667 -28 50 -28c24.667 0 46.334 2 65.001 6c32.667 6.66699 67.667 20.667 105 42c23.333 12.667 52.666 34 87.999 64c14.667 12 22.667 18 24 18c16.667 -2.66699 24 -11.667 22 -27zM222 288.003
c2 5.33301 3 10.334 3 15.001c0 18 -7.66699 27 -23 27c-27.333 0 -56.166 -23.167 -86.499 -69.5s-45.5 -83.833 -45.5 -112.5c0 -14.667 1.16699 -27.334 3.5 -38.001s6.16602 -16 11.499 -16c16.667 0 47 38 91 114z" />
    <glyph glyph-name="b" unicode="b" horiz-adv-x="458" 
d="M409 272c0 -79.333 -30.001 -146.333 -90.001 -201c-56 -51.333 -119.667 -77 -191 -77c-41.333 0 -70.666 8 -87.999 24c-7.33301 6.66699 -16 22 -26 46c0 14.667 6 22 18 22c4 0 15 -7.33301 33 -22s35.333 -22 52 -22c68.667 0 126 26.333 172 79
c40.667 46.667 61 98 61 154c0 12 -4 22.667 -12 32s-18.667 14 -32 14c-16.667 0 -37 -14.667 -61 -44c-20 -24.667 -40.667 -56 -62 -94l-24 -72c-8 -22.667 -16.333 -34 -25 -34c-8 0 -14.167 13.167 -18.5 39.5l-12.5 78.5c-7.33301 52 -14 113.5 -20 184.5
s-9 136.5 -9 196.5c0 18 1.5 32.333 4.5 43s11.167 16 24.5 16c11.333 0 18.333 -3.16699 21 -9.5s4 -14.833 4 -25.5c0 -33.333 3 -95.333 9 -186s13 -153 21 -187c17.333 40 39.333 74 66 102c31.333 32.667 61.333 49 90 49c34.667 0 59.667 -10.333 75 -31
c13.333 -18 20 -43 20 -75z" />
    <glyph glyph-name="c" unicode="c" horiz-adv-x="435" 
d="M488 158c1.33301 -8 -10.5 -19.668 -35.5 -35.001s-48.5 -30.666 -70.5 -45.999c-44 -29.333 -88.5 -52.5 -133.5 -69.5s-84.5 -25.5 -118.5 -25.5c-35.333 0 -64.333 14.667 -87 44s-34 63.333 -34 102c0 45.333 8.33301 91.666 25 138.999c24 69.333 59 104 105 104
c24.667 0 46.334 -6 65.001 -18s28 -27.333 28 -46c0 -14 -5.33301 -21 -16 -21c-8.66699 0 -16.334 6 -23.001 18s-15.667 18 -27 18c-28.667 0 -51.667 -20 -69 -60c-14.667 -34.667 -22 -73.667 -22 -117c0 -36 7.66699 -62.667 23 -80c13.333 -15.333 32 -23 56 -23
c18.667 0 47.667 6.66699 87 20s76.333 30 111 50c12 6.66699 39.333 23.334 82 50.001c17.333 10.667 29 16 35 16c8.66699 0 14 -1.33301 16 -4s3 -8 3 -16z" />
    <glyph glyph-name="d" unicode="d" horiz-adv-x="574" 
d="M618 152c-0.666992 -4 -7.50195 -12.501 -20.502 -25.501s-27.5 -25.167 -43.5 -36.5c-32.667 -23.333 -65.5 -42.166 -98.5 -56.499s-63.833 -21.5 -92.5 -21.5c-38.667 0 -68.334 17.333 -89.001 52c-14 23.333 -24 55.666 -30 96.999
c-21.333 -52.667 -39.333 -89.667 -54 -111c-28.667 -41.333 -62 -62 -100 -62c-29.333 0 -51.5 14.333 -66.5 43s-22.5 66.667 -22.5 114c0 52 15.333 107.167 46 165.5s61.334 87.5 92.001 87.5c23.333 0 45.333 -13.667 66 -41l28 -38c4.66699 58 8 105 10 141
c4.66699 63.333 9 106 13 128s8.33301 38.667 13 50c8 20 17.333 30 28 30c12 0 21 -4.16699 27 -12.5s9 -24.5 9 -48.5l-21.5 -170c-7 -57.333 -10.5 -102.666 -10.5 -135.999c0 -63.333 2.66699 -110.333 8 -141c10.667 -62.667 32.334 -94 65.001 -94
c24 0 49 5.66699 75 17c20 8.66699 46.333 23.667 79 45c9.33301 5.33301 22.5 14.333 39.5 27s26.167 19 27.5 19c16.667 -2 24.334 -9.33301 23.001 -22zM226.998 226.999c-4.66699 17.333 -17.668 39.167 -39.001 65.5s-37.666 39.5 -48.999 39.5
c-14 0 -29.833 -24.333 -47.5 -73s-26.5 -86.667 -26.5 -114c0 -30 1 -50.667 3 -62c4.66699 -24.667 13.667 -37 27 -37c18 0 42.333 22 73 66c28 40.667 47.667 79 59 115z" />
    <glyph glyph-name="e" unicode="e" horiz-adv-x="485" 
d="M535 150c0 -8 -16.6709 -23.3291 -50.0039 -45.9961s-66.666 -41.667 -99.999 -57s-68.166 -26.833 -104.499 -34.5s-70.5 -11.5 -102.5 -11.5c-39.333 0 -73.666 11 -102.999 33c-36.667 27.333 -55 66 -55 116c0 13.333 -0.166992 27.166 -0.5 41.499
s-0.5 29.166 -0.5 44.499c0 14 0.333008 27.5 1 40.5s2 24.833 4 35.5c4.66699 23.333 18 42.833 40 58.5s45.333 23.5 70 23.5c34 0 65.333 -8 94 -24c32.667 -18.667 49 -42.334 49 -71.001c0 -26.667 -9.33301 -48.334 -28 -65.001c-13.333 -12 -34 -22.667 -62 -32
c-20 -6 -38.5 -12.167 -55.5 -18.5l-54.5 -20.5c0 -25.333 8 -48 24 -68c20 -25.333 48 -38 84 -38c31.333 0 61.5 3.33301 90.5 10s61.833 16.667 98.5 30c26.667 10 57 24.333 91 43c28.667 16 43.334 24 44.001 24c11.333 0 18.5 -0.833008 21.5 -2.5s4.5 -5.5 4.5 -11.5
zM204.996 299.004c0 12.667 -7.50293 22.168 -22.5029 28.501s-34.167 9.5 -57.5 9.5c-7.33301 0 -16.166 -4.33301 -26.499 -13s-16.166 -16.834 -17.499 -24.501s-2.66602 -23 -3.99902 -46s-2 -36.5 -2 -40.5c11.333 2.66699 27.333 8 48 16s36.667 14.833 48 20.5
s19.833 13.167 25.5 22.5s8.5 18.333 8.5 27z" />
    <glyph glyph-name="f" unicode="f" horiz-adv-x="439" 
d="M471 323c0 -12 -3.1709 -20.166 -9.50391 -24.499s-15.833 -6.5 -28.5 -6.5c-6.66699 0 -11.667 0.333008 -15 1c-14 0 -30.167 2 -48.5 6s-30.833 6.33301 -37.5 7c-36.667 2.66699 -72.334 4 -107.001 4h-14c0 -30 -2 -90.667 -6 -182c-0.666992 -17.333 -2 -41 -4 -71
c0 -34.667 -1 -66.334 -3 -95.001c-4 -54.667 -10.667 -98.834 -20 -132.501s-18.666 -60.834 -27.999 -81.501c-13.333 -28 -26.333 -42 -39 -42c-10 0 -15 3 -15 9c0 4.66699 4.83301 21.167 14.5 49.5s16.334 54.5 20.001 78.5s6.33398 51.5 8.00098 82.5
s2.5 67.5 2.5 109.5v14v12c0 12.667 -0.166992 24.834 -0.5 36.501s-0.5 22.834 -0.5 33.501c0 66 0.333008 108.167 1 126.5s1.33398 35.166 2.00098 50.499h-156c-14.667 0 -25.667 0.833008 -33 2.5s-11 5.83398 -11 12.501c-0.666992 9.33301 2.5 16.5 9.5 21.5
s17.667 8.5 32 10.5s35.833 3.83301 64.5 5.5s54.334 2.5 77.001 2.5h17c0 28 2.66699 72.167 8 132.5s11 103.166 17 128.499c12 52.667 27 95.667 45 129c22.667 42 47.667 63 75 63c13.333 0 27.166 -6.83301 41.499 -20.5s21.5 -28.167 21.5 -43.5s-2.5 -29 -7.5 -41
s-12.5 -18 -22.5 -18c-4 0 -6.66699 4.16699 -8 12.5s-3.33301 13.5 -6 15.5c-7.33301 4.66699 -12.333 7 -15 7c-11.333 0 -23.166 -11.5 -35.499 -34.5s-21 -48.833 -26 -77.5s-9.16699 -65.5 -12.5 -110.5s-5 -87.5 -5 -127.5v-11c14 0 37.5 -0.666992 70.5 -2
s52.833 -2 59.5 -2c44 0 71.667 -1 83 -3c30 -5.33301 45 -17.666 45 -36.999z" />
    <glyph glyph-name="g" unicode="g" horiz-adv-x="445" 
d="M333 141c0 -70.667 -4.33398 -127.334 -13.001 -170.001c-11.333 -55.333 -33.333 -110.333 -66 -165c-46.667 -78 -85.667 -131.333 -117 -160c-27.333 -24.667 -53.666 -37 -78.999 -37c-38 0 -67.667 11 -89 33c-18 18 -27 38.667 -27 62
c0 4.66699 2.33301 11.667 7 21s10.667 14 18 14c10.667 0 18.5 -3.33301 23.5 -10s7.5 -15.667 7.5 -27c0 -10 5.33301 -19.333 16 -28s24 -13 40 -13c31.333 0 65.333 27.667 102 83c11.333 17.333 28.333 46.833 51 88.5s39.667 91.5 51 149.5
c8 41.333 12 79.666 12 114.999c0 30 -1.66699 51.667 -5 65c-11.333 -34.667 -31.5 -63.167 -60.5 -85.5s-57.5 -33.5 -85.5 -33.5c-32 0 -56 6.33301 -72 19c-20.667 16 -31 43.667 -31 83c0 33.333 21 76 63 128s77.333 78 106 78c10.667 0 17.834 -1.16699 21.501 -3.5
s5.5 -9.5 5.5 -21.5c0 -6.66699 -6.33301 -15.334 -19 -26.001c-8 -6.66699 -21.833 -17 -41.5 -31s-36.667 -33.667 -51 -59s-21.5 -46 -21.5 -62c0 -12 3.66699 -21.333 11 -28s16 -10 26 -10c26.667 0 54 10 82 30c23.333 16.667 40.666 35.334 51.999 56.001
c3.33301 17.333 5.33301 30.333 6 39s1 18.334 1 29.001c-0.666992 12.667 -1 22.334 -1 29.001c0 18 9.66699 27 29 27c10.667 0 20.667 -13.333 30 -40c12 -34 18 -80.333 18 -139z" />
    <glyph glyph-name="h" unicode="h" 
d="M704 150c-1.33301 -16.667 -25.999 -43.6689 -73.999 -81.002c-56 -44 -108.333 -66 -157 -66c-60 0 -110.333 13.667 -151 41c-30 20 -61 59.667 -93 119c-14 -26.667 -31.333 -52 -52 -76c-26.667 -30.667 -49 -46 -67 -46c-25.333 0 -44 13.333 -56 40
c-4 9.33301 -11.333 37.333 -22 84c-1.33301 10 -2.66602 38.5 -3.99902 85.5s-2 88.833 -2 125.5c0 34 -0.833008 75.667 -2.5 125s-2.5 75.333 -2.5 78c0 14.667 -1 27.334 -3 38.001c-6 32.667 -9 49.334 -9 50.001c0 8 3.66699 15.333 11 22s14.666 10 21.999 10
c6 0 12.833 -4.33301 20.5 -13s12.834 -17.834 15.501 -27.501s4.66699 -39.667 6 -90s2 -108.5 2 -174.5c0 -80.667 2.16699 -147.167 6.5 -199.5s11.5 -78.5 21.5 -78.5c11.333 0 24.333 9.66699 39 29c11.333 14.667 21.666 33.334 30.999 56.001
c6 15.333 10.667 26 14 32c8 14 18.667 21 32 21c11.333 0 23 -9.33301 35 -28c6.66699 -12 13.667 -23.667 21 -35l58 -92c29.333 -32 73 -48 131 -48c36.667 0 73.667 12.667 111 38l100 83c9.33301 0 14.666 -0.666992 15.999 -2s2 -8 2 -20z" />
    <glyph glyph-name="i" unicode="i" horiz-adv-x="389" 
d="M117 596c0 -10.667 -1.00098 -17.333 -3.00098 -20c-4.66699 -6 -15 -9 -31 -9c-12.667 0 -26 9.83301 -40 29.5s-21 36.5 -21 50.5c0 8.66699 2.33301 16.5 7 23.5s12.334 10.5 23.001 10.5c16 0 30.833 -10 44.5 -30s20.5 -38.333 20.5 -55zM441.999 154.001
c0 -20 -31.668 -49.668 -95.001 -89.001c-69.333 -42.667 -130.666 -64 -183.999 -64c-22.667 2.66699 -45.334 5.66699 -68.001 9c-20.667 4 -34 10.333 -40 19c-9.33301 12.667 -16 24.667 -20 36c-6 16.667 -9 38.334 -9 65.001v75c0 26 0.333008 53 1 81
c0 18 -0.333008 29 -1 33c0 16 1.83301 29.5 5.5 40.5s11.5 16.5 23.5 16.5s20.833 -4.33301 26.5 -13s8.5 -27 8.5 -55c0 -10.667 -0.333008 -35.5 -1 -74.5s-1 -66.833 -1 -83.5c0 -36.667 3 -59.667 9 -69c10 -16 34 -24 72 -24c44.667 0 89.334 11.333 134.001 34
l114 77h15c6.66699 -1.33301 10 -6 10 -14z" />
    <glyph glyph-name="j" unicode="j" horiz-adv-x="451" 
d="M198 715c0 -14 -1.33203 -23.333 -3.99902 -28s-10 -7 -22 -7c-10 0 -25 10 -45 30c-22 22 -33 39 -33 51c0 10.667 4.16699 19.5 12.5 26.5s17.166 10.5 26.499 10.5c12 0 25.833 -10.667 41.5 -32s23.5 -38.333 23.5 -51zM499.001 143
c0 -4.66699 -14.3311 -13.834 -42.998 -27.501s-59.667 -26.5 -93 -38.5l-184 -75c0 -5.33301 -1.16699 -27.166 -3.5 -65.499s-3.5 -66.166 -3.5 -83.499v-66c0 -86.667 -6 -149 -18 -187c-19.333 -61.333 -56.333 -92 -111 -92c-33.333 0 -61.333 17.833 -84 53.5
s-34 76.5 -34 122.5c0 89.333 24 166 72 230c26 34.667 64 69.334 114 104.001c2 12 3.33301 44.167 4 96.5s2 87.5 4 105.5c-7.33301 -8.66699 -21.333 -24 -42 -46c-4.66699 -4.66699 -15 -15.667 -31 -33l-20.5 -22c-7 -7.33301 -14.167 -11 -21.5 -11
c-8 0 -15.333 2.16699 -22 6.5s-9.33398 10.166 -8.00098 17.499c0.666992 6 12.667 22 36 48c73.333 81.333 110.333 122.666 111 123.999c0 20.667 1.16699 46.167 3.5 76.5s3.5 47.833 3.5 52.5c-0.666992 7.33301 -1 12.666 -1 15.999
c0 18.667 3.33301 34.334 10 47.001s18 19 34 19c16.667 0 29.667 -5.83301 39 -17.5s14 -31.5 14 -59.5c0 -22 -1.83301 -41.333 -5.5 -58s-13.834 -40 -30.501 -70c0 -14 -1.33301 -55.667 -4 -125s-4 -112 -4 -128c11.333 6 36.166 16 74.499 30l92 33
c23 8 55.5 20.333 97.5 37c16.667 6.66699 26.334 10 29.001 10c9.33301 0 16 -1.5 20 -4.5s6 -9.5 6 -19.5zM111.003 -46c-34.667 -21.333 -62.333 -47.002 -83 -77.002c-32 -47.333 -48 -106 -48 -176c0 -25.333 7 -54.333 21 -87s28 -49 42 -49c20.667 0 37 26 49 78
c9.33301 40.667 14 82 14 124c0 28.667 0.5 59.834 1.5 93.501s2.16699 64.834 3.5 93.501z" />
    <glyph glyph-name="k" unicode="k" horiz-adv-x="625" 
d="M669 145c-1.33301 -16 -26.332 -42.6729 -74.999 -80.0059c-56 -43.333 -107.333 -65 -154 -65c-49.333 0 -83.666 1.66699 -102.999 5c-30 5.33301 -61.667 17.666 -95 36.999l-61 37l-82 52c0 -15.333 0.333008 -27.166 1 -35.499s1 -20.5 1 -36.5
c0 -20 -1.66699 -36.5 -5 -49.5s-11.333 -19.5 -24 -19.5c-16.667 0 -28.5 24.833 -35.5 74.5s-10.5 104.834 -10.5 165.501c0 62.667 -0.666992 124.334 -2 185.001s-2.33301 115.334 -3 164.001c0 14.667 -1 27.334 -3 38.001c-6 32.667 -9 49.334 -9 50.001
c0 8 3.66699 15.333 11 22s14.666 10 21.999 10c6 0 12.833 -4.33301 20.5 -13s13.167 -19 16.5 -31c1.33301 -6.66699 3.33301 -60.334 6 -161.001s4 -177 4 -229c48 56 79.667 91 95 105c41.333 38 79 57 113 57c35.333 0 61.833 -7.16699 79.5 -21.5
s26.5 -37.166 26.5 -68.499c0 -26.667 -7.66699 -50.667 -23 -72c-12.667 -17.333 -30.667 -33 -54 -47c-20 -11.333 -40 -21 -60 -29c-29.333 -11.333 -55.333 -17 -78 -17c-12.667 0 -24 1.33301 -34 4l35 -25l84.5 -57.5c25 -16.333 49.667 -27.166 74 -32.499
s55.833 -8 94.5 -8c30.667 0 64.667 12 102 36l107 78c9.33301 0 14.666 -0.666992 15.999 -2s2 -8 2 -20zM339.001 327.994c0 12 -3.99902 22.332 -11.999 30.999s-19.333 13 -34 13c-15.333 0 -40.333 -18.667 -75 -56l-86 -94c25.333 0 51.666 3.33301 78.999 10
s52.333 16.667 75 30c17.333 10 30.5 20.833 39.5 32.5s13.5 22.834 13.5 33.501z" />
    <glyph glyph-name="l" unicode="l" horiz-adv-x="411" 
d="M473 165c0 -6.66699 -18.333 -22 -55 -46c-28 -18 -67 -41.667 -117 -71c-30 -17.333 -58.167 -29.333 -84.5 -36s-56.833 -10 -91.5 -10c-39.333 0 -67.333 30.333 -84 91c-12 44 -18 100.667 -18 170c0 46.667 1.16699 93 3.5 139s5.16602 94.667 8.49902 146v15v11v37
v12c0 7.33301 3.33301 14.666 10 21.999s12.334 11 17.001 11c27.333 0 41 -41.333 41 -124c0 -18 -1.33301 -46.333 -4 -85c-6 -87.333 -9 -139.666 -9 -156.999c0 -76.667 2.33301 -130 7 -160c8 -50 24.667 -75 50 -75c22 0 48 4.66699 78 14s59 21.666 87 36.999
c20.667 10.667 51.667 28.334 93 53.001c29.333 17.333 47 26 53 26s10 -1 12 -3s3 -7.66699 3 -17z" />
    <glyph glyph-name="m" unicode="m" horiz-adv-x="789" 
d="M834 163c0 -17.333 -26.665 -43.667 -79.998 -79c-61.333 -40.667 -119.333 -61 -174 -61c-59.333 0 -107 20.333 -143 61c-28.667 46 -46.334 73.667 -53.001 83c-12 -22.667 -25 -41.334 -39 -56.001c-19.333 -20 -38 -30 -56 -30c-11.333 0 -21.833 3.5 -31.5 10.5
s-18.834 17.5 -27.501 31.5c-5.33301 8.66699 -9.83301 19.334 -13.5 32.001l-10.5 38c-3.33301 12.667 -6 23.667 -8 33c-4 9.33301 -10 14 -18 14s-17.167 -9.16699 -27.5 -27.5s-21.5 -42.166 -33.5 -71.499c-14 -35.333 -22 -54.666 -24 -57.999
c-11.333 -19.333 -25.666 -29 -42.999 -29c-10 0 -16.5 5.5 -19.5 16.5s-4.5 26.833 -4.5 47.5v30c0 10 0.333008 20.333 1 31c0 23.333 -1.16699 47.666 -3.5 72.999s-4.16602 47.333 -5.49902 66c0 12.667 2.83301 23.5 8.5 32.5s13.5 13.5 23.5 13.5
c13.333 0 24.333 -19 33 -57c6.66699 -30 10 -58.333 10 -85c13.333 23.333 26.666 42.666 39.999 57.999c18 20 33 30 45 30c16 0 32.167 -5.5 48.5 -16.5s27.5 -26.167 33.5 -45.5c0.666992 -2 5 -20.667 13 -56c5.33301 -25.333 11.666 -38 18.999 -38
c11.333 0 22.333 10.667 33 32c5.33301 10.667 11 26.667 17 48c3.33301 14 7 28.333 11 43c4 10 13.667 15 29 15c16 0 27.333 -10.333 34 -31s13 -36 19 -46c22 -46 42.667 -79 62 -99c26 -27.333 57 -41 93 -41c40 0 78.333 10.333 115 31l100 70
c18 0 27 -4.33301 27 -13z" />
    <glyph glyph-name="n" unicode="n" horiz-adv-x="701" 
d="M761 165c0 -12.667 -15.6641 -33 -46.9971 -61c-28.667 -26 -58.334 -48.333 -89.001 -67c-74 -45.333 -138 -68 -192 -68c-42 0 -74.333 11.333 -97 34c-18.667 18.667 -35.334 50.667 -50.001 96c-6 20.667 -11.667 41.667 -17 63c-6 16.667 -14.667 25 -26 25
c-7.33301 0 -20.333 -10.667 -39 -32c-15.333 -17.333 -33.333 -41 -54 -71c-10.667 -16 -18.667 -27.667 -24 -35c-14.667 -19.333 -27.334 -29 -38.001 -29c-16.667 0 -28.667 11.333 -36 34c-2.66699 8.66699 -6.5 30.167 -11.5 64.5s-9.33301 69.833 -13 106.5
s-5.5 64.334 -5.5 83.001c0 12 2.16699 21 6.5 27s14.166 9 29.499 9c9.33301 0 16.333 -7.83301 21 -23.5s7 -35.167 7 -58.5c0 -20.667 1 -38 3 -52s7.66699 -42.333 17 -85c14 22 34.333 49.333 61 82c15.333 18.667 31.5 34.167 48.5 46.5s31.5 18.5 43.5 18.5
c24.667 0 43.667 -12.333 57 -37c8 -15.333 16.833 -45.5 26.5 -90.5s17.834 -74.5 24.501 -88.5c11.333 -24 28 -36 50 -36c23.333 0 50.166 4.83301 80.499 14.5s62.5 23.167 96.5 40.5c22.667 11.333 60 39.666 112 84.999c20.667 18 33.334 27 38.001 27
c9.33301 0 14.5 -1.16699 15.5 -3.5s1.5 -8.5 1.5 -18.5z" />
    <glyph glyph-name="o" unicode="o" horiz-adv-x="428" 
d="M416 337c0 -14 -5.99707 -24.165 -17.9971 -30.498s-27.667 -9.5 -47 -9.5h-28h-12h-22c-7.33301 2 -12.333 3.33301 -15 4c5.33301 -12.667 9.83301 -28.5 13.5 -47.5s5.5 -35.167 5.5 -48.5c0 -41.333 -12.667 -82 -38 -122c-29.333 -46 -64 -69 -104 -69
c-31.333 0 -58.5 9.83301 -81.5 29.5s-35.667 43.167 -38 70.5s-3.5 49 -3.5 65c0 24 1.5 44.833 4.5 62.5s7.83301 37.5 14.5 59.5c4.66699 15.333 14 31.666 28 48.999s25 26 33 26c16.667 0 25 -8 25 -24c0 -8 -3 -18.667 -9 -32l-17 -38
c-6.66699 -18.667 -11.834 -41.834 -15.501 -69.501s-5.5 -54.5 -5.5 -80.5c0 -16 5.66699 -30 17 -42s26.666 -18 45.999 -18c18 0 35 13.333 51 40s24 54 24 82c0 32.667 -1.5 58.5 -4.5 77.5s-7.16699 32.5 -12.5 40.5c-16.667 5.33301 -28.667 10.333 -36 15
c-12.667 8 -19 17 -19 27c0 14 2.33301 24.833 7 32.5s12.667 11.5 24 11.5c28.667 0 46.667 -4 54 -12c6 -12.667 12.333 -23.334 19 -32.001c11.333 -1.33301 25.5 -2.66602 42.5 -3.99902s30.833 -2 41.5 -2h22c7.33301 0 14.666 0.333008 21.999 1
c21.333 0 32 -4 32 -12z" />
    <glyph glyph-name="p" unicode="p" horiz-adv-x="312" 
d="M275 211c0 -22.667 -5.00293 -46.3311 -15.0029 -70.998s-22.667 -44.334 -38 -59.001c-21.333 -20 -42.5 -33.333 -63.5 -40s-45.167 -10 -72.5 -10c0 -28.667 -1.5 -71 -4.5 -127s-7.16699 -111.833 -12.5 -167.5s-10.166 -89 -14.499 -100s-15.833 -16.5 -34.5 -16.5
c-8.66699 0 -13 6.33301 -13 19v14c0 10.667 1.33301 26.167 4 46.5s6 48.166 10 83.499s6.66699 73.5 8 114.5s2 87.5 2 139.5l-2 137l-3 152c0 18.667 3.16699 32 9.5 40s20.5 12 42.5 12c60.667 0 104.334 -8.66699 131.001 -26
c20.667 -13.333 37.334 -36.333 50.001 -69c10.667 -27.333 16 -51.333 16 -72zM215.997 209.003c0 15.333 -1.66797 28.668 -5.00098 40.001c-6 20 -16.833 36 -32.5 48s-45.834 18 -90.501 18l-2 -119l2 -112c19.333 0 38.333 3.83301 57 11.5s32.834 17 42.501 28
s16.834 23.667 21.501 38s7 30.166 7 47.499z" />
    <glyph glyph-name="q" unicode="q" horiz-adv-x="384" 
d="M319 301c0 -10 -1.99805 -21.667 -5.99805 -35c-11.333 -38 -17.333 -58.333 -18 -61c-6 -36.667 -10.167 -73.667 -12.5 -111s-3.5 -77 -3.5 -119v-37c0 -29.333 0.833008 -58.666 2.5 -87.999l4.5 -77c0 -8.66699 4.33301 -21 13 -37s13 -28.333 13 -37
c0 -18.667 -2.66699 -31.5 -8 -38.5s-17.666 -10.5 -36.999 -10.5c-14.667 0 -25.5 9.16699 -32.5 27.5s-10.5 41.5 -10.5 69.5c0 7.33301 -0.666992 34.666 -2 81.999s-2 85.333 -2 114v171c-2 -3.33301 -7.33301 -10.333 -16 -21c-10.667 -14 -23.167 -29.167 -37.5 -45.5
s-27.666 -28.333 -39.999 -36s-29.5 -11.5 -51.5 -11.5c-20.667 0 -37.834 11 -51.501 33s-20.5 46.333 -20.5 73c0 32.667 11 70.667 33 114c19.333 38.667 43.333 74.667 72 108c15.333 17.333 33.166 31.833 53.499 43.5s38.5 17.5 54.5 17.5
c15.333 0 26.166 -1.16699 32.499 -3.5s15.166 -10.5 26.499 -24.5l25 -19c12.667 -12 19 -25.667 19 -41zM254.002 301c-5.33301 12 -11.6641 20.502 -18.9971 25.502s-15.333 7.5 -24 7.5c-35.333 0 -69 -35.667 -101 -107c-26.667 -58.667 -40 -102.667 -40 -132
c0 -12.667 1.66699 -21.334 5 -26.001s8.33301 -7 15 -7c9.33301 0 31.666 18 66.999 54c27.333 27.333 52 54 74 80l2.5 21.5c0.333008 3 2.5 13.5 6.5 31.5c1.33301 7.33301 3.66602 17.166 6.99902 29.499s5.66602 19.833 6.99902 22.5z" />
    <glyph glyph-name="r" unicode="r" horiz-adv-x="380" 
d="M447 338c0 -10 -10.667 -14.999 -32 -14.999c-38 0 -69 -3 -93 -9c-42.667 -10.667 -75.334 -32 -98.001 -64c-6.66699 -10 -14 -33.5 -22 -70.5l-25 -117.5c-12.667 -41.333 -33.667 -62 -63 -62c-13.333 0 -22.166 3.66699 -26.499 11s-8.16602 22.166 -11.499 44.499
s-5.83301 45.666 -7.5 69.999s-2.5 48.166 -2.5 71.499c0 27.333 -2 49 -6 65c-5.33301 14.667 -10.333 29.667 -15 45c0 8 2.5 14.833 7.5 20.5s11.5 8.5 19.5 8.5c14.667 0 27.667 -9 39 -27s17 -41.667 17 -71c0 -16.667 0.666992 -31.667 2 -45s2 -26 2 -38
c8 34.667 15.667 62.334 23 83.001s14.666 35.334 21.999 44.001c25.333 30 54 51.667 86 65c26 10.667 55 16 87 16c21.333 0 42.833 -2.5 64.5 -7.5s32.5 -10.833 32.5 -17.5z" />
    <glyph glyph-name="s" unicode="s" horiz-adv-x="333" 
d="M282 358c0 -15.333 -1.00391 -25.335 -3.00391 -30.002s-8 -7 -18 -7c-10.667 0 -17.334 1 -20.001 3s-6.66699 7 -12 15c-7.33301 10.667 -13.666 18.334 -18.999 23.001c-9.33301 8 -19.666 12 -30.999 12c-14.667 0 -25 -6.33301 -31 -19s-9 -29.667 -9 -51
c0 -12.667 3.33301 -27.334 10 -44.001s20 -40 40 -70l42 -63c14 -24 21 -46.667 21 -68c0 -20.667 -4.5 -34.667 -13.5 -42s-22.5 -11 -40.5 -11c-23.333 0 -45.166 4.5 -65.499 13.5s-36.833 22.167 -49.5 39.5c-8.66699 11.333 -17 24.333 -25 39s-12 26.334 -12 35.001
c0 18 6.33301 27 19 27c7.33301 -0.666992 15 -9 23 -25c4 -9.33301 8.83301 -19.166 14.5 -29.499s16.334 -21.166 32.001 -32.499s28.834 -17 39.501 -17s16 4.33301 16 13s-5 21.5 -15 38.5l-29 48.5c-4.66699 9.33301 -15.667 27.666 -33 54.999
c-22.667 36 -34 67 -34 93c0 35.333 8.16699 65.5 24.5 90.5s40.5 37.5 72.5 37.5c30.667 0 56.667 -9 78 -27c18.667 -15.333 28 -31 28 -47z" />
    <glyph glyph-name="t" unicode="t" horiz-adv-x="459" 
d="M510 143c0 -6.66699 -13.332 -19.0029 -39.999 -37.0029c-18 -12 -51.333 -32 -100 -60c-30 -16.667 -58.333 -28.5 -85 -35.5s-57 -10.5 -91 -10.5c-30.667 0 -54.334 18 -71.001 54c-21.333 45.333 -32 114.333 -32 207l3 55l-160 -4
c-12.667 0 -23.167 1.16699 -31.5 3.5s-12.5 6.5 -12.5 12.5c-0.666992 10 2.16602 17 8.49902 21s15.833 7.33301 28.5 10c22 2.66699 48.167 5.33398 78.5 8.00098s60.166 4 89.499 4l8 175v14v11v38v11c0.666992 7.33301 4.33398 14.666 11.001 21.999s12 11 16 11
c28 0 42 -41 42 -123c0 -9.33301 -1.83301 -34.666 -5.5 -75.999s-5.5 -68.666 -5.5 -81.999c16.667 0 40 -0.833008 70 -2.5s49.667 -2.5 59 -2.5h27c32.667 0 55.334 -1.66699 68.001 -5c22 -6 33 -17.333 33 -34c0 -14 -4.16699 -22.667 -12.5 -26s-21.833 -5 -40.5 -5
c-14 0 -30.167 2 -48.5 6s-33.333 6.66699 -45 8s-29 2.33301 -52 3s-43.5 1 -61.5 1c0 -5.33301 -0.333008 -15.166 -1 -29.499s-1 -23.833 -1 -28.5l12 -144c7.33301 -40 23.333 -60 48 -60c20.667 0 46.167 4.66699 76.5 14s59.833 21.333 88.5 36l62.5 36.5
c26.333 15.667 43.5 23.5 51.5 23.5c6.66699 0 11 -1.16699 13 -3.5s2.66699 -7.83301 2 -16.5z" />
    <glyph glyph-name="u" unicode="u" horiz-adv-x="670" 
d="M722 147c0 -16 -26.332 -40.668 -78.999 -74.001c-64 -40.667 -131 -61 -201 -61c-43.333 0 -88 21 -134 63c-15.333 16 -29.666 33 -42.999 51c-16 21.333 -25.333 38 -28 50c-25.333 -27.333 -46.666 -49.333 -63.999 -66c-33.333 -32 -59.333 -48 -78 -48
c-20 0 -33.833 7.16699 -41.5 21.5s-14.5 39.166 -20.5 74.499c-2.66699 18.667 -5.33398 39.834 -8.00098 63.501s-4 43.834 -4 60.501c0 8.66699 0.333008 14.667 1 18c0 12 3.33301 22 10 30s14.667 12 24 12c8 0 15 -3.83301 21 -11.5s9 -19.5 9 -35.5
c0 -24 1.66699 -49 5 -75s9.66602 -54 18.999 -84c17.333 13.333 32 26.5 44 39.5s26 30.167 42 51.5l22 27c12.667 14 25 21 37 21c14.667 0 30 -16 46 -48c24.667 -50 41.667 -81 51 -93c19.333 -24.667 32.666 -40 39.999 -46c17.333 -14.667 38.333 -22 63 -22
c47.333 0 93 11.333 137 34l114 74c8 0 12.667 -2.5 14 -7.5s2 -11.5 2 -19.5z" />
    <glyph glyph-name="v" unicode="v" horiz-adv-x="421" 
d="M453 389c0 -12 -10.332 -22.667 -30.999 -32c-16 -7.33301 -27 -13.333 -33 -18c-14.667 -12.667 -30.667 -32 -48 -58s-29.666 -48.667 -36.999 -68c-13.333 -56 -24.666 -98.667 -33.999 -128c-18 -54 -45 -81 -81 -81c-12.667 0 -24 5 -34 15
c-7.33301 7.33301 -22.333 29.666 -45 66.999c-12.667 20.667 -27 50.5 -43 89.5s-25.833 61.167 -29.5 66.5s-9.66699 17.666 -18 36.999s-12.5 32 -12.5 38c0 8 3 15.333 9 22s13 10 21 10c10 0 21 -10 33 -30c3.33301 -5.33301 13.666 -25 30.999 -59l22 -52
c8.66699 -21.333 16.667 -39.666 24 -54.999s15.5 -31.5 24.5 -48.5s18.167 -25.5 27.5 -25.5c6.66699 0 19 32 37 96c11.333 40.667 24.666 73.334 39.999 98.001c22 35.333 50.333 66.333 85 93c29.333 22.667 49.666 34 60.999 34c9.33301 1.33301 16 2 20 2
c7.33301 0 11 -4.33301 11 -13z" />
    <glyph glyph-name="w" unicode="w" horiz-adv-x="542" 
d="M593 363c0 -4 -3.33398 -6.83203 -10.001 -8.49902l-18 -4.5c-5.33301 -1.33301 -28.666 -4.66602 -69.999 -9.99902c-25.333 -3.33301 -45.666 -6.16602 -60.999 -8.49902s-23 -13.166 -23 -32.499c0 -14.667 3.66699 -45 11 -91s11 -74.333 11 -85
c0 -31.333 -4.33301 -59 -13 -83s-21.667 -36 -39 -36c-26.667 0 -51.667 11 -75 33c-14.667 14 -30 34.333 -46 61l-22.5 37.5c-7.66699 12.333 -16.167 18.5 -25.5 18.5c-7.33301 0 -21.333 -21.333 -42 -64s-48.334 -64 -83.001 -64c-14 0 -28 5 -42 15
c-16.667 12 -26 27 -28 45l-20.5 158c-5 39.333 -7.5 62.666 -7.5 69.999c0 14 2.66699 25.833 8 35.5s13.666 14.5 24.999 14.5c12 0 21.167 -1.33301 27.5 -4s9.5 -9.33398 9.5 -20.001c2 -34.667 3.83301 -63.834 5.5 -87.501s4.83398 -59.5 9.50098 -107.5
c0 -10.667 2.66699 -21.167 8 -31.5s10 -15.5 14 -15.5c10 0 26 20.667 48 62s46 62 72 62c13.333 0 24.333 -2.83301 33 -8.5s16.667 -13.834 24 -24.501c25.333 -40 39 -61.333 41 -64c18.667 -26 32 -39 40 -39c12 0 18 11.667 18 35c0 11.333 -4 42 -12 92
s-12 84.667 -12 104c0 25.333 7.83301 43 23.5 53s39.5 15 71.5 15c38 0 72.5 -1.16699 103.5 -3.5s46.5 -8.5 46.5 -18.5z" />
    <glyph glyph-name="x" unicode="x" horiz-adv-x="550" 
d="M521 428c0 -5.33301 -10.3281 -14.999 -30.9951 -28.999c-32.667 -22 -59.334 -41.333 -80.001 -58c-23.333 -19.333 -43.333 -36.666 -60 -51.999l-76 -74c11.333 -12.667 28.333 -29.334 51 -50.001c29.333 -26.667 57.666 -49.667 84.999 -69
c22 -14.667 38.667 -24 50 -28s24 -6 38 -6c14.667 0 22 -7.66699 22 -23c0 -10.667 -4.33301 -18.167 -13 -22.5s-21 -6.5 -37 -6.5c-26.667 0 -71.834 25.833 -135.501 77.5l-106.5 86.5c-3.33301 -2.66699 -10.5 -8.83398 -21.5 -18.501s-24.5 -20.167 -40.5 -31.5
c-35.333 -25.333 -61 -43 -77 -53c-25.333 -16 -42.666 -24 -51.999 -24c-7.33301 0 -11 3.66699 -11 11c0 8 19.333 28.333 58 61l51 43l58 51c-2 2 -22.333 20.667 -61 56c-20 18 -34 31.667 -42 41c-4.66699 6 -11.334 13.333 -20.001 22c-14.667 15.333 -22 26 -22 32
c0 11.333 7.33301 17 22 17c8.66699 0 35 -19 79 -57l82 -71l145 128c28 24 54.667 43 80 57c18.667 10.667 31.667 16 39 16s13.666 -2 18.999 -6s7.66602 -10.667 6.99902 -20z" />
    <glyph glyph-name="y" unicode="y" horiz-adv-x="508" 
d="M452 245c0 -23.333 -10.6709 -56.9961 -32.0039 -100.996c-32.667 -67.333 -51.667 -108.666 -57 -123.999l-70 -189c-12 -36.667 -18 -65 -18 -85c0 -26.667 -8.66699 -40 -26 -40c-10.667 0 -17 4 -19 12s-3 18 -3 30c0 26 14 78.667 42 158l45 124l59 160
c-46 -40.667 -85.333 -72.667 -118 -96c-36 -26 -63.333 -39 -82 -39c-19.333 0 -34.666 8 -45.999 24c-0.666992 0.666992 -8.66699 16 -24 46c-7.33301 23.333 -13.666 41.666 -18.999 54.999c-10 25.333 -20.833 38.666 -32.5 39.999s-19.667 3.66602 -24 6.99902
s-6.83301 10.666 -7.5 21.999c0 11.333 5 20.166 15 26.499s20.667 9.5 32 9.5c19.333 0 33.333 -6 42 -18c2.66699 -3.33301 10.334 -19.333 23.001 -48c8 -28 14.667 -49.333 20 -64c10.667 -28 23.334 -42 38.001 -42c16 0 52.833 28.167 110.5 84.5
s96.5 84.5 116.5 84.5c11.333 0 20 -2.66699 26 -8s9 -15 9 -29z" />
    <glyph glyph-name="z" unicode="z" horiz-adv-x="585" 
d="M618 143c0 -4.66699 -26.665 -32.9951 -79.998 -84.9951l-200 -193c-11.333 -36 -30.333 -75.333 -57 -118c-32 -50.667 -58.667 -76 -80 -76c-8.66699 0 -18 6 -28 18c-6.66699 8 -10 15.333 -10 22c0 14.667 2.16699 28.667 6.5 42s15.166 30.666 32.499 51.999
s33.666 39.666 48.999 54.999c8 8 20 18.667 36 32c2.66699 11.333 4.66699 25.166 6 41.499s2 33.5 2 51.5c0 28 -7.66699 47.333 -23 58c-10 6.66699 -24.667 10 -44 10h-11c-8 0 -19.333 -1 -34 -3s-25 -3 -31 -3c-4 0 -7.16699 3.16699 -9.5 9.5s-3.5 13.5 -3.5 21.5
c0 3.33301 14 14.333 42 33c16 10.667 32.333 22.334 49 35.001c22.667 17.333 38.334 33.666 47.001 48.999c6 11.333 9 24 9 38c0 22 -6.33301 40.333 -19 55c-19.333 22.667 -50 34 -92 34c-12.667 0 -22.5 -2 -29.5 -6s-12.5 -9.16699 -16.5 -15.5l-10 -15.5
c-4 -4 -10 -6 -18 -6c-12 0 -18 8.33301 -18 25c0 17.333 8.83301 33.833 26.5 49.5s38.167 23.5 61.5 23.5c49.333 0 89.666 -12 120.999 -36c34.667 -26.667 52 -64 52 -112c0 -28 -11.333 -55 -34 -81c-16 -18.667 -38 -36.334 -66 -53.001
c34 0 60.167 -8.16699 78.5 -24.5s27.5 -37.5 27.5 -63.5c0 -10.667 -0.166992 -20.334 -0.5 -29.001s-2.16602 -21 -5.49902 -37c30 30 77 73 141 129c70 61.333 108.333 92 115 92c7.33301 0 12.166 -1.5 14.499 -4.5s3.5 -7.83301 3.5 -14.5z" />
    <glyph glyph-name="braceleft" unicode="{" horiz-adv-x="554" 
d="M486 -51c0.666992 -2.66699 0.999023 -6.66699 0.999023 -12c0 -10 -2.66699 -16.5 -8 -19.5s-13.666 -4.5 -24.999 -4.5c-12.667 0.666992 -22 1 -28 1c-8 -1.33301 -17 -2.33301 -27 -3s-20 -1 -30 -1c-32 0 -58.333 4.33301 -79 13
c-24.667 10.667 -43 28.334 -55 53.001c-8.66699 17.333 -17 78 -25 182s-15.667 161.667 -23 173c-4 6 -14 14.167 -30 24.5s-25.667 19.333 -29 27s-5 14.167 -5 19.5c0 10.667 10.833 22.334 32.5 35.001s34.5 23.5 38.5 32.5s6.33301 24.333 7 46s1 38.5 1 50.5
c0 16.667 -0.166992 33.5 -0.5 50.5s-0.5 34.167 -0.5 51.5c0 37.333 0.833008 65.5 2.5 84.5s5.5 33.167 11.5 42.5c22 34 54.667 51 98 51c10 0 17.667 -0.333008 23 -1c62.667 0 94 -11.667 94 -35c1.33301 -15.333 -9.66699 -23 -33 -23c-6 0 -16.333 0.666992 -31 2
s-26.334 2 -35.001 2c-16.667 0 -30.167 -2 -40.5 -6s-18.5 -12 -24.5 -24c-2.66699 -5.33301 -4.66699 -16.333 -6 -33s-2 -34 -2 -52c0 -18.667 0.333008 -42.334 1 -71.001s1.66699 -60 3 -94c0 -28.667 -1.66699 -46.334 -5 -53.001
c-4.66699 -14.667 -13.667 -25.667 -27 -33l-48 -20c4 -3.33301 16.667 -13 38 -29c12.667 -10 19.334 -17 20.001 -21c6.66699 -14.667 16.667 -100 30 -256c5.33301 -64.667 14 -102 26 -112c8.66699 -9.33301 19.667 -15.833 33 -19.5s28 -5.5 44 -5.5
c10 0 24.667 1 44 3s32.333 3 39 3c20 0 30 -6.33301 30 -19z" />
    <glyph glyph-name="bar" unicode="|" horiz-adv-x="429" 
d="M257 824c0 -68.667 -0.668945 -122.998 -2.00195 -162.998c-4.66699 -140 -7 -222.667 -7 -248v-529v-44c0 -50 -0.666992 -90.833 -2 -122.5s-8.66602 -47.5 -21.999 -47.5c-10 0 -18 5.66699 -24 17s-9 33 -9 65c0 59.333 -0.166992 125.166 -0.5 197.499l-1 228
c-0.333008 79.667 -0.5 156.167 -0.5 229.5v113c0 84 0.833008 152.667 2.5 206s5.83398 98 12.501 134s16.667 54 30 54c12.667 0 19.667 -9.33301 21 -28s2 -39.334 2 -62.001z" />
    <glyph glyph-name="braceright" unicode="}" horiz-adv-x="586" 
d="M441 370c2.66699 -5.33301 4 -10.6709 4 -16.0039c0 -12 -10.833 -24.167 -32.5 -36.5s-34.834 -23.166 -39.501 -32.499c-2.66699 -7.33301 -4 -20.666 -4 -39.999c0 -22.667 1.33301 -49.667 4 -81c7.33301 -85.333 11 -135.666 11 -150.999
c0 -22 -0.5 -36.167 -1.5 -42.5s-3.5 -12.5 -7.5 -18.5c-11.333 -18 -25 -31.333 -41 -40s-34.667 -13 -56 -13h-11c-6 1.33301 -10.333 2 -13 2c-40.667 0 -68.334 1.33301 -83.001 4c-23.333 4.66699 -35 13.334 -35 26.001c-1.33301 14 8 21 28 21
c10 0 18 -0.333008 24 -1c30 -3.33301 46.667 -5 50 -5c20 0 37 2.66699 51 8s26 16 36 32c6 10 9 31.333 9 64c0 27.333 -1.33301 60 -4 98s-5.33398 80 -8.00098 126c0 14.667 1 24.667 3 30c4.66699 14.667 11.334 24.667 20.001 30c14.667 6 28 12 40 18l-38 28
c-12.667 9.33301 -19 16 -19 20c-7.33301 16.667 -14.666 101.667 -21.999 255c-3.33301 63.333 -10.666 100 -21.999 110c-9.33301 10 -19.5 16.833 -30.5 20.5s-22.833 5.5 -35.5 5.5c-9.33301 0 -20.5 -0.833008 -33.5 -2.5s-20.167 -2.5 -21.5 -2.5
c-13.333 0 -20 6.33301 -20 19c-0.666992 2.66699 -1 6.66699 -1 12c0 10.667 3.16699 17.334 9.5 20.001s16.5 4 30.5 4c10 0 20.167 0.666992 30.5 2s21.5 2 33.5 2c23.333 0 42.333 -4.83301 57 -14.5s28.334 -27.5 41.001 -53.5c9.33301 -18.667 16 -79.167 20 -181.5
s9.66699 -158.833 17 -169.5c3.33301 -5.33301 13.166 -13.333 29.499 -24s26.5 -21.334 30.5 -32.001z" />
    <glyph glyph-name="asciitilde" unicode="~" horiz-adv-x="609" 
d="M468 832c0 -12.667 -3.66602 -24.333 -10.999 -35c-9.33301 -13.333 -23.333 -26 -42 -38c-35.333 -22 -65 -33 -89 -33c-18 0 -34.667 4.33301 -50 13l-36 25c-8 5.33301 -16 11.333 -24 18c-12 8 -23.333 12 -34 12c-8.66699 0 -19.834 -5.16699 -33.501 -15.5
s-21.5 -15.5 -23.5 -15.5c-8.66699 0 -13 5.33301 -13 16c0 16 9.16699 31.167 27.5 45.5s35.5 21.5 51.5 21.5c12.667 0 26.667 -4 42 -12c9.33301 -4.66699 19 -11.334 29 -20.001l29 -25c10.667 -7.33301 22 -11 34 -11c10.667 0 20.5 1.33301 29.5 4
s20.5 8.66699 34.5 18c10.667 6.66699 21 17.334 31 32.001c8 11.333 14.333 17 19 17c19.333 0 29 -5.66699 29 -17z" />
    <glyph glyph-name="c128" horiz-adv-x="667" 
d="M637 205c0 -69.333 -31.8379 -132.836 -95.5049 -190.503s-129.5 -86.5 -197.5 -86.5c-38 0 -68.667 14 -92 42c-16 19.333 -27.333 44 -34 74c-0.666992 2.66699 -1 6.33398 -1 11.001c0 18 7.66699 27 23 27c4.66699 -0.666992 10.667 -6.16699 18 -16.5
s14.166 -23 20.499 -38s15.5 -27.5 27.5 -37.5s24.667 -15 38 -15c67.333 0 124.333 28.333 171 85c40 48 60 96.333 60 145c0 42.667 -28 78.667 -84 108c-51.333 26.667 -108 40 -170 40c-44 -8 -74.667 -13.333 -92 -16c-30.667 -5.33301 -55.667 -8 -75 -8
c-3.33301 -20 -5.66602 -44.333 -6.99902 -73s-2 -59 -2 -91c0 -8.66699 1.66699 -30.667 5 -66s5 -58.333 5 -69c0 -5.33301 -0.5 -9.66602 -1.5 -12.999s-2.33301 -6.5 -4 -9.5s-4.5 -4.5 -8.5 -4.5c-17.333 0 -31.666 26.5 -42.999 79.5s-17 125.833 -17 218.5
c-16 0 -29.5 2 -40.5 6s-16.5 11.333 -16.5 22c0 12.667 6 21.667 18 27c4.66699 2 17.667 5.33301 39 10c0 4.66699 2.33301 45.667 7 123c2.66699 44 4 79.333 4 106c-39.333 -16 -65.666 -28.667 -78.999 -38c-10 -7.33301 -16.667 -16 -20 -26
s-6.66602 -17 -9.99902 -21c-5.33301 -6.66699 -13 -10 -23 -10c-12.667 0 -21.334 4.16699 -26.001 12.5s-7 24.166 -7 47.499c0 26.667 39 54 117 82l51 18l2 40c0 37.333 18.333 56 55 56c8 0 13.5 -3.33301 16.5 -10s4.5 -16 4.5 -28
c0 -7.33301 -0.166992 -13.833 -0.5 -19.5s-0.5 -10.5 -0.5 -14.5c43.333 8.66699 81.333 15.167 114 19.5s62.334 6.5 89.001 6.5h79c40.667 -2.66699 62.334 -15 65.001 -37c0 -16 -9 -24 -27 -24c-18.667 2.66699 -37.5 4.83398 -56.5 6.50098s-40.167 2.5 -63.5 2.5
c-17.333 0 -45.666 -3.66699 -84.999 -11s-78.333 -16.666 -117 -27.999c0 -43.333 -1.66699 -83.666 -5 -120.999s-7 -76.333 -11 -117l99.5 18c33 6 58.5 9 76.5 9c49.333 0 107 -15 173 -45c89.333 -40.667 134 -93.334 134 -158.001z" />
    <glyph glyph-name="c128" unicode="&#x402;" horiz-adv-x="667" 
d="M637 205c0 -69.333 -31.8379 -132.836 -95.5049 -190.503s-129.5 -86.5 -197.5 -86.5c-38 0 -68.667 14 -92 42c-16 19.333 -27.333 44 -34 74c-0.666992 2.66699 -1 6.33398 -1 11.001c0 18 7.66699 27 23 27c4.66699 -0.666992 10.667 -6.16699 18 -16.5
s14.166 -23 20.499 -38s15.5 -27.5 27.5 -37.5s24.667 -15 38 -15c67.333 0 124.333 28.333 171 85c40 48 60 96.333 60 145c0 42.667 -28 78.667 -84 108c-51.333 26.667 -108 40 -170 40c-44 -8 -74.667 -13.333 -92 -16c-30.667 -5.33301 -55.667 -8 -75 -8
c-3.33301 -20 -5.66602 -44.333 -6.99902 -73s-2 -59 -2 -91c0 -8.66699 1.66699 -30.667 5 -66s5 -58.333 5 -69c0 -5.33301 -0.5 -9.66602 -1.5 -12.999s-2.33301 -6.5 -4 -9.5s-4.5 -4.5 -8.5 -4.5c-17.333 0 -31.666 26.5 -42.999 79.5s-17 125.833 -17 218.5
c-16 0 -29.5 2 -40.5 6s-16.5 11.333 -16.5 22c0 12.667 6 21.667 18 27c4.66699 2 17.667 5.33301 39 10c0 4.66699 2.33301 45.667 7 123c2.66699 44 4 79.333 4 106c-39.333 -16 -65.666 -28.667 -78.999 -38c-10 -7.33301 -16.667 -16 -20 -26
s-6.66602 -17 -9.99902 -21c-5.33301 -6.66699 -13 -10 -23 -10c-12.667 0 -21.334 4.16699 -26.001 12.5s-7 24.166 -7 47.499c0 26.667 39 54 117 82l51 18l2 40c0 37.333 18.333 56 55 56c8 0 13.5 -3.33301 16.5 -10s4.5 -16 4.5 -28
c0 -7.33301 -0.166992 -13.833 -0.5 -19.5s-0.5 -10.5 -0.5 -14.5c43.333 8.66699 81.333 15.167 114 19.5s62.334 6.5 89.001 6.5h79c40.667 -2.66699 62.334 -15 65.001 -37c0 -16 -9 -24 -27 -24c-18.667 2.66699 -37.5 4.83398 -56.5 6.50098s-40.167 2.5 -63.5 2.5
c-17.333 0 -45.666 -3.66699 -84.999 -11s-78.333 -16.666 -117 -27.999c0 -43.333 -1.66699 -83.666 -5 -120.999s-7 -76.333 -11 -117l99.5 18c33 6 58.5 9 76.5 9c49.333 0 107 -15 173 -45c89.333 -40.667 134 -93.334 134 -158.001z" />
    <glyph glyph-name="c129" horiz-adv-x="473" 
d="M560 953c0 -1.33301 -37.334 -18.6709 -112.001 -52.0039c-44 -20 -78.667 -37.333 -104 -52c-12.667 -7.33301 -38 -27.333 -76 -60c-27.333 -23.333 -49.333 -35 -66 -35c-7.33301 0 -12.666 2 -15.999 6c-3.33301 6.66699 -6 11.667 -8 15
c-5.33301 10.667 6 26.834 34 48.501s62.667 42.834 104 63.501c26.667 14.667 66 32.334 118 53.001s83.667 31 95 31c9.33301 0 16.833 -1.16699 22.5 -3.5s8.5 -7.16602 8.5 -14.499zM567.999 672.995c0 -10 -0.665039 -16.332 -1.99805 -18.999s-6.33301 -4 -15 -4
c-37.333 5.33301 -70.833 9.83301 -100.5 13.5s-52.167 5.5 -67.5 5.5c-18 0 -56.667 -5.33301 -116 -16l-105 -20c-8 -22 -14.333 -62.167 -19 -120.5s-7 -117.833 -7 -178.5l-2 -172c0 -50.667 -2.33301 -89.834 -7 -117.501s-14.334 -41.5 -29.001 -41.5
c-10 0 -17.5 4.16699 -22.5 12.5s-7.5 19.833 -7.5 34.5c0 8.66699 0.333008 19.667 1 33s1 24.666 1 33.999c0 25.333 0.333008 58.833 1 100.5s1 75.5 1 101.5l2 199l3 97c-18 2.66699 -28.333 4.33398 -31 5.00098c-13.333 4.66699 -20 13 -20 25
c0 6.66699 6.5 13.667 19.5 21s24.167 11.666 33.5 12.999c0 12.667 3.16699 23.5 9.5 32.5s13.833 13.5 22.5 13.5c15.333 0 26.666 -2.66699 33.999 -8s12.333 -13.666 15 -24.999c16.667 6 48.167 11.5 94.5 16.5s82.5 7.5 108.5 7.5c37.333 0 80.833 -4.66699 130.5 -14
s74.5 -19 74.5 -29z" />
    <glyph glyph-name="c129" unicode="&#x403;" horiz-adv-x="473" 
d="M560 953c0 -1.33301 -37.334 -18.6709 -112.001 -52.0039c-44 -20 -78.667 -37.333 -104 -52c-12.667 -7.33301 -38 -27.333 -76 -60c-27.333 -23.333 -49.333 -35 -66 -35c-7.33301 0 -12.666 2 -15.999 6c-3.33301 6.66699 -6 11.667 -8 15
c-5.33301 10.667 6 26.834 34 48.501s62.667 42.834 104 63.501c26.667 14.667 66 32.334 118 53.001s83.667 31 95 31c9.33301 0 16.833 -1.16699 22.5 -3.5s8.5 -7.16602 8.5 -14.499zM567.999 672.995c0 -10 -0.665039 -16.332 -1.99805 -18.999s-6.33301 -4 -15 -4
c-37.333 5.33301 -70.833 9.83301 -100.5 13.5s-52.167 5.5 -67.5 5.5c-18 0 -56.667 -5.33301 -116 -16l-105 -20c-8 -22 -14.333 -62.167 -19 -120.5s-7 -117.833 -7 -178.5l-2 -172c0 -50.667 -2.33301 -89.834 -7 -117.501s-14.334 -41.5 -29.001 -41.5
c-10 0 -17.5 4.16699 -22.5 12.5s-7.5 19.833 -7.5 34.5c0 8.66699 0.333008 19.667 1 33s1 24.666 1 33.999c0 25.333 0.333008 58.833 1 100.5s1 75.5 1 101.5l2 199l3 97c-18 2.66699 -28.333 4.33398 -31 5.00098c-13.333 4.66699 -20 13 -20 25
c0 6.66699 6.5 13.667 19.5 21s24.167 11.666 33.5 12.999c0 12.667 3.16699 23.5 9.5 32.5s13.833 13.5 22.5 13.5c15.333 0 26.666 -2.66699 33.999 -8s12.333 -13.666 15 -24.999c16.667 6 48.167 11.5 94.5 16.5s82.5 7.5 108.5 7.5c37.333 0 80.833 -4.66699 130.5 -14
s74.5 -19 74.5 -29z" />
    <glyph glyph-name="c141" horiz-adv-x="620" 
d="M593 956c0 -1.33301 -37.334 -18.6709 -112.001 -52.0039c-44 -20 -78.667 -37.333 -104 -52c-12.667 -7.33301 -38 -27.333 -76 -60c-27.333 -23.333 -49.333 -35 -66 -35c-7.33301 0 -12.666 2 -15.999 6c-3.33301 6.66699 -6 11.667 -8 15
c-5.33301 10.667 6 26.834 34 48.501s62.667 42.834 104 63.501c26.667 14.667 66 32.334 118 53.001s83.667 31 95 31c9.33301 0 16.833 -1.16699 22.5 -3.5s8.5 -7.16602 8.5 -14.499zM616.999 -23.0049c0 -8 -3.66602 -12.002 -10.999 -12.002
c-8 0.666992 -14.667 1 -20 1c-24 0 -63.667 13.667 -119 41c-64 31.333 -118.333 68 -163 110s-84 83.667 -118 125c-28 34 -49 63.333 -63 88c0 -25.333 -2.33301 -61.666 -7 -108.999l-15 -151c0 -26.667 -2.16699 -45 -6.5 -55s-12.5 -15 -24.5 -15
c-9.33301 0.666992 -15.5 5.66699 -18.5 15s-4.5 24 -4.5 44v27.5c0 9.66699 0.333008 19.834 1 30.501c6 88.667 11.167 171.667 15.5 249s6.5 135 6.5 173c0 36 -0.5 63.333 -1.5 82s-1.83301 37.667 -2.5 57c0 12 3.5 22.5 10.5 31.5s16.5 13.5 28.5 13.5
c9.33301 0 18 -5 26 -15c10.667 -14 16 -33 16 -57c0 -19.333 -1.33301 -45.666 -4 -78.999c-7.33301 -92.667 -11 -139.667 -11 -141c13.333 12.667 38 37.667 74 75c27.333 28 49.333 49 66 63l135 111c42 33.333 69.667 50 83 50c7.33301 0 14 -3 20 -9
c3.33301 -3.33301 5 -6 5 -8c0 -6 -24 -29.667 -72 -71c-12 -10.667 -61.333 -52.334 -148 -125.001c-14 -12 -32.667 -30.667 -56 -56l-70 -77c10 -22.667 31.333 -54.334 64 -95.001s70.667 -83.334 114 -128.001c20.667 -21.333 42 -40.666 64 -57.999
c19.333 -15.333 45.666 -33.666 78.999 -54.999c12.667 -8 39.667 -21.667 81 -41c30.667 -14 46 -24 46 -30z" />
    <glyph glyph-name="c141" unicode="&#x40c;" horiz-adv-x="620" 
d="M593 956c0 -1.33301 -37.334 -18.6709 -112.001 -52.0039c-44 -20 -78.667 -37.333 -104 -52c-12.667 -7.33301 -38 -27.333 -76 -60c-27.333 -23.333 -49.333 -35 -66 -35c-7.33301 0 -12.666 2 -15.999 6c-3.33301 6.66699 -6 11.667 -8 15
c-5.33301 10.667 6 26.834 34 48.501s62.667 42.834 104 63.501c26.667 14.667 66 32.334 118 53.001s83.667 31 95 31c9.33301 0 16.833 -1.16699 22.5 -3.5s8.5 -7.16602 8.5 -14.499zM616.999 -23.0049c0 -8 -3.66602 -12.002 -10.999 -12.002
c-8 0.666992 -14.667 1 -20 1c-24 0 -63.667 13.667 -119 41c-64 31.333 -118.333 68 -163 110s-84 83.667 -118 125c-28 34 -49 63.333 -63 88c0 -25.333 -2.33301 -61.666 -7 -108.999l-15 -151c0 -26.667 -2.16699 -45 -6.5 -55s-12.5 -15 -24.5 -15
c-9.33301 0.666992 -15.5 5.66699 -18.5 15s-4.5 24 -4.5 44v27.5c0 9.66699 0.333008 19.834 1 30.501c6 88.667 11.167 171.667 15.5 249s6.5 135 6.5 173c0 36 -0.5 63.333 -1.5 82s-1.83301 37.667 -2.5 57c0 12 3.5 22.5 10.5 31.5s16.5 13.5 28.5 13.5
c9.33301 0 18 -5 26 -15c10.667 -14 16 -33 16 -57c0 -19.333 -1.33301 -45.666 -4 -78.999c-7.33301 -92.667 -11 -139.667 -11 -141c13.333 12.667 38 37.667 74 75c27.333 28 49.333 49 66 63l135 111c42 33.333 69.667 50 83 50c7.33301 0 14 -3 20 -9
c3.33301 -3.33301 5 -6 5 -8c0 -6 -24 -29.667 -72 -71c-12 -10.667 -61.333 -52.334 -148 -125.001c-14 -12 -32.667 -30.667 -56 -56l-70 -77c10 -22.667 31.333 -54.334 64 -95.001s70.667 -83.334 114 -128.001c20.667 -21.333 42 -40.666 64 -57.999
c19.333 -15.333 45.666 -33.666 78.999 -54.999c12.667 -8 39.667 -21.667 81 -41c30.667 -14 46 -24 46 -30z" />
    <glyph glyph-name="c142" horiz-adv-x="571" 
d="M519 673c0 -16 -9.00684 -24.0039 -27.0068 -24.0039c-18.667 2.66699 -37.5 4.83398 -56.5 6.50098s-40.167 2.5 -63.5 2.5c-17.333 0 -45.666 -3.66699 -84.999 -11s-78.333 -16.666 -117 -27.999c0 -43.333 -1.66699 -83.666 -5 -120.999s-7 -76.333 -11 -117
c38.667 8.66699 72.667 15.334 102 20.001s52 7 68 7c59.333 0 104 -13.333 134 -40c35.333 -31.333 53 -82.666 53 -153.999c0 -52.667 -5.33301 -105.334 -16 -158.001s-20.667 -78.334 -30 -77.001c-16 2.66699 -24 13.334 -24 32.001
c4.66699 39.333 8.83398 77 12.501 113s5.5 62.667 5.5 80c0 42 -10 76 -30 102c-24 31.333 -60 47 -108 47c-20.667 0 -50 -4 -88 -12s-64.333 -12 -79 -12c-3.33301 -20 -5.66602 -44.333 -6.99902 -73s-2 -59 -2 -91c0 -8.66699 1.66699 -30.667 5 -66s5 -58.333 5 -69
c0 -5.33301 -0.5 -9.66602 -1.5 -12.999s-2.33301 -6.5 -4 -9.5s-4.5 -4.5 -8.5 -4.5c-17.333 0 -31.666 26.5 -42.999 79.5s-17 125.833 -17 218.5c-16 0 -29.5 2 -40.5 6s-16.5 11.333 -16.5 22c0 12.667 6 21.667 18 27c4.66699 2 17.667 5.33301 39 10
c0 4.66699 2.33301 45.667 7 123c2.66699 44 4 79.333 4 106c-39.333 -16 -65.666 -28.667 -78.999 -38c-10 -7.33301 -16.667 -16 -20 -26s-6.66602 -17 -9.99902 -21c-5.33301 -6.66699 -13 -10 -23 -10c-12.667 0 -21.334 4.16699 -26.001 12.5s-7 24.166 -7 47.499
c0 26.667 39 54 117 82l51 18l2 40c0 37.333 18.333 56 55 56c8 0 13.5 -3.33301 16.5 -10s4.5 -16 4.5 -28c0 -7.33301 -0.166992 -13.833 -0.5 -19.5s-0.5 -10.5 -0.5 -14.5c43.333 8.66699 81.333 15.167 114 19.5s62.334 6.5 89.001 6.5h79
c40.667 -2.66699 62.334 -15 65.001 -37z" />
    <glyph glyph-name="c142" unicode="&#x40b;" horiz-adv-x="571" 
d="M519 673c0 -16 -9.00684 -24.0039 -27.0068 -24.0039c-18.667 2.66699 -37.5 4.83398 -56.5 6.50098s-40.167 2.5 -63.5 2.5c-17.333 0 -45.666 -3.66699 -84.999 -11s-78.333 -16.666 -117 -27.999c0 -43.333 -1.66699 -83.666 -5 -120.999s-7 -76.333 -11 -117
c38.667 8.66699 72.667 15.334 102 20.001s52 7 68 7c59.333 0 104 -13.333 134 -40c35.333 -31.333 53 -82.666 53 -153.999c0 -52.667 -5.33301 -105.334 -16 -158.001s-20.667 -78.334 -30 -77.001c-16 2.66699 -24 13.334 -24 32.001
c4.66699 39.333 8.83398 77 12.501 113s5.5 62.667 5.5 80c0 42 -10 76 -30 102c-24 31.333 -60 47 -108 47c-20.667 0 -50 -4 -88 -12s-64.333 -12 -79 -12c-3.33301 -20 -5.66602 -44.333 -6.99902 -73s-2 -59 -2 -91c0 -8.66699 1.66699 -30.667 5 -66s5 -58.333 5 -69
c0 -5.33301 -0.5 -9.66602 -1.5 -12.999s-2.33301 -6.5 -4 -9.5s-4.5 -4.5 -8.5 -4.5c-17.333 0 -31.666 26.5 -42.999 79.5s-17 125.833 -17 218.5c-16 0 -29.5 2 -40.5 6s-16.5 11.333 -16.5 22c0 12.667 6 21.667 18 27c4.66699 2 17.667 5.33301 39 10
c0 4.66699 2.33301 45.667 7 123c2.66699 44 4 79.333 4 106c-39.333 -16 -65.666 -28.667 -78.999 -38c-10 -7.33301 -16.667 -16 -20 -26s-6.66602 -17 -9.99902 -21c-5.33301 -6.66699 -13 -10 -23 -10c-12.667 0 -21.334 4.16699 -26.001 12.5s-7 24.166 -7 47.499
c0 26.667 39 54 117 82l51 18l2 40c0 37.333 18.333 56 55 56c8 0 13.5 -3.33301 16.5 -10s4.5 -16 4.5 -28c0 -7.33301 -0.166992 -13.833 -0.5 -19.5s-0.5 -10.5 -0.5 -14.5c43.333 8.66699 81.333 15.167 114 19.5s62.334 6.5 89.001 6.5h79
c40.667 -2.66699 62.334 -15 65.001 -37z" />
    <glyph glyph-name="c143" 
d="M631 651c-18 -65.333 -34.0029 -126.993 -48.0029 -184.993c-16 -66.667 -24 -120 -24 -160v-265c21.333 -2 34 -3.16699 38 -3.5s6 -4.83301 6 -13.5c0 -16 -1.5 -25.833 -4.5 -29.5s-10.167 -5.5 -21.5 -5.5h-12c-19.333 0 -47.833 1.16699 -85.5 3.5
s-65.5 3.5 -83.5 3.5l-64 6l-5 -44c-1.33301 -10.667 -2.5 -27.834 -3.5 -51.501s-1.5 -47.834 -1.5 -72.501l-4 -96c0 -14 -2.33301 -24 -7 -30s-9.33398 -9 -14.001 -9c-10.667 0 -18.167 13 -22.5 39s-6.5 56 -6.5 90c0 12 1.16699 35.333 3.5 70
s5.83301 69.667 10.5 105c-34 0 -66.833 -0.833008 -98.5 -2.5l-82.5 -4.5c-10.667 -0.666992 -19 -1 -25 -1c-13.333 0 -24.166 2 -32.499 6s-12.5 11.667 -12.5 23c0 4.66699 3.83301 8.66699 11.5 12s17.5 5 29.5 5c-1.33301 6.66699 -2 17 -2 31
c0 37.333 1.33301 76.666 4 117.999s8 90.333 16 147l26 141c10 54.667 15 105.334 15 152.001c0 7.33301 3.33301 17.166 10 29.499s13.334 18.5 20.001 18.5c13.333 0 22 -4.83301 26 -14.5s6 -23.834 6 -42.501v-30c0 -22 -7.33301 -72 -22 -150
c-9.33301 -48.667 -15.666 -87 -18.999 -115c-7.33301 -54 -14.333 -108.5 -21 -163.5s-10 -94.833 -10 -119.5l63 3c11.333 1.33301 23.333 2 36 2h30h39c8 38.667 16.667 57.667 26 57c6 0 12.5 -3 19.5 -9s10.5 -12 10.5 -18v-15c0 -8 -0.666992 -13.333 -2 -16l53 -1
h102c-0.666992 4.66699 -1.16699 9.66699 -1.5 15s-0.5 9.66602 -0.5 12.999c0 5.33301 0.333008 14.666 1 27.999s1 24.666 1 33.999v179c0 81.333 9.83301 163 29.5 245s43.834 123 72.501 123c8 0 15.167 -3.16699 21.5 -9.5s9.5 -13.833 9.5 -22.5z" />
    <glyph glyph-name="c143" unicode="&#x40f;" 
d="M631 651c-18 -65.333 -34.0029 -126.993 -48.0029 -184.993c-16 -66.667 -24 -120 -24 -160v-265c21.333 -2 34 -3.16699 38 -3.5s6 -4.83301 6 -13.5c0 -16 -1.5 -25.833 -4.5 -29.5s-10.167 -5.5 -21.5 -5.5h-12c-19.333 0 -47.833 1.16699 -85.5 3.5
s-65.5 3.5 -83.5 3.5l-64 6l-5 -44c-1.33301 -10.667 -2.5 -27.834 -3.5 -51.501s-1.5 -47.834 -1.5 -72.501l-4 -96c0 -14 -2.33301 -24 -7 -30s-9.33398 -9 -14.001 -9c-10.667 0 -18.167 13 -22.5 39s-6.5 56 -6.5 90c0 12 1.16699 35.333 3.5 70
s5.83301 69.667 10.5 105c-34 0 -66.833 -0.833008 -98.5 -2.5l-82.5 -4.5c-10.667 -0.666992 -19 -1 -25 -1c-13.333 0 -24.166 2 -32.499 6s-12.5 11.667 -12.5 23c0 4.66699 3.83301 8.66699 11.5 12s17.5 5 29.5 5c-1.33301 6.66699 -2 17 -2 31
c0 37.333 1.33301 76.666 4 117.999s8 90.333 16 147l26 141c10 54.667 15 105.334 15 152.001c0 7.33301 3.33301 17.166 10 29.499s13.334 18.5 20.001 18.5c13.333 0 22 -4.83301 26 -14.5s6 -23.834 6 -42.501v-30c0 -22 -7.33301 -72 -22 -150
c-9.33301 -48.667 -15.666 -87 -18.999 -115c-7.33301 -54 -14.333 -108.5 -21 -163.5s-10 -94.833 -10 -119.5l63 3c11.333 1.33301 23.333 2 36 2h30h39c8 38.667 16.667 57.667 26 57c6 0 12.5 -3 19.5 -9s10.5 -12 10.5 -18v-15c0 -8 -0.666992 -13.333 -2 -16l53 -1
h102c-0.666992 4.66699 -1.16699 9.66699 -1.5 15s-0.5 9.66602 -0.5 12.999c0 5.33301 0.333008 14.666 1 27.999s1 24.666 1 33.999v179c0 81.333 9.83301 163 29.5 245s43.834 123 72.501 123c8 0 15.167 -3.16699 21.5 -9.5s9.5 -13.833 9.5 -22.5z" />
    <glyph glyph-name="c144" horiz-adv-x="445" 
d="M372 -60c0 -57.333 -2.16895 -98.334 -6.50195 -123.001s-14.666 -57 -30.999 -97s-41.5 -76.333 -75.5 -109c-42.667 -40.667 -86.667 -61 -132 -61c-46.667 0 -85 12.667 -115 38c-24.667 21.333 -37 43 -37 65c0 19.333 8 29 24 29
c8.66699 0 16.334 -4.33301 23.001 -13c4.66699 -8 8.33398 -14 11.001 -18c10 -15.333 21.167 -26.666 33.5 -33.999s27.833 -11 46.5 -11c35.333 0 70.333 14.667 105 44s58.667 63.666 72 102.999s21.666 70.666 24.999 93.999s5 48.666 5 75.999
c0 14 -0.833008 44 -2.5 90s-2.5 71.667 -2.5 77c0 34 -3.66699 63.667 -11 89c-10 34.667 -24.333 52 -43 52c-11.333 0 -21.666 -6 -30.999 -18c-4 -5.33301 -11.667 -19.333 -23 -42c-18.667 -38.667 -35.334 -68.334 -50.001 -89.001
c-18.667 -27.333 -34.334 -41 -47.001 -41c-25.333 0 -44 13.333 -56 40c-4 9.33301 -11.333 37.333 -22 84c-1.33301 10 -2.66602 38.5 -3.99902 85.5s-2 88.833 -2 125.5l-1 101l-5 -1h-156c-14.667 0 -25.667 0.833008 -33 2.5s-11 5.83398 -11 12.501
c-0.666992 9.33301 2.5 16.5 9.5 21.5s16.167 8.16699 27.5 9.5c32.667 5.33301 63.667 9.5 93 12.5s53.666 4.5 72.999 4.5l-2 40c0 14.667 -1 27.334 -3 38.001c-6 32.667 -9 49.334 -9 50.001c0 8 3.66699 15.333 11 22s14.666 10 21.999 10
c6 0 13.5 -5.83301 22.5 -17.5s13.5 -22.834 13.5 -33.501v-111c23.333 0 52 -1 86 -3s52.667 -3 56 -3c44 0 71.667 -1 83 -3c30 -5.33301 45 -17.666 45 -36.999c0 -12 -3.16699 -20.167 -9.5 -24.5s-15.833 -6.5 -28.5 -6.5c-6.66699 0 -11.667 0.333008 -15 1
c-14 0 -30.167 2 -48.5 6s-32.166 6.5 -41.499 7.5s-28.833 2.66699 -58.5 5s-51.5 3.5 -65.5 3.5l5 -89c0 -80.667 2.16699 -147.167 6.5 -199.5s11.5 -78.5 21.5 -78.5c12 0 28.667 24.333 50 73l25 57c8.66699 16 17 28.333 25 37c10.667 10.667 22 16 34 16
c15.333 0 31.833 -3.5 49.5 -10.5s30.834 -18.667 39.501 -35s16.667 -55.166 24 -116.499s11 -127 11 -197z" />
    <glyph glyph-name="c144" unicode="&#x452;" horiz-adv-x="445" 
d="M372 -60c0 -57.333 -2.16895 -98.334 -6.50195 -123.001s-14.666 -57 -30.999 -97s-41.5 -76.333 -75.5 -109c-42.667 -40.667 -86.667 -61 -132 -61c-46.667 0 -85 12.667 -115 38c-24.667 21.333 -37 43 -37 65c0 19.333 8 29 24 29
c8.66699 0 16.334 -4.33301 23.001 -13c4.66699 -8 8.33398 -14 11.001 -18c10 -15.333 21.167 -26.666 33.5 -33.999s27.833 -11 46.5 -11c35.333 0 70.333 14.667 105 44s58.667 63.666 72 102.999s21.666 70.666 24.999 93.999s5 48.666 5 75.999
c0 14 -0.833008 44 -2.5 90s-2.5 71.667 -2.5 77c0 34 -3.66699 63.667 -11 89c-10 34.667 -24.333 52 -43 52c-11.333 0 -21.666 -6 -30.999 -18c-4 -5.33301 -11.667 -19.333 -23 -42c-18.667 -38.667 -35.334 -68.334 -50.001 -89.001
c-18.667 -27.333 -34.334 -41 -47.001 -41c-25.333 0 -44 13.333 -56 40c-4 9.33301 -11.333 37.333 -22 84c-1.33301 10 -2.66602 38.5 -3.99902 85.5s-2 88.833 -2 125.5l-1 101l-5 -1h-156c-14.667 0 -25.667 0.833008 -33 2.5s-11 5.83398 -11 12.501
c-0.666992 9.33301 2.5 16.5 9.5 21.5s16.167 8.16699 27.5 9.5c32.667 5.33301 63.667 9.5 93 12.5s53.666 4.5 72.999 4.5l-2 40c0 14.667 -1 27.334 -3 38.001c-6 32.667 -9 49.334 -9 50.001c0 8 3.66699 15.333 11 22s14.666 10 21.999 10
c6 0 13.5 -5.83301 22.5 -17.5s13.5 -22.834 13.5 -33.501v-111c23.333 0 52 -1 86 -3s52.667 -3 56 -3c44 0 71.667 -1 83 -3c30 -5.33301 45 -17.666 45 -36.999c0 -12 -3.16699 -20.167 -9.5 -24.5s-15.833 -6.5 -28.5 -6.5c-6.66699 0 -11.667 0.333008 -15 1
c-14 0 -30.167 2 -48.5 6s-32.166 6.5 -41.499 7.5s-28.833 2.66699 -58.5 5s-51.5 3.5 -65.5 3.5l5 -89c0 -80.667 2.16699 -147.167 6.5 -199.5s11.5 -78.5 21.5 -78.5c12 0 28.667 24.333 50 73l25 57c8.66699 16 17 28.333 25 37c10.667 10.667 22 16 34 16
c15.333 0 31.833 -3.5 49.5 -10.5s30.834 -18.667 39.501 -35s16.667 -55.166 24 -116.499s11 -127 11 -197z" />
    <glyph glyph-name="c157" horiz-adv-x="552" 
d="M461 623c0 -1.33301 -37.334 -18.6709 -112.001 -52.0039c-44 -20 -78.667 -37.333 -104 -52c-12.667 -7.33301 -38 -27.333 -76 -60c-27.333 -23.333 -49.333 -35 -66 -35c-7.33301 0 -12.666 2 -15.999 6c-3.33301 6.66699 -6 11.667 -8 15
c-5.33301 10.667 6 26.834 34 48.501s62.667 42.834 104 63.501c26.667 14.667 66 32.334 118 53.001s83.667 31 95 31c9.33301 0 16.833 -1.16699 22.5 -3.5s8.5 -7.16602 8.5 -14.499zM625.999 141.995c0 -7.33301 -17 -22.666 -51 -45.999s-66 -41.666 -96 -54.999
c-36 -16.667 -71.5 -28.834 -106.5 -36.501s-69.167 -11.5 -102.5 -11.5c-21.333 0 -48.833 12.333 -82.5 37s-55.834 51 -66.501 79c-6.66699 -32 -12 -55.333 -16 -70c-7.33301 -26 -17.666 -39 -30.999 -39c-14 0 -23.667 4.33301 -29 13c-2.66699 4 -5.66699 15 -9 33
c-4 28.667 -6.83301 55.167 -8.5 79.5s-2.5 48.166 -2.5 71.499c0 27.333 -2 49 -6 65c-5.33301 14.667 -10.333 29.667 -15 45c0 8 2.5 14.833 7.5 20.5s11.5 8.5 19.5 8.5c14.667 0 27.667 -9 39 -27s17 -41.667 17 -71c0 -16 0.666992 -36.5 2 -61.5s2 -37.833 2 -38.5
c4.66699 19.333 11.667 39 21 59c12 25.333 26.667 47.666 44 66.999c21.333 22.667 39.666 39.334 54.999 50.001c20.667 14.667 40.334 22 59.001 22c11.333 0 22.166 -4.5 32.499 -13.5s15.5 -17.833 15.5 -26.5c0 -12 -5 -23 -15 -33s-24.667 -18.667 -44 -26
s-38.166 -17.333 -56.499 -30s-31.5 -26 -39.5 -40c12 -32 25.667 -57 41 -75c25.333 -30.667 55.333 -46 90 -46c30 0 57 3.16699 81 9.5s54 16.833 90 31.5c30 12 60.667 26.667 92 44l44 25h15c6.66699 0 10 -4.66699 10 -14z" />
    <glyph glyph-name="c157" unicode="&#x45c;" horiz-adv-x="552" 
d="M461 623c0 -1.33301 -37.334 -18.6709 -112.001 -52.0039c-44 -20 -78.667 -37.333 -104 -52c-12.667 -7.33301 -38 -27.333 -76 -60c-27.333 -23.333 -49.333 -35 -66 -35c-7.33301 0 -12.666 2 -15.999 6c-3.33301 6.66699 -6 11.667 -8 15
c-5.33301 10.667 6 26.834 34 48.501s62.667 42.834 104 63.501c26.667 14.667 66 32.334 118 53.001s83.667 31 95 31c9.33301 0 16.833 -1.16699 22.5 -3.5s8.5 -7.16602 8.5 -14.499zM625.999 141.995c0 -7.33301 -17 -22.666 -51 -45.999s-66 -41.666 -96 -54.999
c-36 -16.667 -71.5 -28.834 -106.5 -36.501s-69.167 -11.5 -102.5 -11.5c-21.333 0 -48.833 12.333 -82.5 37s-55.834 51 -66.501 79c-6.66699 -32 -12 -55.333 -16 -70c-7.33301 -26 -17.666 -39 -30.999 -39c-14 0 -23.667 4.33301 -29 13c-2.66699 4 -5.66699 15 -9 33
c-4 28.667 -6.83301 55.167 -8.5 79.5s-2.5 48.166 -2.5 71.499c0 27.333 -2 49 -6 65c-5.33301 14.667 -10.333 29.667 -15 45c0 8 2.5 14.833 7.5 20.5s11.5 8.5 19.5 8.5c14.667 0 27.667 -9 39 -27s17 -41.667 17 -71c0 -16 0.666992 -36.5 2 -61.5s2 -37.833 2 -38.5
c4.66699 19.333 11.667 39 21 59c12 25.333 26.667 47.666 44 66.999c21.333 22.667 39.666 39.334 54.999 50.001c20.667 14.667 40.334 22 59.001 22c11.333 0 22.166 -4.5 32.499 -13.5s15.5 -17.833 15.5 -26.5c0 -12 -5 -23 -15 -33s-24.667 -18.667 -44 -26
s-38.166 -17.333 -56.499 -30s-31.5 -26 -39.5 -40c12 -32 25.667 -57 41 -75c25.333 -30.667 55.333 -46 90 -46c30 0 57 3.16699 81 9.5s54 16.833 90 31.5c30 12 60.667 26.667 92 44l44 25h15c6.66699 0 10 -4.66699 10 -14z" />
    <glyph glyph-name="c158" 
d="M704 150c-1.33301 -16.667 -25.998 -43.6699 -73.998 -81.0029c-56 -44 -108.333 -66 -157 -66c-60 0 -110.333 13.667 -151 41c-30 20 -61 59.667 -93 119c-14 -26.667 -31.333 -52 -52 -76c-26.667 -30.667 -49 -46 -67 -46c-26.667 0 -46.334 15 -59.001 45
c-10 24 -15 54 -15 90l-4 200l-2 104c-26 0 -52.333 -0.5 -79 -1.5s-55.667 -1.83301 -87 -2.5c-14.667 0 -25.667 0.833008 -33 2.5s-11 5.83398 -11 12.501c-0.666992 9.33301 2.5 16.5 9.5 21.5s16.167 8.16699 27.5 9.5c24.667 4 56.167 7.66699 94.5 11
s63.833 5 76.5 5c0 12 -0.666992 21.667 -2 29s-2 13 -2 17c-5.33301 27.333 -10.333 55 -15 83c0 8 3.66699 15.333 11 22s14.666 10 21.999 10c6 0 12.833 -4.33301 20.5 -13s12.834 -17.5 15.501 -26.5s5 -28.5 7 -58.5s3 -51.667 3 -65l132 -5c44 0 71.667 -1 83 -3
c30 -5.33301 45 -17.666 45 -36.999c0 -12 -3.16699 -20.167 -9.5 -24.5s-15.833 -6.5 -28.5 -6.5c-6.66699 0 -11.667 0.333008 -15 1c-14 0 -30.167 2 -48.5 6s-34.333 6.66699 -48 8s-23.167 2.33301 -28.5 3c-33.333 3.33301 -60.666 5 -81.999 5
c0 -9.33301 -0.333008 -24 -1 -44s-1 -35 -1 -45c0 -80.667 2.16699 -147.167 6.5 -199.5s11.5 -78.5 21.5 -78.5c11.333 0 24.333 9.66699 39 29c11.333 14.667 21.666 33.334 30.999 56.001c6 15.333 10.667 26 14 32c8 14 18.667 21 32 21c11.333 0 23 -9.33301 35 -28
c6.66699 -12 13.667 -23.667 21 -35l58 -92c29.333 -32 73 -48 131 -48c36.667 0 73.667 12.667 111 38l100 83c9.33301 0 14.666 -0.666992 15.999 -2s2 -8 2 -20z" />
    <glyph glyph-name="c158" unicode="&#x45b;" 
d="M704 150c-1.33301 -16.667 -25.998 -43.6699 -73.998 -81.0029c-56 -44 -108.333 -66 -157 -66c-60 0 -110.333 13.667 -151 41c-30 20 -61 59.667 -93 119c-14 -26.667 -31.333 -52 -52 -76c-26.667 -30.667 -49 -46 -67 -46c-26.667 0 -46.334 15 -59.001 45
c-10 24 -15 54 -15 90l-4 200l-2 104c-26 0 -52.333 -0.5 -79 -1.5s-55.667 -1.83301 -87 -2.5c-14.667 0 -25.667 0.833008 -33 2.5s-11 5.83398 -11 12.501c-0.666992 9.33301 2.5 16.5 9.5 21.5s16.167 8.16699 27.5 9.5c24.667 4 56.167 7.66699 94.5 11
s63.833 5 76.5 5c0 12 -0.666992 21.667 -2 29s-2 13 -2 17c-5.33301 27.333 -10.333 55 -15 83c0 8 3.66699 15.333 11 22s14.666 10 21.999 10c6 0 12.833 -4.33301 20.5 -13s12.834 -17.5 15.501 -26.5s5 -28.5 7 -58.5s3 -51.667 3 -65l132 -5c44 0 71.667 -1 83 -3
c30 -5.33301 45 -17.666 45 -36.999c0 -12 -3.16699 -20.167 -9.5 -24.5s-15.833 -6.5 -28.5 -6.5c-6.66699 0 -11.667 0.333008 -15 1c-14 0 -30.167 2 -48.5 6s-34.333 6.66699 -48 8s-23.167 2.33301 -28.5 3c-33.333 3.33301 -60.666 5 -81.999 5
c0 -9.33301 -0.333008 -24 -1 -44s-1 -35 -1 -45c0 -80.667 2.16699 -147.167 6.5 -199.5s11.5 -78.5 21.5 -78.5c11.333 0 24.333 9.66699 39 29c11.333 14.667 21.666 33.334 30.999 56.001c6 15.333 10.667 26 14 32c8 14 18.667 21 32 21c11.333 0 23 -9.33301 35 -28
c6.66699 -12 13.667 -23.667 21 -35l58 -92c29.333 -32 73 -48 131 -48c36.667 0 73.667 12.667 111 38l100 83c9.33301 0 14.666 -0.666992 15.999 -2s2 -8 2 -20z" />
    <glyph glyph-name="exclamdown" unicode="&#xa1;" horiz-adv-x="499" 
d="M427 784c0 -8 -3.99902 -18.333 -11.999 -31c-10.667 -16.667 -24.834 -30.667 -42.501 -42s-34 -19.333 -49 -24s-29.167 -7 -42.5 -7c-18.667 0 -36.334 3.33301 -53.001 10c-10 4 -22.333 11 -37 21c-9.33301 6.66699 -17.666 13.667 -24.999 21
c-10 10.667 -16.167 19.5 -18.5 26.5s-3.5 13.833 -3.5 20.5c0 9.33301 2.33301 17.166 7 23.499s11.334 9.5 20.001 9.5c6 0 14.333 -6.33301 25 -19c14.667 -17.333 22.667 -26.666 24 -27.999l21 -18c12.667 -10 26 -16 40 -18c19.333 -2 42.666 5.33301 69.999 22
c11.333 7.33301 22.666 18 33.999 32c9.33301 11.333 16.333 17 21 17c6.66699 0 11.834 -1 15.501 -3s5.5 -6.33301 5.5 -13zM526.001 659c0 -8.66699 -4.66406 -25.167 -13.9971 -49.5s-22.666 -54.833 -39.999 -91.5c-42 -86 -80.667 -161 -116 -225
c-44.667 -80.667 -88 -150.667 -130 -210c-23.333 -33.333 -35.333 -50.333 -36 -51c-16.667 -21.333 -29 -32 -37 -32c-20 0 -30 10 -30 30c0 5.33301 12 25 36 59c61.333 86.667 95.333 136.667 102 150c-14 15.333 -34.5 41.5 -61.5 78.5l-82.5 115.5l-98 143
c-18.667 28 -28.334 45 -29.001 51c-2.66699 21.333 7.66602 32 30.999 32c6 0 17.667 -12.333 35 -37c64 -91.333 99.667 -141.333 107 -150c15.333 -18 38.666 -47.5 69.999 -88.5s52 -66.833 62 -77.5c14.667 23.333 36 62.333 64 117l54.5 106l56.5 110
c17.333 31.333 29.666 47 36.999 47c4.66699 0 9 -3 13 -9s6 -12 6 -18z" />
    <glyph glyph-name="exclamdown" unicode="&#x40e;" horiz-adv-x="499" 
d="M427 784c0 -8 -3.99902 -18.333 -11.999 -31c-10.667 -16.667 -24.834 -30.667 -42.501 -42s-34 -19.333 -49 -24s-29.167 -7 -42.5 -7c-18.667 0 -36.334 3.33301 -53.001 10c-10 4 -22.333 11 -37 21c-9.33301 6.66699 -17.666 13.667 -24.999 21
c-10 10.667 -16.167 19.5 -18.5 26.5s-3.5 13.833 -3.5 20.5c0 9.33301 2.33301 17.166 7 23.499s11.334 9.5 20.001 9.5c6 0 14.333 -6.33301 25 -19c14.667 -17.333 22.667 -26.666 24 -27.999l21 -18c12.667 -10 26 -16 40 -18c19.333 -2 42.666 5.33301 69.999 22
c11.333 7.33301 22.666 18 33.999 32c9.33301 11.333 16.333 17 21 17c6.66699 0 11.834 -1 15.501 -3s5.5 -6.33301 5.5 -13zM526.001 659c0 -8.66699 -4.66406 -25.167 -13.9971 -49.5s-22.666 -54.833 -39.999 -91.5c-42 -86 -80.667 -161 -116 -225
c-44.667 -80.667 -88 -150.667 -130 -210c-23.333 -33.333 -35.333 -50.333 -36 -51c-16.667 -21.333 -29 -32 -37 -32c-20 0 -30 10 -30 30c0 5.33301 12 25 36 59c61.333 86.667 95.333 136.667 102 150c-14 15.333 -34.5 41.5 -61.5 78.5l-82.5 115.5l-98 143
c-18.667 28 -28.334 45 -29.001 51c-2.66699 21.333 7.66602 32 30.999 32c6 0 17.667 -12.333 35 -37c64 -91.333 99.667 -141.333 107 -150c15.333 -18 38.666 -47.5 69.999 -88.5s52 -66.833 62 -77.5c14.667 23.333 36 62.333 64 117l54.5 106l56.5 110
c17.333 31.333 29.666 47 36.999 47c4.66699 0 9 -3 13 -9s6 -12 6 -18z" />
    <glyph glyph-name="cent" unicode="&#xa2;" horiz-adv-x="632" 
d="M343 518c0 -8 -3.99902 -18.333 -11.999 -31c-10.667 -16.667 -24.834 -30.667 -42.501 -42s-34 -19.333 -49 -24s-29.167 -7 -42.5 -7c-18.667 0 -36.334 3.33301 -53.001 10c-10 4 -22.333 11 -37 21c-9.33301 6.66699 -17.666 13.667 -24.999 21
c-10 10.667 -16.167 19.5 -18.5 26.5s-3.5 13.833 -3.5 20.5c0 9.33301 2.33301 17.166 7 23.499s11.334 9.5 20.001 9.5c6 0 14.333 -6.33301 25 -19c14.667 -17.333 22.667 -26.666 24 -27.999l21 -18c12.667 -10 26 -16 40 -18c19.333 -2 42.666 5.33301 69.999 22
c11.333 7.33301 22.666 18 33.999 32c9.33301 11.333 16.333 17 21 17c6.66699 0 11.834 -1 15.501 -3s5.5 -6.33301 5.5 -13zM674.001 170c0 -6.66699 -40.6689 -28.332 -122.002 -64.999l-163 -70v-70c0 -24 0.333008 -49 1 -75v-51c0 -101.333 -11.333 -169.333 -34 -204
s-56 -52 -100 -52c-34 0 -62 14.167 -84 42.5s-33 64.166 -33 107.499c0 80 24.333 152.333 73 217c29.333 39.333 67.666 75 114.999 107c0 22 -0.5 39.667 -1.5 53l-3.5 46v16c1.33301 9.33301 2 16.666 2 21.999c-24 -29.333 -53 -58.666 -87 -87.999
c-47.333 -40.667 -84.333 -61 -111 -61c-19.333 0 -34.666 8 -45.999 24c-2 3.33301 -9.66699 19 -23 47c-4.66699 9.33301 -11.667 26.333 -21 51c-8 18.667 -14 33.334 -18 44.001s-7.33301 21.5 -10 32.5s-4.66699 20.5 -6 28.5c0 26.667 12 40 36 40
c17.333 0 28.5 -11.667 33.5 -35l14.5 -68c8 -28 14.667 -49.333 20 -64c10.667 -28 23.334 -42 38.001 -42s37 14.667 67 44c11.333 11.333 39 41.666 83 90.999c33.333 38 58 62.667 74 74c4 2.66699 7.66699 4 11 4c6.66699 0 12.167 -3.16699 16.5 -9.5
s6.5 -16.5 6.5 -30.5c0 -10.667 -2 -23.834 -6 -39.501s-6.66699 -27.167 -8 -34.5s-2 -15 -2 -23c0 -11.333 0.333008 -24.666 1 -39.999l2 -45c29.333 18 78.333 40.833 147 68.5s107.334 41.5 116.001 41.5c7.33301 0 12.833 -3.83301 16.5 -11.5s5.5 -15.167 5.5 -22.5z
M326.999 -197.998v187c-30.667 -18 -58 -45.667 -82 -83c-31.333 -48.667 -47 -101.667 -47 -159c0 -24 6.66699 -48.167 20 -72.5s27 -36.5 41 -36.5c22 0 39.333 19.667 52 59c10.667 32.667 16 67.667 16 105z" />
    <glyph glyph-name="cent" unicode="&#x45e;" horiz-adv-x="632" 
d="M343 518c0 -8 -3.99902 -18.333 -11.999 -31c-10.667 -16.667 -24.834 -30.667 -42.501 -42s-34 -19.333 -49 -24s-29.167 -7 -42.5 -7c-18.667 0 -36.334 3.33301 -53.001 10c-10 4 -22.333 11 -37 21c-9.33301 6.66699 -17.666 13.667 -24.999 21
c-10 10.667 -16.167 19.5 -18.5 26.5s-3.5 13.833 -3.5 20.5c0 9.33301 2.33301 17.166 7 23.499s11.334 9.5 20.001 9.5c6 0 14.333 -6.33301 25 -19c14.667 -17.333 22.667 -26.666 24 -27.999l21 -18c12.667 -10 26 -16 40 -18c19.333 -2 42.666 5.33301 69.999 22
c11.333 7.33301 22.666 18 33.999 32c9.33301 11.333 16.333 17 21 17c6.66699 0 11.834 -1 15.501 -3s5.5 -6.33301 5.5 -13zM674.001 170c0 -6.66699 -40.6689 -28.332 -122.002 -64.999l-163 -70v-70c0 -24 0.333008 -49 1 -75v-51c0 -101.333 -11.333 -169.333 -34 -204
s-56 -52 -100 -52c-34 0 -62 14.167 -84 42.5s-33 64.166 -33 107.499c0 80 24.333 152.333 73 217c29.333 39.333 67.666 75 114.999 107c0 22 -0.5 39.667 -1.5 53l-3.5 46v16c1.33301 9.33301 2 16.666 2 21.999c-24 -29.333 -53 -58.666 -87 -87.999
c-47.333 -40.667 -84.333 -61 -111 -61c-19.333 0 -34.666 8 -45.999 24c-2 3.33301 -9.66699 19 -23 47c-4.66699 9.33301 -11.667 26.333 -21 51c-8 18.667 -14 33.334 -18 44.001s-7.33301 21.5 -10 32.5s-4.66699 20.5 -6 28.5c0 26.667 12 40 36 40
c17.333 0 28.5 -11.667 33.5 -35l14.5 -68c8 -28 14.667 -49.333 20 -64c10.667 -28 23.334 -42 38.001 -42s37 14.667 67 44c11.333 11.333 39 41.666 83 90.999c33.333 38 58 62.667 74 74c4 2.66699 7.66699 4 11 4c6.66699 0 12.167 -3.16699 16.5 -9.5
s6.5 -16.5 6.5 -30.5c0 -10.667 -2 -23.834 -6 -39.501s-6.66699 -27.167 -8 -34.5s-2 -15 -2 -23c0 -11.333 0.333008 -24.666 1 -39.999l2 -45c29.333 18 78.333 40.833 147 68.5s107.334 41.5 116.001 41.5c7.33301 0 12.833 -3.83301 16.5 -11.5s5.5 -15.167 5.5 -22.5z
M326.999 -197.998v187c-30.667 -18 -58 -45.667 -82 -83c-31.333 -48.667 -47 -101.667 -47 -159c0 -24 6.66699 -48.167 20 -72.5s27 -36.5 41 -36.5c22 0 39.333 19.667 52 59c10.667 32.667 16 67.667 16 105z" />
    <glyph glyph-name="sterling" unicode="&#xa3;" horiz-adv-x="542" 
d="M596 658c0 -13.333 -4.5 -21.499 -13.5 -24.499s-27.5 -4.5 -55.5 -4.5l-80 -2c2.66699 -24 5 -69 7 -135s3 -125 3 -177c0 -80 -22 -148.333 -66 -205c-49.333 -63.333 -115 -95 -197 -95c-22.667 0 -43 11.333 -61 34c-15.333 19.333 -23 36.333 -23 51
c0 18.667 7.66699 28 23 28c5.33301 0 14 -9.66699 26 -29s27 -29 45 -29c58 0 105.333 26 142 78c34 48 51 105.667 51 173c0 42.667 -2.16699 91 -6.5 145l-12.5 163l-198 -2c-8.66699 0 -17.334 -0.166992 -26.001 -0.5s-17.667 -0.5 -27 -0.5c-30 0 -49.333 2 -58 6
s-13 10.333 -13 19c0 15.333 7.5 26.166 22.5 32.499s32.5 9.5 52.5 9.5c20.667 0 72.334 -2 155.001 -6c41.333 -2 90 -3 146 -3c70.667 0 115.667 -1.66699 135 -5s29 -10.333 29 -21z" />
    <glyph glyph-name="sterling" unicode="&#x408;" horiz-adv-x="542" 
d="M596 658c0 -13.333 -4.5 -21.499 -13.5 -24.499s-27.5 -4.5 -55.5 -4.5l-80 -2c2.66699 -24 5 -69 7 -135s3 -125 3 -177c0 -80 -22 -148.333 -66 -205c-49.333 -63.333 -115 -95 -197 -95c-22.667 0 -43 11.333 -61 34c-15.333 19.333 -23 36.333 -23 51
c0 18.667 7.66699 28 23 28c5.33301 0 14 -9.66699 26 -29s27 -29 45 -29c58 0 105.333 26 142 78c34 48 51 105.667 51 173c0 42.667 -2.16699 91 -6.5 145l-12.5 163l-198 -2c-8.66699 0 -17.334 -0.166992 -26.001 -0.5s-17.667 -0.5 -27 -0.5c-30 0 -49.333 2 -58 6
s-13 10.333 -13 19c0 15.333 7.5 26.166 22.5 32.499s32.5 9.5 52.5 9.5c20.667 0 72.334 -2 155.001 -6c41.333 -2 90 -3 146 -3c70.667 0 115.667 -1.66699 135 -5s29 -10.333 29 -21z" />
    <glyph glyph-name="yen" unicode="&#xa5;" horiz-adv-x="425" 
d="M454 688c0 -18 -5.66504 -30.165 -16.998 -36.498s-34.333 -9.5 -69 -9.5c-26.667 0 -66.5 -1.33301 -119.5 -4s-86.5 -5.33398 -100.5 -8.00098c-4 -24.667 -7 -64.5 -9 -119.5s-3 -113.833 -3 -176.5l-2 -172c0 -50.667 -2.33301 -89.834 -7 -117.501
s-14.334 -41.5 -29.001 -41.5c-10 0 -17.5 4.16699 -22.5 12.5s-7.5 19.833 -7.5 34.5c0 8.66699 0.333008 19.667 1 33s1 24.666 1 33.999c0 25.333 0.333008 58.833 1 100.5s1 75.5 1 101.5l2 199v102c-10 0.666992 -19.667 1.66699 -29 3
c-12.667 3.33301 -19 10.666 -19 21.999c0 7.33301 5 14.333 15 21s22.667 11 38 13c0 12.667 3.16699 23.5 9.5 32.5s13.833 13.5 22.5 13.5c14.667 0 24.667 -3.33301 30 -10c2.66699 -3.33301 5.66699 -11.666 9 -24.999c12.667 2 43.5 4.33301 92.5 7
s100.167 5.66699 153.5 9c0 55.333 1.66699 89.833 5 103.5s9.66602 20.5 18.999 20.5c7.33301 0 13.5 -3.16699 18.5 -9.5s7.5 -14.5 7.5 -24.5c0 -8 1.33301 -25.667 4 -53s4 -45.666 4 -54.999z" />
    <glyph glyph-name="yen" unicode="&#x490;" horiz-adv-x="425" 
d="M454 688c0 -18 -5.66504 -30.165 -16.998 -36.498s-34.333 -9.5 -69 -9.5c-26.667 0 -66.5 -1.33301 -119.5 -4s-86.5 -5.33398 -100.5 -8.00098c-4 -24.667 -7 -64.5 -9 -119.5s-3 -113.833 -3 -176.5l-2 -172c0 -50.667 -2.33301 -89.834 -7 -117.501
s-14.334 -41.5 -29.001 -41.5c-10 0 -17.5 4.16699 -22.5 12.5s-7.5 19.833 -7.5 34.5c0 8.66699 0.333008 19.667 1 33s1 24.666 1 33.999c0 25.333 0.333008 58.833 1 100.5s1 75.5 1 101.5l2 199v102c-10 0.666992 -19.667 1.66699 -29 3
c-12.667 3.33301 -19 10.666 -19 21.999c0 7.33301 5 14.333 15 21s22.667 11 38 13c0 12.667 3.16699 23.5 9.5 32.5s13.833 13.5 22.5 13.5c14.667 0 24.667 -3.33301 30 -10c2.66699 -3.33301 5.66699 -11.666 9 -24.999c12.667 2 43.5 4.33301 92.5 7
s100.167 5.66699 153.5 9c0 55.333 1.66699 89.833 5 103.5s9.66602 20.5 18.999 20.5c7.33301 0 13.5 -3.16699 18.5 -9.5s7.5 -14.5 7.5 -24.5c0 -8 1.33301 -25.667 4 -53s4 -45.666 4 -54.999z" />
    <glyph glyph-name="brokenbar" unicode="&#xa6;" horiz-adv-x="354" 
d="M229 578l0.000976562 -46c0 -26 -1.66699 -44.667 -5 -56s-11.666 -17 -24.999 -17c-10.667 0 -18.834 6.66699 -24.501 20s-8.5 36.333 -8.5 69c0 40 -0.333008 82.333 -1 127s-1.33398 87 -2.00098 127c0 36.667 1 60.334 3 71.001c4.66699 25.333 15.667 38 33 38
c8 0 13.833 -6.33301 17.5 -19s5.5 -26.334 5.5 -41.001c0 -10.667 1.66699 -67.334 5 -170.001c1.33301 -41.333 2 -75.666 2 -102.999zM226.001 277c0 -106.667 -1.33301 -178.33 -4 -214.997c-6 -78.667 -18 -118 -36 -118c-11.333 0 -18.5 13.667 -21.5 41
s-4.5 67.666 -4.5 120.999c0 20.667 0.833008 56.5 2.5 107.5s2.5 82.833 2.5 95.5v32c0 24.667 2.5 43.167 7.5 55.5s16.5 18.5 34.5 18.5c8.66699 0 14.667 -4.83301 18 -14.5s5 -22.5 5 -38.5c0 -8.66699 -0.666992 -24.834 -2 -48.501s-2 -35.834 -2 -36.501z" />
    <glyph glyph-name="section" unicode="&#xa7;" horiz-adv-x="454" 
d="M403 213c0 -48 -14.3281 -83.334 -42.9951 -106.001c-12 -9.33301 -34.667 -19.333 -68 -30c-14 -4.66699 -29 -7 -45 -7c-16.667 0 -35.667 3.33301 -57 10l32 -32c22.667 -24 41.167 -44.333 55.5 -61l42.5 -50c12 -16.667 18 -37 18 -61
c0 -39.333 -17.667 -69 -53 -89c-25.333 -14 -51 -21 -77 -21c-38 0 -69.333 10.333 -94 31c-20.667 17.333 -31 35 -31 53c0 6.66699 1.66699 13.334 5 20.001s8.66602 10 15.999 10c8.66699 0 18.334 -5 29.001 -15c22.667 -20 35.667 -31 39 -33
c11.333 -6.66699 22.666 -10 33.999 -10c20.667 0 37 3.33301 49 10c15.333 8.66699 23 22.667 23 42c0 12 -5 27.333 -15 46s-23.667 37.334 -41 56.001c-14.667 16 -38.334 39.667 -71.001 71l-47 45c-23.333 23.333 -41.333 48 -54 74c-14.667 30 -22 60.667 -22 92
c0 61.333 20 105.666 60 132.999c25.333 17.333 54 26 86 26c10.667 0 19.5 -3.16699 26.5 -9.5s10.5 -13.5 10.5 -21.5c0 -14.667 -3.83301 -24 -11.5 -28s-19.5 -6 -35.5 -6c-20.667 0 -39.167 -10 -55.5 -30s-24.5 -45.333 -24.5 -76c0 -34.667 18.667 -70.667 56 -108
c10.667 -6 24.667 -10.5 42 -13.5s33.333 -4.5 48 -4.5c31.333 0 58 9.33301 80 28s33 40.667 33 66c0 51.333 -22 103.333 -66 156c-12.667 15.333 -38.334 42 -77.001 80l-52 49c-31.333 32 -47 69 -47 111c0 22.667 8 41.667 24 57c21.333 20.667 53.666 31 96.999 31
c22 0 48.667 -6.66699 80 -20c37.333 -16 56 -32.667 56 -50c0 -6 -1.5 -12 -4.5 -18s-6.5 -9 -10.5 -9c-11.333 0 -28.333 8.33301 -51 25s-50.667 25 -84 25c-12.667 0 -24.167 -4.5 -34.5 -13.5s-15.5 -20.5 -15.5 -34.5c0 -20.667 23.333 -54.667 70 -102
c40.667 -41.333 71.667 -74.333 93 -99c31.333 -35.333 53.666 -71.333 66.999 -108c10 -26.667 15 -53.667 15 -81z" />
    <glyph glyph-name="dieresis" unicode="&#xa8;" horiz-adv-x="597" 
d="M453 832c0 -15.333 -5 -27.001 -15 -35.001s-21.333 -12 -34 -12c-10 0 -20.167 4 -30.5 12s-15.5 17.333 -15.5 28c0 11.333 4.5 20.833 13.5 28.5s19.833 11.5 32.5 11.5c12 0 23.167 -3.16699 33.5 -9.5s15.5 -14.166 15.5 -23.499zM272 827.999
c0 -11.333 -4.5 -20.166 -13.5 -26.499s-19.833 -9.5 -32.5 -9.5c-13.333 0 -25 3.66699 -35 11s-15 17 -15 29c0 11.333 5 20.166 15 26.499s21.667 9.5 35 9.5c12.667 0 23.5 -3.83301 32.5 -11.5s13.5 -17.167 13.5 -28.5zM694 640.999
c0 -4 -12.668 -5.99805 -38.001 -5.99805c-24 0 -52 0.666992 -84 2s-58 2.66602 -78 3.99902c-66 0 -136.667 -8 -212 -24c-60 -12.667 -107 -26.667 -141 -42c0 -4.66699 -0.833008 -16.167 -2.5 -34.5s-2.5 -31.166 -2.5 -38.499v-102
c26.667 5.33301 98.334 16.166 215.001 32.499s185 24.5 205 24.5c3.33301 0 8 -0.833008 14 -2.5s9 -3.5 9 -5.5c0 -14.667 -35.333 -30 -106 -46c-32.667 -7.33301 -72 -15 -118 -23l-226 -43l-20 -252c14 4 41.833 7.16699 83.5 9.5s88.834 3.5 141.501 3.5
c46 0 89.833 -3 131.5 -9s62.5 -14 62.5 -24c0 -10.667 -25.333 -16.334 -76 -17.001s-87.667 -1 -111 -1c-46.667 0 -88 -4.33301 -124 -13c-6 -1.33301 -30.667 -8.33301 -74 -21c-8.66699 -2.66699 -21.834 -8 -39.501 -16s-30.5 -12 -38.5 -12s-16 3.66699 -24 11
s-12 16.333 -12 27c0 8.66699 1.33301 15.667 4 21c5.33301 8 9.66602 15 12.999 21c6.66699 58.667 12 111.334 16 158.001s6 81 6 103c-8 0 -14.167 4.66699 -18.5 14s-6.5 19 -6.5 29c0 16.667 10.667 26 32 28c0.666992 4 1 9.66699 1 17
c0 5.33301 -0.333008 14.666 -1 27.999s-1 24 -1 32c0 23.333 -1.16699 47.333 -3.5 72s-4.16602 46.667 -5.49902 66c0 22 13.333 33 40 33c10.667 0 19.5 -0.5 26.5 -1.5s12.167 -3.16699 15.5 -6.5c50.667 12 94.667 22 132 30c74.667 16 128.667 24 162 24
c49.333 0 97.333 -3 144 -9c72.667 -9.33301 109 -23 109 -41z" />
    <glyph glyph-name="dieresis" unicode="&#x401;" horiz-adv-x="597" 
d="M453 832c0 -15.333 -5 -27.001 -15 -35.001s-21.333 -12 -34 -12c-10 0 -20.167 4 -30.5 12s-15.5 17.333 -15.5 28c0 11.333 4.5 20.833 13.5 28.5s19.833 11.5 32.5 11.5c12 0 23.167 -3.16699 33.5 -9.5s15.5 -14.166 15.5 -23.499zM272 827.999
c0 -11.333 -4.5 -20.166 -13.5 -26.499s-19.833 -9.5 -32.5 -9.5c-13.333 0 -25 3.66699 -35 11s-15 17 -15 29c0 11.333 5 20.166 15 26.499s21.667 9.5 35 9.5c12.667 0 23.5 -3.83301 32.5 -11.5s13.5 -17.167 13.5 -28.5zM694 640.999
c0 -4 -12.668 -5.99805 -38.001 -5.99805c-24 0 -52 0.666992 -84 2s-58 2.66602 -78 3.99902c-66 0 -136.667 -8 -212 -24c-60 -12.667 -107 -26.667 -141 -42c0 -4.66699 -0.833008 -16.167 -2.5 -34.5s-2.5 -31.166 -2.5 -38.499v-102
c26.667 5.33301 98.334 16.166 215.001 32.499s185 24.5 205 24.5c3.33301 0 8 -0.833008 14 -2.5s9 -3.5 9 -5.5c0 -14.667 -35.333 -30 -106 -46c-32.667 -7.33301 -72 -15 -118 -23l-226 -43l-20 -252c14 4 41.833 7.16699 83.5 9.5s88.834 3.5 141.501 3.5
c46 0 89.833 -3 131.5 -9s62.5 -14 62.5 -24c0 -10.667 -25.333 -16.334 -76 -17.001s-87.667 -1 -111 -1c-46.667 0 -88 -4.33301 -124 -13c-6 -1.33301 -30.667 -8.33301 -74 -21c-8.66699 -2.66699 -21.834 -8 -39.501 -16s-30.5 -12 -38.5 -12s-16 3.66699 -24 11
s-12 16.333 -12 27c0 8.66699 1.33301 15.667 4 21c5.33301 8 9.66602 15 12.999 21c6.66699 58.667 12 111.334 16 158.001s6 81 6 103c-8 0 -14.167 4.66699 -18.5 14s-6.5 19 -6.5 29c0 16.667 10.667 26 32 28c0.666992 4 1 9.66699 1 17
c0 5.33301 -0.333008 14.666 -1 27.999s-1 24 -1 32c0 23.333 -1.16699 47.333 -3.5 72s-4.16602 46.667 -5.49902 66c0 22 13.333 33 40 33c10.667 0 19.5 -0.5 26.5 -1.5s12.167 -3.16699 15.5 -6.5c50.667 12 94.667 22 132 30c74.667 16 128.667 24 162 24
c49.333 0 97.333 -3 144 -9c72.667 -9.33301 109 -23 109 -41z" />
    <glyph glyph-name="copyright" unicode="&#xa9;" horiz-adv-x="710" 
d="M631 465c0 -59.333 -3.5 -102.999 -10.5 -130.999s-21.5 -60.167 -43.5 -96.5s-57 -63.5 -105 -81.5c-42.667 -16 -94.667 -24 -156 -24c-78 0 -136.667 29 -176 87c-33.333 49.333 -50 111.666 -50 186.999c0 46 5 85.5 15 118.5s25.333 62.167 46 87.5
c25.333 30.667 53.333 53.834 84 69.501s65.667 23.5 105 23.5c76 0 141.333 -19.333 196 -58c63.333 -44.667 95 -105.334 95 -182.001zM579 420.001c0 40 -6.66992 76.3311 -20.0029 108.998s-33.666 58.667 -60.999 78c-20 14 -42.667 23.833 -68 29.5
s-57.666 8.5 -96.999 8.5c-55.333 0 -100.5 -22.667 -135.5 -68s-52.5 -97.333 -52.5 -156c0 -77.333 15.333 -136.166 46 -176.499s72.334 -60.5 125.001 -60.5c82 0 145.667 19 191 57c48 40.667 72 100.334 72 179.001zM491.997 322.999
c0 -15.333 -12.335 -28.665 -37.002 -39.998s-49 -17 -73 -17c-40 0 -73 9 -99 27c-29.333 20 -44 48.333 -44 85c-0.666992 5.33301 -1.16699 11 -1.5 17s-0.5 10.667 -0.5 14c0 40 11 73.333 33 100s49 41.667 81 45c6.66699 1.33301 12.334 2 17.001 2
c19.333 0 36.666 -4.83301 51.999 -14.5s23 -22.834 23 -39.501c1.33301 -8.66699 -0.666992 -13.834 -6 -15.501s-12 -2.5 -20 -2.5c-6 0 -12.333 2 -19 6c-16 9.33301 -28 14 -36 14c-27.333 0 -46.666 -12 -57.999 -36c-8 -17.333 -12 -42 -12 -74
c0 -22 8.5 -40.5 25.5 -55.5s36.5 -22.5 58.5 -22.5c10.667 0 26.334 4.16699 47.001 12.5s34.667 12.5 42 12.5c18 0 27 -6 27 -18z" />
    <glyph glyph-name="ordfeminine" unicode="&#xaa;" horiz-adv-x="478" 
d="M442 336c0 -18 -7.33203 -28.998 -21.999 -32.998c-6.66699 -2 -24.667 -3 -54 -3c-10 -1.33301 -18.667 -2 -26 -2h-16c-7.33301 0 -20.333 0.333008 -39 1s-33 1 -43 1c-56.667 0 -96.667 1.33301 -120 4s-34 9.66699 -32 21s7 18.666 15 21.999
s19.833 5.83301 35.5 7.5s30 3 43 4s32.167 1.5 57.5 1.5c61.333 0 110.166 -1.33301 146.499 -4s54.5 -9.33398 54.5 -20.001zM500.001 527.002c0 -15.333 -1.33301 -25.6689 -4 -31.002s-10 -8 -22 -8c-24.667 30 -55 56 -91 78c-40.667 25.333 -90.667 38 -150 38
c-41.333 0 -75.833 -21.667 -103.5 -65s-41.5 -101 -41.5 -173c0 -85.333 13.667 -158 41 -218c32.667 -72 80 -108 142 -108c11.333 0 26.5 2.33301 45.5 7s33.833 10 44.5 16c1.33301 0.666992 11 7.33398 29 20.001c10.667 7.33301 19 11 25 11c12.667 0 19 -8 19 -24
c0 -5.33301 -1.66699 -11.333 -5 -18c-10.667 -20 -38 -36 -82 -48c-34 -9.33301 -61.333 -14 -82 -14c-66 0 -119.333 25.667 -160 77c-31.333 40 -54.333 94.333 -69 163c-10 47.333 -15 94 -15 140c0 55.333 16 114.333 48 177c40.667 79.333 92.667 119 156 119
c68.667 0 133.667 -19 195 -57c53.333 -33.333 80 -60.666 80 -81.999z" />
    <glyph glyph-name="ordfeminine" unicode="&#x404;" horiz-adv-x="478" 
d="M442 336c0 -18 -7.33203 -28.998 -21.999 -32.998c-6.66699 -2 -24.667 -3 -54 -3c-10 -1.33301 -18.667 -2 -26 -2h-16c-7.33301 0 -20.333 0.333008 -39 1s-33 1 -43 1c-56.667 0 -96.667 1.33301 -120 4s-34 9.66699 -32 21s7 18.666 15 21.999
s19.833 5.83301 35.5 7.5s30 3 43 4s32.167 1.5 57.5 1.5c61.333 0 110.166 -1.33301 146.499 -4s54.5 -9.33398 54.5 -20.001zM500.001 527.002c0 -15.333 -1.33301 -25.6689 -4 -31.002s-10 -8 -22 -8c-24.667 30 -55 56 -91 78c-40.667 25.333 -90.667 38 -150 38
c-41.333 0 -75.833 -21.667 -103.5 -65s-41.5 -101 -41.5 -173c0 -85.333 13.667 -158 41 -218c32.667 -72 80 -108 142 -108c11.333 0 26.5 2.33301 45.5 7s33.833 10 44.5 16c1.33301 0.666992 11 7.33398 29 20.001c10.667 7.33301 19 11 25 11c12.667 0 19 -8 19 -24
c0 -5.33301 -1.66699 -11.333 -5 -18c-10.667 -20 -38 -36 -82 -48c-34 -9.33301 -61.333 -14 -82 -14c-66 0 -119.333 25.667 -160 77c-31.333 40 -54.333 94.333 -69 163c-10 47.333 -15 94 -15 140c0 55.333 16 114.333 48 177c40.667 79.333 92.667 119 156 119
c68.667 0 133.667 -19 195 -57c53.333 -33.333 80 -60.666 80 -81.999z" />
    <glyph glyph-name="guillemotleft" unicode="&#xab;" horiz-adv-x="835" 
d="M715 32c0 -5.33301 -1.49902 -10.502 -4.49902 -15.502s-6.5 -7.5 -10.5 -7.5c-8 0 -38.333 16.667 -91 50c-48.667 30.667 -101.334 61.334 -158.001 92.001c-20 9.33301 -35.667 17 -47 23c-26.667 14.667 -40 26 -40 34c0 10.667 20 34.334 60 71.001l60 54l73 73
c26 25.333 46.667 38 62 38c8 0 15.333 -1.33301 22 -4s10 -7.33398 10 -14.001c0 -7.33301 -16.167 -27.833 -48.5 -61.5s-79.833 -79.5 -142.5 -137.5c7.33301 -10.667 24 -24 50 -40l46 -27c62.667 -40.667 98 -64 106 -70c35.333 -25.333 53 -44.666 53 -57.999z
M461.001 434.998c-1.33301 -13.333 -21.3301 -32.001 -59.9971 -56.001l-106 -65c-22 -14.667 -42 -29.667 -60 -45l-56 -48c25.333 -28.667 39.666 -45 42.999 -49c18.667 -19.333 40.667 -38 66 -56c8 -6 44.333 -27.333 109 -64c34 -19.333 51 -38 51 -56
c0 -4.66699 -1.5 -8.5 -4.5 -11.5s-9.5 -4.5 -19.5 -4.5h-13c-14 0 -41 11.667 -81 35c-34.667 20 -65 40.333 -91 61c-40 30.667 -72 59.5 -96 86.5s-37.333 49.833 -40 68.5c-0.666992 6 20.666 26.333 63.999 61c33.333 26.667 61.666 48 84.999 64l114 80
c32 21.333 50.667 32 56 32c6.66699 0 15.167 -4.16699 25.5 -12.5s14.833 -15.166 13.5 -20.499z" />
    <glyph glyph-name="logicalnot" unicode="&#xac;" horiz-adv-x="722" 
d="M594 265l-0.00195312 -60.999c-3.33301 -32.667 -18.666 -49 -45.999 -49c-16.667 0 -26.167 5.66699 -28.5 17s-3.5 23.666 -3.5 36.999v23c0 6 -0.333008 10 -1 12h-284h-18c-30 0 -51.667 1.66699 -65 5c-22 5.33301 -32 16.333 -30 33c0 10.667 28 18 84 22
s119.333 6 190 6c20 0 46.333 -0.333008 79 -1s57.667 -1 75 -1c14.667 0 26.334 -3.33301 35.001 -10s13 -17.667 13 -33z" />
    <glyph glyph-name="minus" unicode="&#xad;" horiz-adv-x="670" 
d="M556 229c-2.66699 -12 -10.501 -19.999 -23.501 -23.999s-33.833 -6 -62.5 -6h-37c-12.667 0 -25.667 0.333008 -39 1h-12h-35h-24h-17h-13h-33.5c-11.667 0 -23.5 0.333008 -35.5 1h-13h-17c-26 0 -44 1.66699 -54 5c-16.667 5.33301 -24 16.333 -22 33
c0 10.667 28 18 84 22s119.333 6 190 6c22.667 0 43.834 -0.833008 63.501 -2.5s35.5 -2.5 47.5 -2.5c16.667 0 30.167 -2.33301 40.5 -7s14.5 -13.334 12.5 -26.001z" />
    <glyph glyph-name="registered" unicode="&#xae;" horiz-adv-x="681" 
d="M627 459c0 -54 -7.33203 -98.998 -21.999 -134.998c-5.33301 -13.333 -22.333 -43.333 -51 -90c-22.667 -38 -57.667 -66.667 -105 -86c-43.333 -17.333 -95 -26 -155 -26c-76.667 0 -133.667 31.333 -171 94c-29.333 49.333 -44 113.666 -44 192.999
c0 46 5.16699 84.833 15.5 116.5s26.166 60.5 47.499 86.5c49.333 58.667 113 88 191 88c76 0 142 -19.667 198 -59c64 -44.667 96 -105.334 96 -182.001zM564.001 432.002c0 40 -5.66602 74.333 -16.999 103s-30.333 52.667 -57 72c-20 14 -43.333 23.833 -70 29.5
s-58.334 8.5 -95.001 8.5c-58.667 0 -105.667 -23.333 -141 -70c-32 -42 -48 -93.333 -48 -154c0 -80 13.5 -141.167 40.5 -183.5s66.167 -63.5 117.5 -63.5c83.333 0 148.333 20.333 195 61c50 44 75 109.667 75 197zM455.002 268.002
c0 -9.33301 -2.33398 -16.335 -7.00098 -21.002s-12.334 -7 -23.001 -7c-32 0 -62.333 16 -91 48c-7.33301 10 -16.333 24.333 -27 43l-23 42c0 -14 1.33301 -30.833 4 -50.5s3.5 -32 2.5 -37s-0.5 -11.167 1.5 -18.5s3 -12 3 -14c0 -4 -1 -7.5 -3 -10.5
s-8.66699 -4.5 -20 -4.5c-14 0 -24.5 8.5 -31.5 25.5s-10.5 55.167 -10.5 114.5c-2 11.333 -3 23.333 -3 36c0 15.333 0.666992 29.333 2 42s5 37.334 11 74.001c2 14.667 14.667 23.167 38 25.5s45 3.5 65 3.5c37.333 0 64.333 -9.66699 81 -29
c13.333 -15.333 20 -35 20 -59c0 -18.667 -5.83301 -34.167 -17.5 -46.5s-26.167 -19.5 -43.5 -21.5c-12.667 -2.66699 -22 -4.5 -28 -5.5s-14.333 -1.5 -25 -1.5c22.667 -38 43.334 -67.333 62.001 -88c6.66699 -6.66699 22.334 -16.667 47.001 -30
c10.667 -5.33301 16 -8.66602 16 -9.99902zM387.001 475c0 16 -5.00195 26.668 -15.002 32.001s-23.667 8 -41 8c-5.33301 0 -12.666 -0.333008 -21.999 -1s-15.666 -1 -18.999 -1v-71h17c33.333 0 55 2.66699 65 8s15 13.666 15 24.999z" />
    <glyph glyph-name="macron" unicode="&#xaf;" horiz-adv-x="297" 
d="M313 782c0 -10.667 -1.00098 -17.333 -3.00098 -20c-4.66699 -6 -15 -9 -31 -9c-12.667 0 -26 9.83301 -40 29.5s-21 36.5 -21 50.5c0 8.66699 2.33301 16.5 7 23.5s12.334 10.5 23.001 10.5c16 0 30.833 -10 44.5 -30s20.5 -38.333 20.5 -55zM134.999 774.001
c0 -10.667 -1.00098 -17.333 -3.00098 -20c-4.66699 -6 -15 -9 -31 -9c-12.667 0 -26 9.83301 -40 29.5s-21 36.5 -21 50.5c0 8.66699 2.33301 16.5 7 23.5s12.334 10.5 23.001 10.5c16 0 30.833 -10 44.5 -30s20.5 -38.333 20.5 -55zM223.998 678.002
c0 -10.667 -5 -46.332 -15 -106.999l-18 -105l-26 -145c-8.66699 -48 -13 -78 -13 -90c0 -26.667 -0.666992 -56.834 -2 -90.501s-2.33301 -64.5 -3 -92.5c0 -26 -4.33301 -39 -13 -39c-12 0 -23.5 25.333 -34.5 76s-16.5 99.334 -16.5 146.001
c0 13.333 6.33301 54.333 19 123l21 112c4 21.333 10.333 58.666 19 111.999l10 64c6 41.333 22.667 62 50 62c5.33301 0 10.333 -2.66699 15 -8s7 -11.333 7 -18z" />
    <glyph glyph-name="macron" unicode="&#x407;" horiz-adv-x="297" 
d="M313 782c0 -10.667 -1.00098 -17.333 -3.00098 -20c-4.66699 -6 -15 -9 -31 -9c-12.667 0 -26 9.83301 -40 29.5s-21 36.5 -21 50.5c0 8.66699 2.33301 16.5 7 23.5s12.334 10.5 23.001 10.5c16 0 30.833 -10 44.5 -30s20.5 -38.333 20.5 -55zM134.999 774.001
c0 -10.667 -1.00098 -17.333 -3.00098 -20c-4.66699 -6 -15 -9 -31 -9c-12.667 0 -26 9.83301 -40 29.5s-21 36.5 -21 50.5c0 8.66699 2.33301 16.5 7 23.5s12.334 10.5 23.001 10.5c16 0 30.833 -10 44.5 -30s20.5 -38.333 20.5 -55zM223.998 678.002
c0 -10.667 -5 -46.332 -15 -106.999l-18 -105l-26 -145c-8.66699 -48 -13 -78 -13 -90c0 -26.667 -0.666992 -56.834 -2 -90.501s-2.33301 -64.5 -3 -92.5c0 -26 -4.33301 -39 -13 -39c-12 0 -23.5 25.333 -34.5 76s-16.5 99.334 -16.5 146.001
c0 13.333 6.33301 54.333 19 123l21 112c4 21.333 10.333 58.666 19 111.999l10 64c6 41.333 22.667 62 50 62c5.33301 0 10.333 -2.66699 15 -8s7 -11.333 7 -18z" />
    <glyph glyph-name="degree" unicode="&#xb0;" horiz-adv-x="449" 
d="M372 746c0 -38.667 -11.166 -68.001 -33.499 -88.001s-51.166 -30 -86.499 -30c-50.667 0 -88 13.667 -112 41c-21.333 24.667 -32 60.334 -32 107.001c0 35.333 13.167 62.833 39.5 82.5s58.166 29.5 95.499 29.5s68.166 -13.167 92.499 -39.5s36.5 -60.5 36.5 -102.5z
M312.001 765.999c0 17.333 -5.66797 31.1689 -17.001 41.502s-23.666 16.666 -36.999 18.999s-22 3.5 -26 3.5c-19.333 0 -36 -4.83301 -50 -14.5s-21 -22.834 -21 -39.501c0 -28.667 7.66699 -51.334 23 -68.001s34 -25 56 -25c26 0 45.333 10 58 30
c9.33301 14.667 14 32.334 14 53.001z" />
    <glyph glyph-name="plusminus" unicode="&#xb1;" horiz-adv-x="695" 
d="M589 299c0 -11.333 -4.66895 -18.667 -14.002 -22s-22 -5 -38 -5c-21.333 0 -50 2 -86 6c-4.66699 0.666992 -10 1 -16 1h-14c-9.33301 0 -18.666 -0.166992 -27.999 -0.5s-18.666 -0.5 -27.999 -0.5c-0.666992 -5.33301 -1.16699 -11 -1.5 -17s-0.5 -10.333 -0.5 -13
c0 -6 0.166992 -11.333 0.5 -16s2.16602 -19.334 5.49902 -44.001c0 -14 1.66699 -28.333 5 -43c8 -34.667 12 -52.334 12 -53.001c0 -22 -10 -33 -30 -33c-9.33301 0 -19 10.833 -29 32.5s-17.333 48.834 -22 81.501c-7.33301 50 -11 85 -11 105
c-22.667 0 -46.667 0.333008 -72 1l-75 2c-20 0 -32.333 0.333008 -37 1c-19.333 2.66699 -29 11.667 -29 27c0 6 1.83301 12.167 5.5 18.5s8.5 9.5 14.5 9.5l65 2l139 3l8.5 44c3 15.333 4.5 32.333 4.5 51c0 8 -0.166992 15.167 -0.5 21.5s-0.5 11.833 -0.5 16.5
c0 16 0.833008 28.5 2.5 37.5s8.83398 13.5 21.501 13.5c15.333 0 26.5 -4.16699 33.5 -12.5s10.5 -26.833 10.5 -55.5c0 -14 -0.833008 -32.167 -2.5 -54.5s-4.5 -43.166 -8.5 -62.499l153 -3c19.333 0 34.5 -3 45.5 -9s16.5 -16 16.5 -30zM632.998 -2.00098
c0 -13.333 -6.99902 -22.666 -20.999 -27.999c-9.33301 -3.33301 -23.333 -5 -42 -5c-42.667 2 -82.167 3.66699 -118.5 5s-70.5 2 -102.5 2c-34 0 -69 -1.16699 -105 -3.5s-73.667 -5.16602 -113 -8.49902c-15.333 0 -25 2 -29 6s-6 14.667 -6 32
c0 13.333 10.167 21.166 30.5 23.499s41.5 3.5 63.5 3.5h407c13.333 0 22.666 -1.33301 27.999 -4s8 -10.334 8 -23.001z" />
    <glyph glyph-name="twosuperior" unicode="&#xb2;" horiz-adv-x="297" 
d="M224 678c0 -10.667 -5 -46.332 -15 -106.999l-18 -105l-26 -145c-8.66699 -48 -13 -78 -13 -90c0 -26.667 -0.666992 -56.834 -2 -90.501s-2.33301 -64.5 -3 -92.5c0 -26 -4.33301 -39 -13 -39c-12 0 -23.5 25.333 -34.5 76s-16.5 99.334 -16.5 146.001
c0 13.333 6.33301 54.333 19 123l21 112c4 21.333 10.333 58.666 19 111.999l10 64c6 41.333 22.667 62 50 62c5.33301 0 10.333 -2.66699 15 -8s7 -11.333 7 -18z" />
    <glyph glyph-name="twosuperior" unicode="&#x406;" horiz-adv-x="297" 
d="M224 678c0 -10.667 -5 -46.332 -15 -106.999l-18 -105l-26 -145c-8.66699 -48 -13 -78 -13 -90c0 -26.667 -0.666992 -56.834 -2 -90.501s-2.33301 -64.5 -3 -92.5c0 -26 -4.33301 -39 -13 -39c-12 0 -23.5 25.333 -34.5 76s-16.5 99.334 -16.5 146.001
c0 13.333 6.33301 54.333 19 123l21 112c4 21.333 10.333 58.666 19 111.999l10 64c6 41.333 22.667 62 50 62c5.33301 0 10.333 -2.66699 15 -8s7 -11.333 7 -18z" />
    <glyph glyph-name="threesuperior" unicode="&#xb3;" horiz-adv-x="389" 
d="M117 596c0 -10.667 -1.00098 -17.333 -3.00098 -20c-4.66699 -6 -15 -9 -31 -9c-12.667 0 -26 9.83301 -40 29.5s-21 36.5 -21 50.5c0 8.66699 2.33301 16.5 7 23.5s12.334 10.5 23.001 10.5c16 0 30.833 -10 44.5 -30s20.5 -38.333 20.5 -55zM441.999 154.001
c0 -20 -31.668 -49.668 -95.001 -89.001c-69.333 -42.667 -130.666 -64 -183.999 -64c-22.667 2.66699 -45.334 5.66699 -68.001 9c-20.667 4 -34 10.333 -40 19c-9.33301 12.667 -16 24.667 -20 36c-6 16.667 -9 38.334 -9 65.001v75c0 26 0.333008 53 1 81
c0 18 -0.333008 29 -1 33c0 16 1.83301 29.5 5.5 40.5s11.5 16.5 23.5 16.5s20.833 -4.33301 26.5 -13s8.5 -27 8.5 -55c0 -10.667 -0.333008 -35.5 -1 -74.5s-1 -66.833 -1 -83.5c0 -36.667 3 -59.667 9 -69c10 -16 34 -24 72 -24c44.667 0 89.334 11.333 134.001 34
l114 77h15c6.66699 -1.33301 10 -6 10 -14z" />
    <glyph glyph-name="threesuperior" unicode="&#x456;" horiz-adv-x="389" 
d="M117 596c0 -10.667 -1.00098 -17.333 -3.00098 -20c-4.66699 -6 -15 -9 -31 -9c-12.667 0 -26 9.83301 -40 29.5s-21 36.5 -21 50.5c0 8.66699 2.33301 16.5 7 23.5s12.334 10.5 23.001 10.5c16 0 30.833 -10 44.5 -30s20.5 -38.333 20.5 -55zM441.999 154.001
c0 -20 -31.668 -49.668 -95.001 -89.001c-69.333 -42.667 -130.666 -64 -183.999 -64c-22.667 2.66699 -45.334 5.66699 -68.001 9c-20.667 4 -34 10.333 -40 19c-9.33301 12.667 -16 24.667 -20 36c-6 16.667 -9 38.334 -9 65.001v75c0 26 0.333008 53 1 81
c0 18 -0.333008 29 -1 33c0 16 1.83301 29.5 5.5 40.5s11.5 16.5 23.5 16.5s20.833 -4.33301 26.5 -13s8.5 -27 8.5 -55c0 -10.667 -0.333008 -35.5 -1 -74.5s-1 -66.833 -1 -83.5c0 -36.667 3 -59.667 9 -69c10 -16 34 -24 72 -24c44.667 0 89.334 11.333 134.001 34
l114 77h15c6.66699 -1.33301 10 -6 10 -14z" />
    <glyph glyph-name="acute" unicode="&#xb4;" horiz-adv-x="326" 
d="M312 342c0 -21.333 -12.334 -39.0049 -37.001 -53.0049s-57.667 -21 -99 -21c-20.667 0 -38.667 0.833008 -54 2.5s-32 4.83398 -50 9.50098c4 -22.667 7.5 -57.167 10.5 -103.5s4.5 -80.166 4.5 -101.499v-19.5c0 -6.33301 0.333008 -12.5 1 -18.5
c0 -14 -1.66699 -24.167 -5 -30.5s-10 -9.5 -20 -9.5c-12.667 0 -21.5 3.16699 -26.5 9.5s-7.5 15.5 -7.5 27.5c0.666992 4.66699 1 8.33398 1 11.001c0.666992 6 1.16699 11.833 1.5 17.5s0.5 13.5 0.5 23.5c0 36.667 -2.66699 77 -8 121
c-2.66699 22.667 -6.83398 43.834 -12.501 63.501s-8.5 31.834 -8.5 36.501c0 8 2.5 14.833 7.5 20.5s11.5 8.5 19.5 8.5s28.333 -3 61 -9s56.334 -9 71.001 -9c25.333 0 43.333 1.16699 54 3.5s20.334 7.5 29.001 15.5s13 20.333 13 37c0 4.66699 -0.166992 10 -0.5 16
s-0.833008 13 -1.5 21c0 15.333 5.33301 23 16 23c16.667 0 28 -9.33301 34 -28c4 -12.667 6 -34 6 -64z" />
    <glyph glyph-name="acute" unicode="&#x491;" horiz-adv-x="326" 
d="M312 342c0 -21.333 -12.334 -39.0049 -37.001 -53.0049s-57.667 -21 -99 -21c-20.667 0 -38.667 0.833008 -54 2.5s-32 4.83398 -50 9.50098c4 -22.667 7.5 -57.167 10.5 -103.5s4.5 -80.166 4.5 -101.499v-19.5c0 -6.33301 0.333008 -12.5 1 -18.5
c0 -14 -1.66699 -24.167 -5 -30.5s-10 -9.5 -20 -9.5c-12.667 0 -21.5 3.16699 -26.5 9.5s-7.5 15.5 -7.5 27.5c0.666992 4.66699 1 8.33398 1 11.001c0.666992 6 1.16699 11.833 1.5 17.5s0.5 13.5 0.5 23.5c0 36.667 -2.66699 77 -8 121
c-2.66699 22.667 -6.83398 43.834 -12.501 63.501s-8.5 31.834 -8.5 36.501c0 8 2.5 14.833 7.5 20.5s11.5 8.5 19.5 8.5s28.333 -3 61 -9s56.334 -9 71.001 -9c25.333 0 43.333 1.16699 54 3.5s20.334 7.5 29.001 15.5s13 20.333 13 37c0 4.66699 -0.166992 10 -0.5 16
s-0.833008 13 -1.5 21c0 15.333 5.33301 23 16 23c16.667 0 28 -9.33301 34 -28c4 -12.667 6 -34 6 -64z" />
    <glyph glyph-name="paragraph" unicode="&#xb6;" horiz-adv-x="447" 
d="M372 697c0 -51.333 -0.332031 -93.665 -0.999023 -126.998c-2.66699 -134 -4 -206 -4 -216v-107c0 -76.667 -1.16699 -139.167 -3.5 -187.5s-7.5 -72.5 -15.5 -72.5c-26 0 -39 40.667 -39 122c0 134.667 -0.333008 252.667 -1 354s-1.33398 196.666 -2.00098 285.999
c0 38 1 63 3 75c4.66699 27.333 14 41 28 41c16 0 27 -4.33301 33 -13s9 -22.334 9 -41.001c0 -4 -1.16699 -20 -3.5 -48s-3.5 -50 -3.5 -66zM240.001 658.001l-5 -286v-284c0 -36 -2.33301 -61.5 -7 -76.5s-11 -22.5 -19 -22.5c-14 0 -22.833 6.66699 -26.5 20
s-5.5 37.333 -5.5 72v28v49v46v42v39v35v31v28v25v22v20v18v15v14v12c0 12 -0.166992 24.167 -0.5 36.5s-0.5 24.833 -0.5 37.5v11v195h-15c-23.333 0 -40.666 2 -51.999 6c-17.333 6 -26 17.333 -26 34c0 27.333 16.667 43.333 50 48c9.33301 1.33301 28.666 2 57.999 2
c32.667 0 49 -8 49 -24v-193z" />
    <glyph glyph-name="periodcentered" unicode="&#xb7;" horiz-adv-x="352" 
d="M227 307c-5.33301 -24 -20.333 -36 -45 -36c-26 0 -41.333 13 -46 39c0 13.333 4.33301 24.666 13 33.999s19.667 14 33 14s24.5 -5.16699 33.5 -15.5s12.833 -22.166 11.5 -35.499z" />
    <glyph glyph-name="periodcentered" unicode="&#x2219;" horiz-adv-x="352" 
d="M227 307c-5.33301 -24 -20.333 -36 -45 -36c-26 0 -41.333 13 -46 39c0 13.333 4.33301 24.666 13 33.999s19.667 14 33 14s24.5 -5.16699 33.5 -15.5s12.833 -22.166 11.5 -35.499z" />
    <glyph glyph-name="cedilla" unicode="&#xb8;" horiz-adv-x="485" 
d="M283 502c0 -15.333 -5 -27.001 -15 -35.001s-21.333 -12 -34 -12c-10 0 -20.167 4 -30.5 12s-15.5 17.333 -15.5 28c0 11.333 4.5 20.833 13.5 28.5s19.833 11.5 32.5 11.5c12 0 23.167 -3.16699 33.5 -9.5s15.5 -14.166 15.5 -23.499zM102 497.999
c0 -11.333 -4.5 -20.166 -13.5 -26.499s-19.833 -9.5 -32.5 -9.5c-13.333 0 -25 3.66699 -35 11s-15 17 -15 29c0 11.333 5 20.166 15 26.499s21.667 9.5 35 9.5c12.667 0 23.5 -3.83301 32.5 -11.5s13.5 -17.167 13.5 -28.5zM535 127.999
c0 -8 -16.6709 -23.3291 -50.0039 -45.9961s-66.666 -41.667 -99.999 -57s-68.166 -26.833 -104.499 -34.5s-70.5 -11.5 -102.5 -11.5c-39.333 0 -73.666 11 -102.999 33c-36.667 27.333 -55 66 -55 116c0 13.333 -0.166992 27.166 -0.5 41.499s-0.5 29.166 -0.5 44.499
c0 14 0.333008 27.5 1 40.5s2 24.833 4 35.5c4.66699 23.333 18 42.833 40 58.5s45.333 23.5 70 23.5c34 0 65.333 -8 94 -24c32.667 -18.667 49 -42.334 49 -71.001c0 -26.667 -9.33301 -48.334 -28 -65.001c-13.333 -12 -34 -22.667 -62 -32
c-20 -6 -38.5 -12.167 -55.5 -18.5l-54.5 -20.5c0 -25.333 8 -48 24 -68c20 -25.333 48 -38 84 -38c31.333 0 61.5 3.33301 90.5 10s61.833 16.667 98.5 30c26.667 10 57 24.333 91 43c28.667 16 43.334 24 44.001 24c11.333 0 18.5 -0.833008 21.5 -2.5s4.5 -5.5 4.5 -11.5
zM204.996 277.003c0 12.667 -7.50293 22.168 -22.5029 28.501s-34.167 9.5 -57.5 9.5c-7.33301 0 -16.166 -4.33301 -26.499 -13s-16.166 -16.834 -17.499 -24.501s-2.66602 -23 -3.99902 -46s-2 -36.5 -2 -40.5c11.333 2.66699 27.333 8 48 16s36.667 14.833 48 20.5
s19.833 13.167 25.5 22.5s8.5 18.333 8.5 27z" />
    <glyph glyph-name="cedilla" unicode="&#x451;" horiz-adv-x="485" 
d="M283 502c0 -15.333 -5 -27.001 -15 -35.001s-21.333 -12 -34 -12c-10 0 -20.167 4 -30.5 12s-15.5 17.333 -15.5 28c0 11.333 4.5 20.833 13.5 28.5s19.833 11.5 32.5 11.5c12 0 23.167 -3.16699 33.5 -9.5s15.5 -14.166 15.5 -23.499zM102 497.999
c0 -11.333 -4.5 -20.166 -13.5 -26.499s-19.833 -9.5 -32.5 -9.5c-13.333 0 -25 3.66699 -35 11s-15 17 -15 29c0 11.333 5 20.166 15 26.499s21.667 9.5 35 9.5c12.667 0 23.5 -3.83301 32.5 -11.5s13.5 -17.167 13.5 -28.5zM535 127.999
c0 -8 -16.6709 -23.3291 -50.0039 -45.9961s-66.666 -41.667 -99.999 -57s-68.166 -26.833 -104.499 -34.5s-70.5 -11.5 -102.5 -11.5c-39.333 0 -73.666 11 -102.999 33c-36.667 27.333 -55 66 -55 116c0 13.333 -0.166992 27.166 -0.5 41.499s-0.5 29.166 -0.5 44.499
c0 14 0.333008 27.5 1 40.5s2 24.833 4 35.5c4.66699 23.333 18 42.833 40 58.5s45.333 23.5 70 23.5c34 0 65.333 -8 94 -24c32.667 -18.667 49 -42.334 49 -71.001c0 -26.667 -9.33301 -48.334 -28 -65.001c-13.333 -12 -34 -22.667 -62 -32
c-20 -6 -38.5 -12.167 -55.5 -18.5l-54.5 -20.5c0 -25.333 8 -48 24 -68c20 -25.333 48 -38 84 -38c31.333 0 61.5 3.33301 90.5 10s61.833 16.667 98.5 30c26.667 10 57 24.333 91 43c28.667 16 43.334 24 44.001 24c11.333 0 18.5 -0.833008 21.5 -2.5s4.5 -5.5 4.5 -11.5
zM204.996 277.003c0 12.667 -7.50293 22.168 -22.5029 28.501s-34.167 9.5 -57.5 9.5c-7.33301 0 -16.166 -4.33301 -26.499 -13s-16.166 -16.834 -17.499 -24.501s-2.66602 -23 -3.99902 -46s-2 -36.5 -2 -40.5c11.333 2.66699 27.333 8 48 16s36.667 14.833 48 20.5
s19.833 13.167 25.5 22.5s8.5 18.333 8.5 27z" />
    <glyph glyph-name="onesuperior" unicode="&#xb9;" horiz-adv-x="815" 
d="M836 596c0 -38.667 -7.33203 -70.334 -21.999 -95.001c-20 -33.333 -50.667 -50 -92 -50c-30 0 -55.333 5 -76 15c-26 12.667 -39 30.334 -39 53.001c0 34 13.667 65.5 41 94.5s59.666 43.5 96.999 43.5c24 0 45.167 -5.33301 63.5 -16s27.5 -25.667 27.5 -45z
M821.001 370c0 -14 -6.33496 -22.333 -19.002 -25s-35.667 -4 -69 -4c-4.66699 0 -13 -0.333008 -25 -1s-21 -1 -27 -1c-17.333 0 -30.5 1.66699 -39.5 5s-13.5 10 -13.5 20c0 7.33301 9.83301 13.333 29.5 18s43.834 7 72.501 7h19c6.66699 0 13.667 0.333008 21 1
c16 0 28.333 -1.33301 37 -4s13.334 -8 14.001 -16zM591.999 629c-14 -36 -26.001 -71.0039 -36.001 -105.004s-15 -65.667 -15 -95c0 -45.333 -1.83301 -107.166 -5.5 -185.499s-5.5 -125.166 -5.5 -140.499c0 -24 -5.66699 -43.333 -17 -58s-26 -22 -44 -22
c-18.667 0 -49.334 22.333 -92.001 67c-16.667 17.333 -41.167 44.5 -73.5 81.5l-97.5 113.5l-59 71c0 -12.667 -5 -37 -15 -73l-20 -72l-22 -96c-8.66699 -32.667 -18 -49 -28 -49c-9.33301 0 -17.166 4.83301 -23.499 14.5s-8.16602 19.834 -5.49902 30.501
c20 80 38.333 189.667 55 329c-3.33301 14.667 -7 27.334 -11 38.001l-22 50c-8 26 -15 50.167 -21 72.5s-8.66699 37.833 -8 46.5c2 13.333 9.33301 20 22 20c4.66699 0 11 -3 19 -9s16.333 -14 25 -24c12.667 17.333 24.334 26 35.001 26c19.333 0 30.5 -19.5 33.5 -58.5
l8.5 -114.5c6 -20.667 18 -45.667 36 -75c27.333 -43.333 67.666 -95.666 120.999 -156.999c33.333 -38.667 59.833 -67.834 79.5 -87.501s37.834 -36.5 54.501 -50.5c2.66699 24 6 65 10 123c9.33301 132 14 199.333 14 202c4.66699 49.333 15.167 96.5 31.5 141.5
s33.833 67.5 52.5 67.5c7.33301 0 13.166 -1.33301 17.499 -4s6.5 -8.66699 6.5 -18zM782.998 569.996c0 11.333 -4.33203 20.333 -12.999 27s-17.334 10 -26.001 10c-13.333 0 -29 -9.5 -47 -28.5s-27 -31.5 -27 -37.5c0 -10 4.16699 -20.167 12.5 -30.5
s16.5 -15.5 24.5 -15.5c22 0 40.667 9 56 27c13.333 15.333 20 31.333 20 48z" />
    <glyph glyph-name="onesuperior" unicode="&#x2116;" horiz-adv-x="815" 
d="M836 596c0 -38.667 -7.33203 -70.334 -21.999 -95.001c-20 -33.333 -50.667 -50 -92 -50c-30 0 -55.333 5 -76 15c-26 12.667 -39 30.334 -39 53.001c0 34 13.667 65.5 41 94.5s59.666 43.5 96.999 43.5c24 0 45.167 -5.33301 63.5 -16s27.5 -25.667 27.5 -45z
M821.001 370c0 -14 -6.33496 -22.333 -19.002 -25s-35.667 -4 -69 -4c-4.66699 0 -13 -0.333008 -25 -1s-21 -1 -27 -1c-17.333 0 -30.5 1.66699 -39.5 5s-13.5 10 -13.5 20c0 7.33301 9.83301 13.333 29.5 18s43.834 7 72.501 7h19c6.66699 0 13.667 0.333008 21 1
c16 0 28.333 -1.33301 37 -4s13.334 -8 14.001 -16zM591.999 629c-14 -36 -26.001 -71.0039 -36.001 -105.004s-15 -65.667 -15 -95c0 -45.333 -1.83301 -107.166 -5.5 -185.499s-5.5 -125.166 -5.5 -140.499c0 -24 -5.66699 -43.333 -17 -58s-26 -22 -44 -22
c-18.667 0 -49.334 22.333 -92.001 67c-16.667 17.333 -41.167 44.5 -73.5 81.5l-97.5 113.5l-59 71c0 -12.667 -5 -37 -15 -73l-20 -72l-22 -96c-8.66699 -32.667 -18 -49 -28 -49c-9.33301 0 -17.166 4.83301 -23.499 14.5s-8.16602 19.834 -5.49902 30.501
c20 80 38.333 189.667 55 329c-3.33301 14.667 -7 27.334 -11 38.001l-22 50c-8 26 -15 50.167 -21 72.5s-8.66699 37.833 -8 46.5c2 13.333 9.33301 20 22 20c4.66699 0 11 -3 19 -9s16.333 -14 25 -24c12.667 17.333 24.334 26 35.001 26c19.333 0 30.5 -19.5 33.5 -58.5
l8.5 -114.5c6 -20.667 18 -45.667 36 -75c27.333 -43.333 67.666 -95.666 120.999 -156.999c33.333 -38.667 59.833 -67.834 79.5 -87.501s37.834 -36.5 54.501 -50.5c2.66699 24 6 65 10 123c9.33301 132 14 199.333 14 202c4.66699 49.333 15.167 96.5 31.5 141.5
s33.833 67.5 52.5 67.5c7.33301 0 13.166 -1.33301 17.499 -4s6.5 -8.66699 6.5 -18zM782.998 569.996c0 11.333 -4.33203 20.333 -12.999 27s-17.334 10 -26.001 10c-13.333 0 -29 -9.5 -47 -28.5s-27 -31.5 -27 -37.5c0 -10 4.16699 -20.167 12.5 -30.5
s16.5 -15.5 24.5 -15.5c22 0 40.667 9 56 27c13.333 15.333 20 31.333 20 48z" />
    <glyph glyph-name="ordmasculine" unicode="&#xba;" horiz-adv-x="435" 
d="M488 158c1.33301 -8 -10.5039 -19.667 -35.5039 -35s-48.5 -30.666 -70.5 -45.999c-44 -29.333 -88.5 -52.5 -133.5 -69.5s-84.5 -25.5 -118.5 -25.5c-35.333 0 -64.333 14.667 -87 44s-34 63.333 -34 102c0 45.333 8.33301 91.666 25 138.999c24 69.333 59 104 105 104
c24.667 0 46.334 -6 65.001 -18s28 -27.333 28 -46c0 -14 -5.33301 -21 -16 -21c-8.66699 0 -16.334 6 -23.001 18s-15.667 18 -27 18c-24.667 0 -44.834 -14.5 -60.501 -43.5s-25.5 -62.5 -29.5 -100.5l83 -3c36.667 0 63.834 -1.16699 81.501 -3.5
s26.5 -8.83301 26.5 -19.5c0 -14 -5.5 -23.167 -16.5 -27.5s-26.5 -6.5 -46.5 -6.5h-19c-17.333 0 -37.166 0.666992 -59.499 2s-39.166 2.66602 -50.499 3.99902c2.66699 -28 11.334 -48.667 26.001 -62s32.334 -20 53.001 -20c18.667 0 47.667 6.66699 87 20
s76.333 30 111 50c12 6.66699 39.333 23.334 82 50.001c17.333 10.667 29 16 35 16c8.66699 0 14 -1.33301 16 -4s3 -8 3 -16z" />
    <glyph glyph-name="ordmasculine" unicode="&#x454;" horiz-adv-x="435" 
d="M488 158c1.33301 -8 -10.5039 -19.667 -35.5039 -35s-48.5 -30.666 -70.5 -45.999c-44 -29.333 -88.5 -52.5 -133.5 -69.5s-84.5 -25.5 -118.5 -25.5c-35.333 0 -64.333 14.667 -87 44s-34 63.333 -34 102c0 45.333 8.33301 91.666 25 138.999c24 69.333 59 104 105 104
c24.667 0 46.334 -6 65.001 -18s28 -27.333 28 -46c0 -14 -5.33301 -21 -16 -21c-8.66699 0 -16.334 6 -23.001 18s-15.667 18 -27 18c-24.667 0 -44.834 -14.5 -60.501 -43.5s-25.5 -62.5 -29.5 -100.5l83 -3c36.667 0 63.834 -1.16699 81.501 -3.5
s26.5 -8.83301 26.5 -19.5c0 -14 -5.5 -23.167 -16.5 -27.5s-26.5 -6.5 -46.5 -6.5h-19c-17.333 0 -37.166 0.666992 -59.499 2s-39.166 2.66602 -50.499 3.99902c2.66699 -28 11.334 -48.667 26.001 -62s32.334 -20 53.001 -20c18.667 0 47.667 6.66699 87 20
s76.333 30 111 50c12 6.66699 39.333 23.334 82 50.001c17.333 10.667 29 16 35 16c8.66699 0 14 -1.33301 16 -4s3 -8 3 -16z" />
    <glyph glyph-name="guillemotright" unicode="&#xbb;" horiz-adv-x="707" 
d="M681 173c0 -8 -8.66895 -14.334 -26.002 -19.001c-28 -7.33301 -44.333 -12.333 -49 -15c-25.333 -12.667 -59.666 -34 -102.999 -64c-73.333 -50.667 -113.333 -76 -120 -76c-12.667 0 -19 6.33301 -19 19c0 8.66699 40.333 42.334 121 101.001
c44.667 32 75.667 55.667 93 71l-92 78c-19.333 17.333 -35 33.666 -47 48.999c-13.333 15.333 -27.333 35.333 -42 60c-22 36.667 -33 64.334 -33 83.001c0 14 10 21 30 21c8.66699 0 22.667 -13.333 42 -40c56.667 -78 86.667 -118.333 90 -121
c34.667 -27.333 63.334 -51 86.001 -71c46 -40.667 69 -66 69 -76zM447.998 206.999c-13.333 -24 -41.001 -49 -83.001 -75c-31.333 -19.333 -54 -34.666 -68 -45.999c-26.667 -22.667 -55.5 -45.667 -86.5 -69s-49.5 -35 -55.5 -35c-10 0 -15 5.33301 -15 16
c0 6.66699 38.333 43.667 115 111c44.667 38.667 76.667 69.667 96 93c-16 12 -32 24.667 -48 38c-12 10 -24.667 21.667 -38 35c-32 30 -57.333 58.333 -76 85c-22.667 32 -34 58 -34 78c0 7.33301 3.16699 12.666 9.5 15.999s13.833 5 22.5 5c14 0 34 -18.667 60 -56
c20.667 -30 43.334 -56 68.001 -78c28 -24.667 54.5 -45 79.5 -61s42.833 -35 53.5 -57z" />
    <glyph glyph-name="onequarter" unicode="&#xbc;" horiz-adv-x="451" 
d="M198 715c0 -14 -1.33203 -23.333 -3.99902 -28s-10 -7 -22 -7c-10 0 -25 10 -45 30c-22 22 -33 39 -33 51c0 10.667 4.16699 19.5 12.5 26.5s17.166 10.5 26.499 10.5c12 0 25.833 -10.667 41.5 -32s23.5 -38.333 23.5 -51zM499.001 143
c0 -4.66699 -14.3311 -13.834 -42.998 -27.501s-59.667 -26.5 -93 -38.5l-184 -75c0 -5.33301 -1.16699 -27.166 -3.5 -65.499s-3.5 -66.166 -3.5 -83.499v-66c0 -86.667 -6 -149 -18 -187c-19.333 -61.333 -56.333 -92 -111 -92c-33.333 0 -61.333 17.833 -84 53.5
s-34 76.5 -34 122.5c0 89.333 24 166 72 230c26 34.667 64 69.334 114 104.001c2 12 3.33301 44.167 4 96.5s2 87.5 4 105.5c-7.33301 -8.66699 -21.333 -24 -42 -46c-4.66699 -4.66699 -15 -15.667 -31 -33l-20.5 -22c-7 -7.33301 -14.167 -11 -21.5 -11
c-8 0 -15.333 2.16699 -22 6.5s-9.33398 10.166 -8.00098 17.499c0.666992 6 12.667 22 36 48c73.333 81.333 110.333 122.666 111 123.999c0 20.667 1.16699 46.167 3.5 76.5s3.5 47.833 3.5 52.5c-0.666992 7.33301 -1 12.666 -1 15.999
c0 18.667 3.33301 34.334 10 47.001s18 19 34 19c16.667 0 29.667 -5.83301 39 -17.5s14 -31.5 14 -59.5c0 -22 -1.83301 -41.333 -5.5 -58s-13.834 -40 -30.501 -70c0 -14 -1.33301 -55.667 -4 -125s-4 -112 -4 -128c11.333 6 36.166 16 74.499 30l92 33
c23 8 55.5 20.333 97.5 37c16.667 6.66699 26.334 10 29.001 10c9.33301 0 16 -1.5 20 -4.5s6 -9.5 6 -19.5zM111.003 -46c-34.667 -21.333 -62.333 -47.002 -83 -77.002c-32 -47.333 -48 -106 -48 -176c0 -25.333 7 -54.333 21 -87s28 -49 42 -49c20.667 0 37 26 49 78
c9.33301 40.667 14 82 14 124c0 28.667 0.5 59.834 1.5 93.501s2.16699 64.834 3.5 93.501z" />
    <glyph glyph-name="onequarter" unicode="&#x458;" horiz-adv-x="451" 
d="M198 715c0 -14 -1.33203 -23.333 -3.99902 -28s-10 -7 -22 -7c-10 0 -25 10 -45 30c-22 22 -33 39 -33 51c0 10.667 4.16699 19.5 12.5 26.5s17.166 10.5 26.499 10.5c12 0 25.833 -10.667 41.5 -32s23.5 -38.333 23.5 -51zM499.001 143
c0 -4.66699 -14.3311 -13.834 -42.998 -27.501s-59.667 -26.5 -93 -38.5l-184 -75c0 -5.33301 -1.16699 -27.166 -3.5 -65.499s-3.5 -66.166 -3.5 -83.499v-66c0 -86.667 -6 -149 -18 -187c-19.333 -61.333 -56.333 -92 -111 -92c-33.333 0 -61.333 17.833 -84 53.5
s-34 76.5 -34 122.5c0 89.333 24 166 72 230c26 34.667 64 69.334 114 104.001c2 12 3.33301 44.167 4 96.5s2 87.5 4 105.5c-7.33301 -8.66699 -21.333 -24 -42 -46c-4.66699 -4.66699 -15 -15.667 -31 -33l-20.5 -22c-7 -7.33301 -14.167 -11 -21.5 -11
c-8 0 -15.333 2.16699 -22 6.5s-9.33398 10.166 -8.00098 17.499c0.666992 6 12.667 22 36 48c73.333 81.333 110.333 122.666 111 123.999c0 20.667 1.16699 46.167 3.5 76.5s3.5 47.833 3.5 52.5c-0.666992 7.33301 -1 12.666 -1 15.999
c0 18.667 3.33301 34.334 10 47.001s18 19 34 19c16.667 0 29.667 -5.83301 39 -17.5s14 -31.5 14 -59.5c0 -22 -1.83301 -41.333 -5.5 -58s-13.834 -40 -30.501 -70c0 -14 -1.33301 -55.667 -4 -125s-4 -112 -4 -128c11.333 6 36.166 16 74.499 30l92 33
c23 8 55.5 20.333 97.5 37c16.667 6.66699 26.334 10 29.001 10c9.33301 0 16 -1.5 20 -4.5s6 -9.5 6 -19.5zM111.003 -46c-34.667 -21.333 -62.333 -47.002 -83 -77.002c-32 -47.333 -48 -106 -48 -176c0 -25.333 7 -54.333 21 -87s28 -49 42 -49c20.667 0 37 26 49 78
c9.33301 40.667 14 82 14 124c0 28.667 0.5 59.834 1.5 93.501s2.16699 64.834 3.5 93.501z" />
    <glyph glyph-name="onehalf" unicode="&#xbd;" horiz-adv-x="581" 
d="M536 201c0 -53.333 -27.6641 -95.9961 -82.9971 -127.996c-50 -29.333 -110.667 -44 -182 -44c-48 0 -89.667 1.33301 -125 4c-68.667 5.33301 -103 14.666 -103 27.999c0 8.66699 2.83301 15.5 8.5 20.5s13.167 7.5 22.5 7.5c1.33301 0 35.333 -2 102 -6
c33.333 -2 65 -3 95 -3c58 0 105 8.66699 141 26c43.333 21.333 65 52.666 65 93.999c0 23.333 -4.33301 43.833 -13 61.5s-22.667 33.167 -42 46.5c-24 16.667 -62.333 29.334 -115 38.001c-36.667 6 -64.334 10.333 -83.001 13c-47.333 8 -87.333 26 -120 54
c-34.667 30 -52 63.333 -52 100c0 39.333 31 73 93 101c54.667 24.667 112.667 37 174 37c31.333 0 64.666 -7.33301 99.999 -22c44.667 -18.667 67 -42 67 -70c0 -2.66699 0.333008 -5.33398 1 -8.00098c-0.666992 -3.33301 -4 -5 -10 -5
c-4.66699 0 -20.667 8.66699 -48 26s-64 26 -110 26c-26 0 -61.333 -7.33301 -106 -22c-60.667 -20 -91 -43.667 -91 -71c0 -22.667 11.5 -42.834 34.5 -60.501s52 -29.5 87 -35.5s71.5 -11.667 109.5 -17c43.333 -9.33301 79.666 -23.333 108.999 -42
c26 -16.667 44.833 -37.334 56.5 -62.001s17.5 -53.667 17.5 -87z" />
    <glyph glyph-name="onehalf" unicode="&#x405;" horiz-adv-x="581" 
d="M536 201c0 -53.333 -27.6641 -95.9961 -82.9971 -127.996c-50 -29.333 -110.667 -44 -182 -44c-48 0 -89.667 1.33301 -125 4c-68.667 5.33301 -103 14.666 -103 27.999c0 8.66699 2.83301 15.5 8.5 20.5s13.167 7.5 22.5 7.5c1.33301 0 35.333 -2 102 -6
c33.333 -2 65 -3 95 -3c58 0 105 8.66699 141 26c43.333 21.333 65 52.666 65 93.999c0 23.333 -4.33301 43.833 -13 61.5s-22.667 33.167 -42 46.5c-24 16.667 -62.333 29.334 -115 38.001c-36.667 6 -64.334 10.333 -83.001 13c-47.333 8 -87.333 26 -120 54
c-34.667 30 -52 63.333 -52 100c0 39.333 31 73 93 101c54.667 24.667 112.667 37 174 37c31.333 0 64.666 -7.33301 99.999 -22c44.667 -18.667 67 -42 67 -70c0 -2.66699 0.333008 -5.33398 1 -8.00098c-0.666992 -3.33301 -4 -5 -10 -5
c-4.66699 0 -20.667 8.66699 -48 26s-64 26 -110 26c-26 0 -61.333 -7.33301 -106 -22c-60.667 -20 -91 -43.667 -91 -71c0 -22.667 11.5 -42.834 34.5 -60.501s52 -29.5 87 -35.5s71.5 -11.667 109.5 -17c43.333 -9.33301 79.666 -23.333 108.999 -42
c26 -16.667 44.833 -37.334 56.5 -62.001s17.5 -53.667 17.5 -87z" />
    <glyph glyph-name="threequarters" unicode="&#xbe;" horiz-adv-x="333" 
d="M282 358c0 -15.333 -1.00391 -25.335 -3.00391 -30.002s-8 -7 -18 -7c-10.667 0 -17.334 1 -20.001 3s-6.66699 7 -12 15c-7.33301 10.667 -13.666 18.334 -18.999 23.001c-9.33301 8 -19.666 12 -30.999 12c-14.667 0 -25 -6.33301 -31 -19s-9 -29.667 -9 -51
c0 -12.667 3.33301 -27.334 10 -44.001s20 -40 40 -70l42 -63c14 -24 21 -46.667 21 -68c0 -20.667 -4.5 -34.667 -13.5 -42s-22.5 -11 -40.5 -11c-23.333 0 -45.166 4.5 -65.499 13.5s-36.833 22.167 -49.5 39.5c-8.66699 11.333 -17 24.333 -25 39s-12 26.334 -12 35.001
c0 18 6.33301 27 19 27c7.33301 -0.666992 15 -9 23 -25c4 -9.33301 8.83301 -19.166 14.5 -29.499s16.334 -21.166 32.001 -32.499s28.834 -17 39.501 -17s16 4.33301 16 13s-5 21.5 -15 38.5l-29 48.5c-4.66699 9.33301 -15.667 27.666 -33 54.999
c-22.667 36 -34 67 -34 93c0 35.333 8.16699 65.5 24.5 90.5s40.5 37.5 72.5 37.5c30.667 0 56.667 -9 78 -27c18.667 -15.333 28 -31 28 -47z" />
    <glyph glyph-name="threequarters" unicode="&#x455;" horiz-adv-x="333" 
d="M282 358c0 -15.333 -1.00391 -25.335 -3.00391 -30.002s-8 -7 -18 -7c-10.667 0 -17.334 1 -20.001 3s-6.66699 7 -12 15c-7.33301 10.667 -13.666 18.334 -18.999 23.001c-9.33301 8 -19.666 12 -30.999 12c-14.667 0 -25 -6.33301 -31 -19s-9 -29.667 -9 -51
c0 -12.667 3.33301 -27.334 10 -44.001s20 -40 40 -70l42 -63c14 -24 21 -46.667 21 -68c0 -20.667 -4.5 -34.667 -13.5 -42s-22.5 -11 -40.5 -11c-23.333 0 -45.166 4.5 -65.499 13.5s-36.833 22.167 -49.5 39.5c-8.66699 11.333 -17 24.333 -25 39s-12 26.334 -12 35.001
c0 18 6.33301 27 19 27c7.33301 -0.666992 15 -9 23 -25c4 -9.33301 8.83301 -19.166 14.5 -29.499s16.334 -21.166 32.001 -32.499s28.834 -17 39.501 -17s16 4.33301 16 13s-5 21.5 -15 38.5l-29 48.5c-4.66699 9.33301 -15.667 27.666 -33 54.999
c-22.667 36 -34 67 -34 93c0 35.333 8.16699 65.5 24.5 90.5s40.5 37.5 72.5 37.5c30.667 0 56.667 -9 78 -27c18.667 -15.333 28 -31 28 -47z" />
    <glyph glyph-name="questiondown" unicode="&#xbf;" horiz-adv-x="389" 
d="M177 576c0 -10.667 -1.00098 -17.333 -3.00098 -20c-4.66699 -6 -15 -9 -31 -9c-12.667 0 -26 9.83301 -40 29.5s-21 36.5 -21 50.5c0 8.66699 2.33301 16.5 7 23.5s12.334 10.5 23.001 10.5c16 0 30.833 -10 44.5 -30s20.5 -38.333 20.5 -55zM1.99902 566.001
c0 -10.667 -1.00098 -17.333 -3.00098 -20c-4.66699 -6 -15 -9 -31 -9c-12.667 0 -26 9.83301 -40 29.5s-21 36.5 -21 50.5c0 8.66699 2.33301 16.5 7 23.5s12.334 10.5 23.001 10.5c16 0 30.833 -10 44.5 -30s20.5 -38.333 20.5 -55zM441.998 154.002
c0 -20 -31.668 -49.668 -95.001 -89.001c-69.333 -42.667 -130.666 -64 -183.999 -64c-22.667 2.66699 -45.334 5.66699 -68.001 9c-20.667 4 -34 10.333 -40 19c-9.33301 12.667 -16 24.667 -20 36c-6 16.667 -9 38.334 -9 65.001v75c0 26 0.333008 53 1 81
c0 18 -0.333008 29 -1 33c0 16 1.83301 29.5 5.5 40.5s11.5 16.5 23.5 16.5s20.833 -4.33301 26.5 -13s8.5 -27 8.5 -55c0 -10.667 -0.333008 -35.5 -1 -74.5s-1 -66.833 -1 -83.5c0 -36.667 3 -59.667 9 -69c10 -16 34 -24 72 -24c44.667 0 89.334 11.333 134.001 34
l114 77h15c6.66699 -1.33301 10 -6 10 -14z" />
    <glyph glyph-name="questiondown" unicode="&#x457;" horiz-adv-x="389" 
d="M177 576c0 -10.667 -1.00098 -17.333 -3.00098 -20c-4.66699 -6 -15 -9 -31 -9c-12.667 0 -26 9.83301 -40 29.5s-21 36.5 -21 50.5c0 8.66699 2.33301 16.5 7 23.5s12.334 10.5 23.001 10.5c16 0 30.833 -10 44.5 -30s20.5 -38.333 20.5 -55zM1.99902 566.001
c0 -10.667 -1.00098 -17.333 -3.00098 -20c-4.66699 -6 -15 -9 -31 -9c-12.667 0 -26 9.83301 -40 29.5s-21 36.5 -21 50.5c0 8.66699 2.33301 16.5 7 23.5s12.334 10.5 23.001 10.5c16 0 30.833 -10 44.5 -30s20.5 -38.333 20.5 -55zM441.998 154.002
c0 -20 -31.668 -49.668 -95.001 -89.001c-69.333 -42.667 -130.666 -64 -183.999 -64c-22.667 2.66699 -45.334 5.66699 -68.001 9c-20.667 4 -34 10.333 -40 19c-9.33301 12.667 -16 24.667 -20 36c-6 16.667 -9 38.334 -9 65.001v75c0 26 0.333008 53 1 81
c0 18 -0.333008 29 -1 33c0 16 1.83301 29.5 5.5 40.5s11.5 16.5 23.5 16.5s20.833 -4.33301 26.5 -13s8.5 -27 8.5 -55c0 -10.667 -0.333008 -35.5 -1 -74.5s-1 -66.833 -1 -83.5c0 -36.667 3 -59.667 9 -69c10 -16 34 -24 72 -24c44.667 0 89.334 11.333 134.001 34
l114 77h15c6.66699 -1.33301 10 -6 10 -14z" />
    <glyph glyph-name="Agrave" unicode="&#xc0;" horiz-adv-x="582" 
d="M613 4c0 -15.333 -4 -23.002 -12 -23.002c-9.33301 0 -20.333 8.66699 -33 26c-16 21.333 -37 56.333 -63 105s-51.667 101.334 -77 158.001c-22.667 -3.33301 -63 -10.666 -121 -21.999l-119 -24c-5.33301 -1.33301 -8.66602 -2 -9.99902 -2
c-6.66699 0 -17 6.66699 -31 20l-50 -113c-7.33301 -13.333 -15 -30.333 -23 -51s-12 -35.667 -12 -45c0 -7.33301 -3.5 -13.5 -10.5 -18.5s-13.833 -7.5 -20.5 -7.5c-8 0 -15 4.33301 -21 13s-9 17.667 -9 27c0 13.333 12.667 50.166 38 110.499l75 178.5l72 170
c26.667 62 42.667 101.667 48 119l12 66c4 21.333 11.333 32 22 32s21 -4.33301 31 -13c14 -12 24.333 -28.667 31 -50c17.333 -32 38.166 -79.167 62.499 -141.5l73.5 -189.5h51c9.33301 0 17.5 -1.66699 24.5 -5s10.5 -8.66602 10.5 -15.999c0 -4 -1.66699 -7 -5 -9
c-10.667 -3.33301 -18 -5.33301 -22 -6l-38 -9c2.66699 -6.66699 18 -40 46 -100c53.333 -114 80 -174 80 -180zM410 317.998l-49.999 108l-72 153l-55 -135c-7.33301 -16 -16.5 -38.5 -27.5 -67.5l-33.5 -88.5c20.667 3.33301 61.667 8.83301 123 16.5
s99.666 12.167 114.999 13.5z" />
    <glyph glyph-name="Agrave" unicode="&#x410;" horiz-adv-x="582" 
d="M613 4c0 -15.333 -4 -23.002 -12 -23.002c-9.33301 0 -20.333 8.66699 -33 26c-16 21.333 -37 56.333 -63 105s-51.667 101.334 -77 158.001c-22.667 -3.33301 -63 -10.666 -121 -21.999l-119 -24c-5.33301 -1.33301 -8.66602 -2 -9.99902 -2
c-6.66699 0 -17 6.66699 -31 20l-50 -113c-7.33301 -13.333 -15 -30.333 -23 -51s-12 -35.667 -12 -45c0 -7.33301 -3.5 -13.5 -10.5 -18.5s-13.833 -7.5 -20.5 -7.5c-8 0 -15 4.33301 -21 13s-9 17.667 -9 27c0 13.333 12.667 50.166 38 110.499l75 178.5l72 170
c26.667 62 42.667 101.667 48 119l12 66c4 21.333 11.333 32 22 32s21 -4.33301 31 -13c14 -12 24.333 -28.667 31 -50c17.333 -32 38.166 -79.167 62.499 -141.5l73.5 -189.5h51c9.33301 0 17.5 -1.66699 24.5 -5s10.5 -8.66602 10.5 -15.999c0 -4 -1.66699 -7 -5 -9
c-10.667 -3.33301 -18 -5.33301 -22 -6l-38 -9c2.66699 -6.66699 18 -40 46 -100c53.333 -114 80 -174 80 -180zM410 317.998l-49.999 108l-72 153l-55 -135c-7.33301 -16 -16.5 -38.5 -27.5 -67.5l-33.5 -88.5c20.667 3.33301 61.667 8.83301 123 16.5
s99.666 12.167 114.999 13.5z" />
    <glyph glyph-name="Aacute" unicode="&#xc1;" horiz-adv-x="614" 
d="M657 689c0 -10 -0.666016 -16.334 -1.99902 -19.001s-6.33301 -4 -15 -4c-9.33301 0 -50.666 1.5 -123.999 4.5s-114.333 4.5 -123 4.5c-12 0 -40.5 -3.66699 -85.5 -11s-90.167 -15.666 -135.5 -24.999c0 -47.333 -3 -96.833 -9 -148.5l-18 -156.5
c37.333 7.33301 75 13.333 113 18s68.667 7 92 7c64.667 0 119.5 -19.167 164.5 -57.5s67.5 -86.833 67.5 -145.5c0 -61.333 -47.667 -111 -143 -149c-72.667 -28.667 -138.334 -43 -197.001 -43c-14.667 0 -28.834 -0.333008 -42.501 -1s-26.5 -1.33398 -38.5 -2.00098
c-24 0 -42.333 1.33301 -55 4s-19 7.66699 -19 15c0 6.66699 2.33301 12.334 7 17.001c-7.33301 21.333 -12.666 53.833 -15.999 97.5s-5 97.167 -5 160.5c-12.667 0 -22.334 0.666992 -29.001 2c-19.333 4 -29 12.667 -29 26c0 12.667 6 21.667 18 27
c4.66699 2 18 5.33301 40 10c0 18.667 1.33301 45.667 4 81c6.66699 88.667 10 162.334 10 221.001c-17.333 2.66699 -27.666 4.33398 -30.999 5.00098c-13.333 4 -20 12 -20 24c0 6.66699 6.5 13.667 19.5 21s24.167 11.666 33.5 12.999c0 12.667 3 23.667 9 33
s13.667 14 23 14c16 0 27.5 -2.83301 34.5 -8.5s11.5 -13.834 13.5 -24.501c17.333 6 49.166 11.5 95.499 16.5s82.5 7.5 108.5 7.5c80 0 139 -1.33301 177 -4c71.333 -5.33301 107 -15.333 107 -30zM520.001 155.999c0 45.333 -19.999 81.834 -59.999 109.501
s-89.333 41.5 -148 41.5c-33.333 0 -63.333 -3 -90 -9c-16.667 -4 -42.334 -12 -77.001 -24c-6 -43.333 -9 -95 -9 -155c0 -15.333 1.5 -36 4.5 -62s4.5 -41.667 4.5 -47h97c44.667 0 99.667 14.333 165 43c75.333 33.333 113 67.666 113 102.999z" />
    <glyph glyph-name="Aacute" unicode="&#x411;" horiz-adv-x="614" 
d="M657 689c0 -10 -0.666016 -16.334 -1.99902 -19.001s-6.33301 -4 -15 -4c-9.33301 0 -50.666 1.5 -123.999 4.5s-114.333 4.5 -123 4.5c-12 0 -40.5 -3.66699 -85.5 -11s-90.167 -15.666 -135.5 -24.999c0 -47.333 -3 -96.833 -9 -148.5l-18 -156.5
c37.333 7.33301 75 13.333 113 18s68.667 7 92 7c64.667 0 119.5 -19.167 164.5 -57.5s67.5 -86.833 67.5 -145.5c0 -61.333 -47.667 -111 -143 -149c-72.667 -28.667 -138.334 -43 -197.001 -43c-14.667 0 -28.834 -0.333008 -42.501 -1s-26.5 -1.33398 -38.5 -2.00098
c-24 0 -42.333 1.33301 -55 4s-19 7.66699 -19 15c0 6.66699 2.33301 12.334 7 17.001c-7.33301 21.333 -12.666 53.833 -15.999 97.5s-5 97.167 -5 160.5c-12.667 0 -22.334 0.666992 -29.001 2c-19.333 4 -29 12.667 -29 26c0 12.667 6 21.667 18 27
c4.66699 2 18 5.33301 40 10c0 18.667 1.33301 45.667 4 81c6.66699 88.667 10 162.334 10 221.001c-17.333 2.66699 -27.666 4.33398 -30.999 5.00098c-13.333 4 -20 12 -20 24c0 6.66699 6.5 13.667 19.5 21s24.167 11.666 33.5 12.999c0 12.667 3 23.667 9 33
s13.667 14 23 14c16 0 27.5 -2.83301 34.5 -8.5s11.5 -13.834 13.5 -24.501c17.333 6 49.166 11.5 95.499 16.5s82.5 7.5 108.5 7.5c80 0 139 -1.33301 177 -4c71.333 -5.33301 107 -15.333 107 -30zM520.001 155.999c0 45.333 -19.999 81.834 -59.999 109.501
s-89.333 41.5 -148 41.5c-33.333 0 -63.333 -3 -90 -9c-16.667 -4 -42.334 -12 -77.001 -24c-6 -43.333 -9 -95 -9 -155c0 -15.333 1.5 -36 4.5 -62s4.5 -41.667 4.5 -47h97c44.667 0 99.667 14.333 165 43c75.333 33.333 113 67.666 113 102.999z" />
    <glyph glyph-name="Acircumflex" unicode="&#xc2;" horiz-adv-x="667" 
d="M608 172c0 -62 -55.3369 -112.335 -166.004 -151.002c-83.333 -29.333 -156.666 -44 -219.999 -44h-22.5c-7.66699 0 -15.5 -0.333008 -23.5 -1c-17.333 0 -30.166 1.33301 -38.499 4s-12.5 8.33398 -12.5 17.001c0 6.66699 2.83301 12.5 8.5 17.5s12.5 7.5 20.5 7.5
l68 1c48 0 111 14.667 189 44c90.667 34 136 69 136 105c0 42.667 -28 78.667 -84 108c-51.333 26.667 -108 40 -170 40c-44 -8 -74.667 -13.333 -92 -16c-30.667 -5.33301 -56 -8 -76 -8c-2.66699 -18 -4.66699 -41.833 -6 -71.5s-2 -60.5 -2 -92.5
c0 -9.33301 1.83301 -23.5 5.5 -42.5s4.5 -31.833 2.5 -38.5c-1.33301 -5.33301 -2.83301 -9.5 -4.5 -12.5s-4.5 -4.5 -8.5 -4.5c-18.667 0 -32.667 15.333 -42 46c-11.333 38 -17 100.667 -17 188c-16 0 -29.5 2 -40.5 6s-16.5 11.333 -16.5 22
c0 12.667 5.66699 21.667 17 27c4.66699 2 18 5.33301 40 10c0 23.333 1.33301 54 4 92c7.33301 104.667 11 185.334 11 242.001c0 16.667 6.83301 29.5 20.5 38.5s34.834 13.5 63.501 13.5c18 0 36.333 -3.33301 55 -10c4.66699 -1.33301 33.334 -15.333 86.001 -42
c46.667 -24 83.667 -56 111 -96c24.667 -36.667 37 -73.667 37 -111c0 -29.333 -10 -52 -30 -68c-13.333 -10.667 -40.333 -22.667 -81 -36c55.333 0 109.333 -11.667 162 -35c77.333 -34 116 -83.667 116 -149zM375.996 459.998c0 24.667 -12.333 54 -37 88
c-20 27.333 -45.667 50.333 -77 69c-16 9.33301 -39.333 18 -70 26c-10 2.66699 -23.333 5.66699 -40 9c0 -47.333 -3 -96.833 -9 -148.5l-18 -155.5c22 3.33301 44 7 66 11c32 6 61.5 13.5 88.5 22.5s47.833 18.167 62.5 27.5c22.667 14.667 34 31.667 34 51z" />
    <glyph glyph-name="Acircumflex" unicode="&#x412;" horiz-adv-x="667" 
d="M608 172c0 -62 -55.3369 -112.335 -166.004 -151.002c-83.333 -29.333 -156.666 -44 -219.999 -44h-22.5c-7.66699 0 -15.5 -0.333008 -23.5 -1c-17.333 0 -30.166 1.33301 -38.499 4s-12.5 8.33398 -12.5 17.001c0 6.66699 2.83301 12.5 8.5 17.5s12.5 7.5 20.5 7.5
l68 1c48 0 111 14.667 189 44c90.667 34 136 69 136 105c0 42.667 -28 78.667 -84 108c-51.333 26.667 -108 40 -170 40c-44 -8 -74.667 -13.333 -92 -16c-30.667 -5.33301 -56 -8 -76 -8c-2.66699 -18 -4.66699 -41.833 -6 -71.5s-2 -60.5 -2 -92.5
c0 -9.33301 1.83301 -23.5 5.5 -42.5s4.5 -31.833 2.5 -38.5c-1.33301 -5.33301 -2.83301 -9.5 -4.5 -12.5s-4.5 -4.5 -8.5 -4.5c-18.667 0 -32.667 15.333 -42 46c-11.333 38 -17 100.667 -17 188c-16 0 -29.5 2 -40.5 6s-16.5 11.333 -16.5 22
c0 12.667 5.66699 21.667 17 27c4.66699 2 18 5.33301 40 10c0 23.333 1.33301 54 4 92c7.33301 104.667 11 185.334 11 242.001c0 16.667 6.83301 29.5 20.5 38.5s34.834 13.5 63.501 13.5c18 0 36.333 -3.33301 55 -10c4.66699 -1.33301 33.334 -15.333 86.001 -42
c46.667 -24 83.667 -56 111 -96c24.667 -36.667 37 -73.667 37 -111c0 -29.333 -10 -52 -30 -68c-13.333 -10.667 -40.333 -22.667 -81 -36c55.333 0 109.333 -11.667 162 -35c77.333 -34 116 -83.667 116 -149zM375.996 459.998c0 24.667 -12.333 54 -37 88
c-20 27.333 -45.667 50.333 -77 69c-16 9.33301 -39.333 18 -70 26c-10 2.66699 -23.333 5.66699 -40 9c0 -47.333 -3 -96.833 -9 -148.5l-18 -155.5c22 3.33301 44 7 66 11c32 6 61.5 13.5 88.5 22.5s47.833 18.167 62.5 27.5c22.667 14.667 34 31.667 34 51z" />
    <glyph glyph-name="Atilde" unicode="&#xc3;" horiz-adv-x="473" 
d="M568 673c0 -10 -0.665039 -16.332 -1.99805 -18.999s-6.33301 -4 -15 -4c-37.333 5.33301 -70.833 9.83301 -100.5 13.5s-52.167 5.5 -67.5 5.5c-18 0 -56.667 -5.33301 -116 -16l-105 -20c-8 -22 -14.333 -62.167 -19 -120.5s-7 -117.833 -7 -178.5l-2 -172
c0 -50.667 -2.33301 -89.834 -7 -117.501s-14.334 -41.5 -29.001 -41.5c-10 0 -17.5 4.16699 -22.5 12.5s-7.5 19.833 -7.5 34.5c0 8.66699 0.333008 19.667 1 33s1 24.666 1 33.999c0 25.333 0.333008 58.833 1 100.5s1 75.5 1 101.5l2 199l3 97
c-18 2.66699 -28.333 4.33398 -31 5.00098c-13.333 4.66699 -20 13 -20 25c0 6.66699 6.5 13.667 19.5 21s24.167 11.666 33.5 12.999c0 12.667 3.16699 23.5 9.5 32.5s13.833 13.5 22.5 13.5c15.333 0 26.666 -2.66699 33.999 -8s12.333 -13.666 15 -24.999
c16.667 6 48.167 11.5 94.5 16.5s82.5 7.5 108.5 7.5c37.333 0 80.833 -4.66699 130.5 -14s74.5 -19 74.5 -29z" />
    <glyph glyph-name="Atilde" unicode="&#x413;" horiz-adv-x="473" 
d="M568 673c0 -10 -0.665039 -16.332 -1.99805 -18.999s-6.33301 -4 -15 -4c-37.333 5.33301 -70.833 9.83301 -100.5 13.5s-52.167 5.5 -67.5 5.5c-18 0 -56.667 -5.33301 -116 -16l-105 -20c-8 -22 -14.333 -62.167 -19 -120.5s-7 -117.833 -7 -178.5l-2 -172
c0 -50.667 -2.33301 -89.834 -7 -117.501s-14.334 -41.5 -29.001 -41.5c-10 0 -17.5 4.16699 -22.5 12.5s-7.5 19.833 -7.5 34.5c0 8.66699 0.333008 19.667 1 33s1 24.666 1 33.999c0 25.333 0.333008 58.833 1 100.5s1 75.5 1 101.5l2 199l3 97
c-18 2.66699 -28.333 4.33398 -31 5.00098c-13.333 4.66699 -20 13 -20 25c0 6.66699 6.5 13.667 19.5 21s24.167 11.666 33.5 12.999c0 12.667 3.16699 23.5 9.5 32.5s13.833 13.5 22.5 13.5c15.333 0 26.666 -2.66699 33.999 -8s12.333 -13.666 15 -24.999
c16.667 6 48.167 11.5 94.5 16.5s82.5 7.5 108.5 7.5c37.333 0 80.833 -4.66699 130.5 -14s74.5 -19 74.5 -29z" />
    <glyph glyph-name="Adieresis" unicode="&#xc4;" horiz-adv-x="648" 
d="M646 -59c0 -21.333 -1.99805 -51.8301 -5.99805 -91.4971s-9 -73.167 -15 -100.5c-2 -8 -4 -15.5 -6 -22.5s-4 -10.5 -6 -10.5c-16 0 -25.167 15.167 -27.5 45.5s-3.5 59.166 -3.5 86.499c0 6.66699 -0.333008 18.834 -1 36.501s-1 28.5 -1 32.5c0 18 1 35.667 3 53
c-6 -0.666992 -16.333 -1.33398 -31 -2.00098s-34.334 -1 -59.001 -1h-31c-93.333 0 -172 0.333008 -236 1l-192 2c0.666992 -3.33301 1 -9 1 -17c-0.666992 -14 -1 -23.333 -1 -28c0 -17.333 -2.5 -46 -7.5 -86s-10.833 -74.333 -17.5 -103c-2 -8 -4 -15.5 -6 -22.5
s-4 -10.5 -6 -10.5c-16 0 -25.167 15.167 -27.5 45.5s-3.5 59.166 -3.5 86.499v175c0 7.33301 7 11 21 11h25h12h11c6 1.33301 10.333 2 13 2c-4 9.33301 -6 17.333 -6 24c0 13.333 12.667 50.166 38 110.499l75 178.5c10 26 28 69 54 129c39.333 92 61.333 145.333 66 160
l12 66c4 21.333 11.333 32 22 32s21 -4.33301 31 -13c13.333 -11.333 23.666 -28 30.999 -50c24 -44 45.667 -110.667 65 -200c14.667 -68 27 -120 37 -156c24.667 -88 39.667 -140.667 45 -158c16.667 -56.667 29.667 -95.667 39 -117h33c17.333 0 31 -1.16699 41 -3.5
s15 -7.5 15 -15.5v-69zM505.002 29.0029c-14 20.667 -28 49.5 -42 86.5s-30.333 94.833 -49 173.5c-14 58 -30.333 118.333 -49 181c-16 54 -28 90.333 -36 109l-55 -135c-12 -25.333 -28 -62 -48 -110l-38 -92l-50 -113c-6 -10.667 -12.833 -29.167 -20.5 -55.5
s-13.5 -41.5 -17.5 -45.5l65 1h340z" />
    <glyph glyph-name="Adieresis" unicode="&#x414;" horiz-adv-x="648" 
d="M646 -59c0 -21.333 -1.99805 -51.8301 -5.99805 -91.4971s-9 -73.167 -15 -100.5c-2 -8 -4 -15.5 -6 -22.5s-4 -10.5 -6 -10.5c-16 0 -25.167 15.167 -27.5 45.5s-3.5 59.166 -3.5 86.499c0 6.66699 -0.333008 18.834 -1 36.501s-1 28.5 -1 32.5c0 18 1 35.667 3 53
c-6 -0.666992 -16.333 -1.33398 -31 -2.00098s-34.334 -1 -59.001 -1h-31c-93.333 0 -172 0.333008 -236 1l-192 2c0.666992 -3.33301 1 -9 1 -17c-0.666992 -14 -1 -23.333 -1 -28c0 -17.333 -2.5 -46 -7.5 -86s-10.833 -74.333 -17.5 -103c-2 -8 -4 -15.5 -6 -22.5
s-4 -10.5 -6 -10.5c-16 0 -25.167 15.167 -27.5 45.5s-3.5 59.166 -3.5 86.499v175c0 7.33301 7 11 21 11h25h12h11c6 1.33301 10.333 2 13 2c-4 9.33301 -6 17.333 -6 24c0 13.333 12.667 50.166 38 110.499l75 178.5c10 26 28 69 54 129c39.333 92 61.333 145.333 66 160
l12 66c4 21.333 11.333 32 22 32s21 -4.33301 31 -13c13.333 -11.333 23.666 -28 30.999 -50c24 -44 45.667 -110.667 65 -200c14.667 -68 27 -120 37 -156c24.667 -88 39.667 -140.667 45 -158c16.667 -56.667 29.667 -95.667 39 -117h33c17.333 0 31 -1.16699 41 -3.5
s15 -7.5 15 -15.5v-69zM505.002 29.0029c-14 20.667 -28 49.5 -42 86.5s-30.333 94.833 -49 173.5c-14 58 -30.333 118.333 -49 181c-16 54 -28 90.333 -36 109l-55 -135c-12 -25.333 -28 -62 -48 -110l-38 -92l-50 -113c-6 -10.667 -12.833 -29.167 -20.5 -55.5
s-13.5 -41.5 -17.5 -45.5l65 1h340z" />
    <glyph glyph-name="Aring" unicode="&#xc5;" horiz-adv-x="597" 
d="M694 641c0 -4 -12.668 -5.99805 -38.001 -5.99805c-24 0 -52 0.666992 -84 2s-58 2.66602 -78 3.99902c-66 0 -136.667 -8 -212 -24c-60 -12.667 -107 -26.667 -141 -42c0 -4.66699 -0.833008 -16.167 -2.5 -34.5s-2.5 -31.166 -2.5 -38.499v-102
c26.667 5.33301 98.334 16.166 215.001 32.499s185 24.5 205 24.5c3.33301 0 8 -0.833008 14 -2.5s9 -3.5 9 -5.5c0 -14.667 -35.333 -30 -106 -46c-32.667 -7.33301 -72 -15 -118 -23l-226 -43l-20 -252c14 4 41.833 7.16699 83.5 9.5s88.834 3.5 141.501 3.5
c46 0 89.833 -3 131.5 -9s62.5 -14 62.5 -24c0 -10.667 -25.333 -16.334 -76 -17.001s-87.667 -1 -111 -1c-46.667 0 -88 -4.33301 -124 -13c-6 -1.33301 -30.667 -8.33301 -74 -21c-8.66699 -2.66699 -21.834 -8 -39.501 -16s-30.5 -12 -38.5 -12s-16 3.66699 -24 11
s-12 16.333 -12 27c0 8.66699 1.33301 15.667 4 21c5.33301 8 9.66602 15 12.999 21c6.66699 58.667 12 111.334 16 158.001s6 81 6 103c-8 0 -14.167 4.66699 -18.5 14s-6.5 19 -6.5 29c0 16.667 10.667 26 32 28c0.666992 4 1 9.66699 1 17
c0 5.33301 -0.333008 14.666 -1 27.999s-1 24 -1 32c0 23.333 -1.16699 47.333 -3.5 72s-4.16602 46.667 -5.49902 66c0 22 13.333 33 40 33c10.667 0 19.5 -0.5 26.5 -1.5s12.167 -3.16699 15.5 -6.5c50.667 12 94.667 22 132 30c74.667 16 128.667 24 162 24
c49.333 0 97.333 -3 144 -9c72.667 -9.33301 109 -23 109 -41z" />
    <glyph glyph-name="Aring" unicode="&#x415;" horiz-adv-x="597" 
d="M694 641c0 -4 -12.668 -5.99805 -38.001 -5.99805c-24 0 -52 0.666992 -84 2s-58 2.66602 -78 3.99902c-66 0 -136.667 -8 -212 -24c-60 -12.667 -107 -26.667 -141 -42c0 -4.66699 -0.833008 -16.167 -2.5 -34.5s-2.5 -31.166 -2.5 -38.499v-102
c26.667 5.33301 98.334 16.166 215.001 32.499s185 24.5 205 24.5c3.33301 0 8 -0.833008 14 -2.5s9 -3.5 9 -5.5c0 -14.667 -35.333 -30 -106 -46c-32.667 -7.33301 -72 -15 -118 -23l-226 -43l-20 -252c14 4 41.833 7.16699 83.5 9.5s88.834 3.5 141.501 3.5
c46 0 89.833 -3 131.5 -9s62.5 -14 62.5 -24c0 -10.667 -25.333 -16.334 -76 -17.001s-87.667 -1 -111 -1c-46.667 0 -88 -4.33301 -124 -13c-6 -1.33301 -30.667 -8.33301 -74 -21c-8.66699 -2.66699 -21.834 -8 -39.501 -16s-30.5 -12 -38.5 -12s-16 3.66699 -24 11
s-12 16.333 -12 27c0 8.66699 1.33301 15.667 4 21c5.33301 8 9.66602 15 12.999 21c6.66699 58.667 12 111.334 16 158.001s6 81 6 103c-8 0 -14.167 4.66699 -18.5 14s-6.5 19 -6.5 29c0 16.667 10.667 26 32 28c0.666992 4 1 9.66699 1 17
c0 5.33301 -0.333008 14.666 -1 27.999s-1 24 -1 32c0 23.333 -1.16699 47.333 -3.5 72s-4.16602 46.667 -5.49902 66c0 22 13.333 33 40 33c10.667 0 19.5 -0.5 26.5 -1.5s12.167 -3.16699 15.5 -6.5c50.667 12 94.667 22 132 30c74.667 16 128.667 24 162 24
c49.333 0 97.333 -3 144 -9c72.667 -9.33301 109 -23 109 -41z" />
    <glyph glyph-name="AE" unicode="&#xc6;" horiz-adv-x="780" 
d="M837 653c0 -16.667 -6.5 -28.1709 -19.5 -34.5039s-26.167 -12.166 -39.5 -17.499c-27.333 -18 -65 -46 -113 -84l-128 -104l-88 -72l89 -95c44.667 -48 77.667 -84.667 99 -110l81 -88c14.667 -16.667 22 -27.667 22 -33c0 -14.667 -9 -22 -27 -22
c-7.33301 0 -28.333 16.667 -63 50c-12.667 12 -32.334 31.667 -59.001 59l-81 86c-45.333 48 -75.333 80.333 -90 97l-8 -40.5c-2 -10.333 -3 -17.166 -3 -20.499c0 -20 -0.666992 -52 -2 -96s-2 -72 -2 -84c0 -26.667 -4.33301 -40 -13 -40c-12 0 -21 20.667 -27 62
s-9 88.333 -9 141l8 89l-137 -108l-161 -124c-53.333 -40 -83 -60 -89 -60c-8 0 -12.667 3.66699 -14 11c0 2 27 27 81 75l166 145c70.667 61.333 115.667 99.666 135 114.999l-64 66l-83 78l-127 104c-28 22.667 -42 35.334 -42 38.001c-1.33301 10 1.33398 18 8.00098 24
s16 9 28 9c10 0 36.333 -18.333 79 -55c26.667 -22.667 69.334 -61.667 128.001 -117l109 -103c4.66699 11.333 7.5 25 8.5 41s1.83301 25 2.5 27c4.66699 25.333 8.16699 53.5 10.5 84.5s4.5 61.5 6.5 91.5c3.33301 20.667 9.5 36.167 18.5 46.5s19.833 15.5 32.5 15.5
c5.33301 0 10.333 -3 15 -9s7 -12 7 -18c0 -11.333 -5 -46.666 -15 -105.999l-18 -105l-10 -56c49.333 44 88.666 78 117.999 102c56 46.667 102.667 83.334 140 110.001c47.333 34 78.333 51 93 51c14 0 25.333 -1 34 -3s13 -6.33301 13 -13z" />
    <glyph glyph-name="AE" unicode="&#x416;" horiz-adv-x="780" 
d="M837 653c0 -16.667 -6.5 -28.1709 -19.5 -34.5039s-26.167 -12.166 -39.5 -17.499c-27.333 -18 -65 -46 -113 -84l-128 -104l-88 -72l89 -95c44.667 -48 77.667 -84.667 99 -110l81 -88c14.667 -16.667 22 -27.667 22 -33c0 -14.667 -9 -22 -27 -22
c-7.33301 0 -28.333 16.667 -63 50c-12.667 12 -32.334 31.667 -59.001 59l-81 86c-45.333 48 -75.333 80.333 -90 97l-8 -40.5c-2 -10.333 -3 -17.166 -3 -20.499c0 -20 -0.666992 -52 -2 -96s-2 -72 -2 -84c0 -26.667 -4.33301 -40 -13 -40c-12 0 -21 20.667 -27 62
s-9 88.333 -9 141l8 89l-137 -108l-161 -124c-53.333 -40 -83 -60 -89 -60c-8 0 -12.667 3.66699 -14 11c0 2 27 27 81 75l166 145c70.667 61.333 115.667 99.666 135 114.999l-64 66l-83 78l-127 104c-28 22.667 -42 35.334 -42 38.001c-1.33301 10 1.33398 18 8.00098 24
s16 9 28 9c10 0 36.333 -18.333 79 -55c26.667 -22.667 69.334 -61.667 128.001 -117l109 -103c4.66699 11.333 7.5 25 8.5 41s1.83301 25 2.5 27c4.66699 25.333 8.16699 53.5 10.5 84.5s4.5 61.5 6.5 91.5c3.33301 20.667 9.5 36.167 18.5 46.5s19.833 15.5 32.5 15.5
c5.33301 0 10.333 -3 15 -9s7 -12 7 -18c0 -11.333 -5 -46.666 -15 -105.999l-18 -105l-10 -56c49.333 44 88.666 78 117.999 102c56 46.667 102.667 83.334 140 110.001c47.333 34 78.333 51 93 51c14 0 25.333 -1 34 -3s13 -6.33301 13 -13z" />
    <glyph glyph-name="Ccedilla" unicode="&#xc7;" horiz-adv-x="524" 
d="M505 231c0 -64.667 -19.6631 -118.003 -58.9961 -160.003c-42 -44.667 -100.667 -67 -176 -67c-58.667 0 -114 8.66699 -166 26c-57.333 19.333 -86 41 -86 65c0 20 7.33301 30 22 30c8 0 16.167 -3.33301 24.5 -10l25.5 -20c15.333 -11.333 39 -21.166 71 -29.499
s68.333 -12.5 109 -12.5c52.667 0 95.167 14.833 127.5 44.5s48.5 67.5 48.5 113.5c0 33.333 -9.66699 60.333 -29 81c-35.333 37.333 -98 56 -188 56c-18.667 0 -42.834 -5.5 -72.501 -16.5s-46.834 -16.5 -51.501 -16.5c-10.667 0 -18.167 3.33301 -22.5 10
s-6.5 16.334 -6.5 29.001c0 7.33301 24.667 21 74 41c32 12.667 55 22.667 69 30c39.333 31.333 68 60 86 86c16 22.667 24 42.334 24 59.001c0 12 -5 20.833 -15 26.5s-24 8.5 -42 8.5c-26.667 0 -53.5 -4 -80.5 -12s-45.833 -19.333 -56.5 -34
c-7.33301 -14 -12.666 -23.333 -15.999 -28c-5.33301 -8.66699 -12.333 -13 -21 -13c-12.667 0 -19 10.667 -19 32c0 4 0.666992 10.667 2 20c5.33301 24 29.166 45.333 71.499 64s88.166 28 137.499 28c29.333 0 54.166 -6.16699 74.499 -18.5s30.5 -30.5 30.5 -54.5
c0 -22.667 -6 -45.667 -18 -69c-20 -38.667 -55.667 -77 -107 -115c54 0 101.333 -10 142 -30c62 -30 93 -78 93 -144z" />
    <glyph glyph-name="Ccedilla" unicode="&#x417;" horiz-adv-x="524" 
d="M505 231c0 -64.667 -19.6631 -118.003 -58.9961 -160.003c-42 -44.667 -100.667 -67 -176 -67c-58.667 0 -114 8.66699 -166 26c-57.333 19.333 -86 41 -86 65c0 20 7.33301 30 22 30c8 0 16.167 -3.33301 24.5 -10l25.5 -20c15.333 -11.333 39 -21.166 71 -29.499
s68.333 -12.5 109 -12.5c52.667 0 95.167 14.833 127.5 44.5s48.5 67.5 48.5 113.5c0 33.333 -9.66699 60.333 -29 81c-35.333 37.333 -98 56 -188 56c-18.667 0 -42.834 -5.5 -72.501 -16.5s-46.834 -16.5 -51.501 -16.5c-10.667 0 -18.167 3.33301 -22.5 10
s-6.5 16.334 -6.5 29.001c0 7.33301 24.667 21 74 41c32 12.667 55 22.667 69 30c39.333 31.333 68 60 86 86c16 22.667 24 42.334 24 59.001c0 12 -5 20.833 -15 26.5s-24 8.5 -42 8.5c-26.667 0 -53.5 -4 -80.5 -12s-45.833 -19.333 -56.5 -34
c-7.33301 -14 -12.666 -23.333 -15.999 -28c-5.33301 -8.66699 -12.333 -13 -21 -13c-12.667 0 -19 10.667 -19 32c0 4 0.666992 10.667 2 20c5.33301 24 29.166 45.333 71.499 64s88.166 28 137.499 28c29.333 0 54.166 -6.16699 74.499 -18.5s30.5 -30.5 30.5 -54.5
c0 -22.667 -6 -45.667 -18 -69c-20 -38.667 -55.667 -77 -107 -115c54 0 101.333 -10 142 -30c62 -30 93 -78 93 -144z" />
    <glyph glyph-name="Egrave" unicode="&#xc8;" horiz-adv-x="694" 
d="M616 649c-19.333 -65.333 -36.334 -128.166 -51.001 -188.499s-22 -112.5 -22 -156.5c0 -32 2.33301 -76.667 7 -134s7 -92 7 -104v-21c0 -9.33301 -0.333008 -15 -1 -17c-2.66699 -8.66699 -10.667 -13 -24 -13c-15.333 0 -25.666 17.667 -30.999 53
c-2.66699 18 -5.33398 40 -8.00098 66c-4 28 -6.66699 49 -8 63c-3.33301 27.333 -5 50.333 -5 69c0 14.667 1.16699 33 3.5 55s7.33301 56.167 15 102.5s16.5 85.833 26.5 118.5c-15.333 -17.333 -37.333 -44.666 -66 -81.999c-76.667 -100 -119 -154.667 -127 -164
l-67 -82l-78 -92c-29.333 -33.333 -51.666 -56.666 -66.999 -69.999c-3.33301 -10 -7.66602 -17 -12.999 -21s-11 -6 -17 -6c-6.66699 0 -12 7 -16 21s-6 31.667 -6 53c0 20 0.166992 43.167 0.5 69.5s4.16602 61.166 11.499 104.499s15.333 88 24 134
c18 96.667 27 171 27 223c0 7.33301 3.33301 17.166 10 29.499s13.334 18.5 20.001 18.5c13.333 0 22 -4.83301 26 -14.5s6 -23.834 6 -42.501v-30c0 -21.333 -2.66699 -50.5 -8 -87.5s-16.333 -96.167 -33 -177.5c-6.66699 -31.333 -11.834 -61.333 -15.501 -90
s-5.5 -55.667 -5.5 -81l42 44c20 20.667 37 39.667 51 57l132 162l94 124c40 55.333 63.667 87 71 95c25.333 29.333 46.333 44 63 44c8 0 15.333 -3 22 -9s10 -13.667 10 -23z" />
    <glyph glyph-name="Egrave" unicode="&#x418;" horiz-adv-x="694" 
d="M616 649c-19.333 -65.333 -36.334 -128.166 -51.001 -188.499s-22 -112.5 -22 -156.5c0 -32 2.33301 -76.667 7 -134s7 -92 7 -104v-21c0 -9.33301 -0.333008 -15 -1 -17c-2.66699 -8.66699 -10.667 -13 -24 -13c-15.333 0 -25.666 17.667 -30.999 53
c-2.66699 18 -5.33398 40 -8.00098 66c-4 28 -6.66699 49 -8 63c-3.33301 27.333 -5 50.333 -5 69c0 14.667 1.16699 33 3.5 55s7.33301 56.167 15 102.5s16.5 85.833 26.5 118.5c-15.333 -17.333 -37.333 -44.666 -66 -81.999c-76.667 -100 -119 -154.667 -127 -164
l-67 -82l-78 -92c-29.333 -33.333 -51.666 -56.666 -66.999 -69.999c-3.33301 -10 -7.66602 -17 -12.999 -21s-11 -6 -17 -6c-6.66699 0 -12 7 -16 21s-6 31.667 -6 53c0 20 0.166992 43.167 0.5 69.5s4.16602 61.166 11.499 104.499s15.333 88 24 134
c18 96.667 27 171 27 223c0 7.33301 3.33301 17.166 10 29.499s13.334 18.5 20.001 18.5c13.333 0 22 -4.83301 26 -14.5s6 -23.834 6 -42.501v-30c0 -21.333 -2.66699 -50.5 -8 -87.5s-16.333 -96.167 -33 -177.5c-6.66699 -31.333 -11.834 -61.333 -15.501 -90
s-5.5 -55.667 -5.5 -81l42 44c20 20.667 37 39.667 51 57l132 162l94 124c40 55.333 63.667 87 71 95c25.333 29.333 46.333 44 63 44c8 0 15.333 -3 22 -9s10 -13.667 10 -23z" />
    <glyph glyph-name="Eacute" unicode="&#xc9;" horiz-adv-x="636" 
d="M563 828c0 -8 -3.99902 -18.333 -11.999 -31c-10.667 -16.667 -24.834 -30.667 -42.501 -42s-34 -19.333 -49 -24s-29.167 -7 -42.5 -7c-18.667 0 -36.334 3.33301 -53.001 10c-10 4 -22.333 11 -37 21c-9.33301 6.66699 -17.666 13.667 -24.999 21
c-10 10.667 -16.167 19.5 -18.5 26.5s-3.5 13.833 -3.5 20.5c0 9.33301 2.33301 17.166 7 23.499s11.334 9.5 20.001 9.5c6 0 14.333 -6.33301 25 -19c14.667 -17.333 22.667 -26.666 24 -27.999l21 -18c12.667 -10 26 -16 40 -18c19.333 -2 42.666 5.33301 69.999 22
c11.333 7.33301 22.666 18 33.999 32c9.33301 11.333 16.333 17 21 17c6.66699 0 11.834 -1 15.501 -3s5.5 -6.33301 5.5 -13zM627.001 649c-19.333 -65.333 -36.334 -128.166 -51.001 -188.499s-22 -112.5 -22 -156.5c0 -32 2.33301 -76.667 7 -134s7 -92 7 -104v-21
c0 -9.33301 -0.333008 -15 -1 -17c-2.66699 -8.66699 -10.667 -13 -24 -13c-15.333 0 -25.666 17.667 -30.999 53c-2.66699 18 -5.33398 40 -8.00098 66c-4 28 -6.66699 49 -8 63c-3.33301 27.333 -5 50.333 -5 69c0 14.667 1.16699 33 3.5 55s7.33301 56.167 15 102.5
s16.5 85.833 26.5 118.5c-15.333 -17.333 -37.333 -44.666 -66 -81.999c-76.667 -100 -119 -154.667 -127 -164l-67 -82l-78 -92c-29.333 -33.333 -51.666 -56.666 -66.999 -69.999c-3.33301 -10 -7.66602 -17 -12.999 -21s-11 -6 -17 -6c-6.66699 0 -12 7 -16 21
s-6 31.667 -6 53c0 20 0.166992 43.167 0.5 69.5s4.16602 61.166 11.499 104.499s15.333 88 24 134c18 96.667 27 171 27 223c0 7.33301 3.33301 17.166 10 29.499s13.334 18.5 20.001 18.5c13.333 0 22 -4.83301 26 -14.5s6 -23.834 6 -42.501v-30
c0 -21.333 -2.66699 -50.5 -8 -87.5s-16.333 -96.167 -33 -177.5c-6.66699 -31.333 -11.834 -61.333 -15.501 -90s-5.5 -55.667 -5.5 -81l42 44c20 20.667 37 39.667 51 57l132 162l94 124c40 55.333 63.667 87 71 95c25.333 29.333 46.333 44 63 44c8 0 15.333 -3 22 -9
s10 -13.667 10 -23z" />
    <glyph glyph-name="Eacute" unicode="&#x419;" horiz-adv-x="636" 
d="M563 828c0 -8 -3.99902 -18.333 -11.999 -31c-10.667 -16.667 -24.834 -30.667 -42.501 -42s-34 -19.333 -49 -24s-29.167 -7 -42.5 -7c-18.667 0 -36.334 3.33301 -53.001 10c-10 4 -22.333 11 -37 21c-9.33301 6.66699 -17.666 13.667 -24.999 21
c-10 10.667 -16.167 19.5 -18.5 26.5s-3.5 13.833 -3.5 20.5c0 9.33301 2.33301 17.166 7 23.499s11.334 9.5 20.001 9.5c6 0 14.333 -6.33301 25 -19c14.667 -17.333 22.667 -26.666 24 -27.999l21 -18c12.667 -10 26 -16 40 -18c19.333 -2 42.666 5.33301 69.999 22
c11.333 7.33301 22.666 18 33.999 32c9.33301 11.333 16.333 17 21 17c6.66699 0 11.834 -1 15.501 -3s5.5 -6.33301 5.5 -13zM627.001 649c-19.333 -65.333 -36.334 -128.166 -51.001 -188.499s-22 -112.5 -22 -156.5c0 -32 2.33301 -76.667 7 -134s7 -92 7 -104v-21
c0 -9.33301 -0.333008 -15 -1 -17c-2.66699 -8.66699 -10.667 -13 -24 -13c-15.333 0 -25.666 17.667 -30.999 53c-2.66699 18 -5.33398 40 -8.00098 66c-4 28 -6.66699 49 -8 63c-3.33301 27.333 -5 50.333 -5 69c0 14.667 1.16699 33 3.5 55s7.33301 56.167 15 102.5
s16.5 85.833 26.5 118.5c-15.333 -17.333 -37.333 -44.666 -66 -81.999c-76.667 -100 -119 -154.667 -127 -164l-67 -82l-78 -92c-29.333 -33.333 -51.666 -56.666 -66.999 -69.999c-3.33301 -10 -7.66602 -17 -12.999 -21s-11 -6 -17 -6c-6.66699 0 -12 7 -16 21
s-6 31.667 -6 53c0 20 0.166992 43.167 0.5 69.5s4.16602 61.166 11.499 104.499s15.333 88 24 134c18 96.667 27 171 27 223c0 7.33301 3.33301 17.166 10 29.499s13.334 18.5 20.001 18.5c13.333 0 22 -4.83301 26 -14.5s6 -23.834 6 -42.501v-30
c0 -21.333 -2.66699 -50.5 -8 -87.5s-16.333 -96.167 -33 -177.5c-6.66699 -31.333 -11.834 -61.333 -15.501 -90s-5.5 -55.667 -5.5 -81l42 44c20 20.667 37 39.667 51 57l132 162l94 124c40 55.333 63.667 87 71 95c25.333 29.333 46.333 44 63 44c8 0 15.333 -3 22 -9
s10 -13.667 10 -23z" />
    <glyph glyph-name="Ecircumflex" unicode="&#xca;" horiz-adv-x="620" 
d="M617 -23c0 -8 -3.66602 -12.002 -10.999 -12.002c-8 0.666992 -14.667 1 -20 1c-24 0 -63.667 13.667 -119 41c-64 31.333 -118.333 68 -163 110s-84 83.667 -118 125c-28 34 -49 63.333 -63 88c0 -25.333 -2.33301 -61.666 -7 -108.999l-15 -151
c0 -26.667 -2.16699 -45 -6.5 -55s-12.5 -15 -24.5 -15c-9.33301 0.666992 -15.5 5.66699 -18.5 15s-4.5 24 -4.5 44v27.5c0 9.66699 0.333008 19.834 1 30.501c6 88.667 11.167 171.667 15.5 249s6.5 135 6.5 173c0 36 -0.5 63.333 -1.5 82s-1.83301 37.667 -2.5 57
c0 12 3.5 22.5 10.5 31.5s16.5 13.5 28.5 13.5c9.33301 0 18 -5 26 -15c10.667 -14 16 -33 16 -57c0 -19.333 -1.33301 -45.666 -4 -78.999c-7.33301 -92.667 -11 -139.667 -11 -141c13.333 12.667 38 37.667 74 75c27.333 28 49.333 49 66 63l135 111
c42 33.333 69.667 50 83 50c7.33301 0 14 -3 20 -9c3.33301 -3.33301 5 -6 5 -8c0 -6 -24 -29.667 -72 -71c-12 -10.667 -61.333 -52.334 -148 -125.001c-14 -12 -32.667 -30.667 -56 -56l-70 -77c10 -22.667 31.333 -54.334 64 -95.001s70.667 -83.334 114 -128.001
c20.667 -21.333 42 -40.666 64 -57.999c19.333 -15.333 45.666 -33.666 78.999 -54.999c12.667 -8 39.667 -21.667 81 -41c30.667 -14 46 -24 46 -30z" />
    <glyph glyph-name="Ecircumflex" unicode="&#x41a;" horiz-adv-x="620" 
d="M617 -23c0 -8 -3.66602 -12.002 -10.999 -12.002c-8 0.666992 -14.667 1 -20 1c-24 0 -63.667 13.667 -119 41c-64 31.333 -118.333 68 -163 110s-84 83.667 -118 125c-28 34 -49 63.333 -63 88c0 -25.333 -2.33301 -61.666 -7 -108.999l-15 -151
c0 -26.667 -2.16699 -45 -6.5 -55s-12.5 -15 -24.5 -15c-9.33301 0.666992 -15.5 5.66699 -18.5 15s-4.5 24 -4.5 44v27.5c0 9.66699 0.333008 19.834 1 30.501c6 88.667 11.167 171.667 15.5 249s6.5 135 6.5 173c0 36 -0.5 63.333 -1.5 82s-1.83301 37.667 -2.5 57
c0 12 3.5 22.5 10.5 31.5s16.5 13.5 28.5 13.5c9.33301 0 18 -5 26 -15c10.667 -14 16 -33 16 -57c0 -19.333 -1.33301 -45.666 -4 -78.999c-7.33301 -92.667 -11 -139.667 -11 -141c13.333 12.667 38 37.667 74 75c27.333 28 49.333 49 66 63l135 111
c42 33.333 69.667 50 83 50c7.33301 0 14 -3 20 -9c3.33301 -3.33301 5 -6 5 -8c0 -6 -24 -29.667 -72 -71c-12 -10.667 -61.333 -52.334 -148 -125.001c-14 -12 -32.667 -30.667 -56 -56l-70 -77c10 -22.667 31.333 -54.334 64 -95.001s70.667 -83.334 114 -128.001
c20.667 -21.333 42 -40.666 64 -57.999c19.333 -15.333 45.666 -33.666 78.999 -54.999c12.667 -8 39.667 -21.667 81 -41c30.667 -14 46 -24 46 -30z" />
    <glyph glyph-name="Edieresis" unicode="&#xcb;" horiz-adv-x="582" 
d="M613 -18c0 -15.333 -4 -22.999 -12 -22.999c-9.33301 0 -20.333 8.66699 -33 26c-20.667 27.333 -51.334 83.333 -92.001 168l-66 143l-50 108l-72 153l-55 -135c-7.33301 -15.333 -15.333 -35 -24 -59c-20 -53.333 -32.333 -85.666 -37 -96.999l-75 -159
c-7.33301 -13.333 -15 -30.333 -23 -51s-12 -35.667 -12 -45c0 -7.33301 -3.5 -13.5 -10.5 -18.5s-13.833 -7.5 -20.5 -7.5c-8 0 -15 4.33301 -21 13s-9 17.667 -9 27c0 13.333 12.667 50.166 38 110.499l75 178.5l72 170c26.667 62 42.667 101.667 48 119l12 66
c4 21.333 11.333 32 22 32s21 -4.33301 31 -13c14 -12 24.333 -28.667 31 -50c20.667 -38 43.334 -89.667 68.001 -155c34 -90.667 56.667 -149.334 68 -176.001l62 -138l57 -124c18.667 -40.667 28 -61.667 28 -63z" />
    <glyph glyph-name="Edieresis" unicode="&#x41b;" horiz-adv-x="582" 
d="M613 -18c0 -15.333 -4 -22.999 -12 -22.999c-9.33301 0 -20.333 8.66699 -33 26c-20.667 27.333 -51.334 83.333 -92.001 168l-66 143l-50 108l-72 153l-55 -135c-7.33301 -15.333 -15.333 -35 -24 -59c-20 -53.333 -32.333 -85.666 -37 -96.999l-75 -159
c-7.33301 -13.333 -15 -30.333 -23 -51s-12 -35.667 -12 -45c0 -7.33301 -3.5 -13.5 -10.5 -18.5s-13.833 -7.5 -20.5 -7.5c-8 0 -15 4.33301 -21 13s-9 17.667 -9 27c0 13.333 12.667 50.166 38 110.499l75 178.5l72 170c26.667 62 42.667 101.667 48 119l12 66
c4 21.333 11.333 32 22 32s21 -4.33301 31 -13c14 -12 24.333 -28.667 31 -50c20.667 -38 43.334 -89.667 68.001 -155c34 -90.667 56.667 -149.334 68 -176.001l62 -138l57 -124c18.667 -40.667 28 -61.667 28 -63z" />
    <glyph glyph-name="Igrave" unicode="&#xcc;" horiz-adv-x="716" 
d="M688 590c0 -33.333 -1.33008 -83.5 -3.99707 -150.5l-8 -198.5c-2.66699 -65.333 -4 -111.333 -4 -138c0 -8.66699 0.333008 -18.334 1 -29.001l2 -32c0 -14 -1.16699 -24.667 -3.5 -32s-7.16602 -11 -14.499 -11c-16.667 0 -27.834 18.5 -33.501 55.5
s-8.5 85.833 -8.5 146.5v87c0 26.667 0.333008 62.334 1 107.001s1.66699 92.667 3 144c-7.33301 -10 -28.333 -48 -63 -114l-49 -92c-34 -66 -55 -105 -63 -117c-26.667 -40 -54.667 -60 -84 -60c-24.667 0 -52.334 16 -83.001 48c-27.333 28 -52.666 63.667 -75.999 107
l-37 71c-14 28 -25.333 53.333 -34 76l-23 -138c-16 -90 -30.333 -160 -43 -210c-18 -72.667 -33.333 -109 -46 -109c-6.66699 0 -11.834 1.5 -15.501 4.5s-5.5 9.5 -5.5 19.5v12c0 12.667 5.66699 53 17 121l35 205c14.667 86.667 23.667 144.667 27 174
c1.33301 8.66699 2.33301 21.167 3 37.5s1 27.833 1 34.5v40c0 10 0.333008 18 1 24c3.33301 18.667 10.666 28 21.999 28c12.667 1.33301 25 -14 37 -46l26 -81c7.33301 -18 16.666 -43 27.999 -75c16.667 -47.333 34.667 -89.833 54 -127.5s37.666 -69.5 54.999 -95.5
c26.667 -40 47.334 -60 62.001 -60c11.333 0 28.333 18.333 51 55c18 29.333 36 63.666 54 102.999c15.333 35.333 36 76.333 62 123l64 114c16.667 26.667 26 41.334 28 44.001c11.333 16 20.333 24 27 24c16 0 26.667 -3.5 32 -10.5s8 -17.5 8 -31.5
c0 -8 -0.333008 -16 -1 -24z" />
    </font>
</defs>
</svg>
